<ttFont>
    <TTGlyph name=".notdef" xMin="120" yMin="0" xMax="480" yMax="582">
      <contour>
        <pt x="170" y="536" on="1"/>
        <pt x="170" y="46" on="1"/>
        <pt x="430" y="46" on="1"/>
        <pt x="430" y="536" on="1"/>
      </contour>
      <contour>
        <pt x="120" y="0" on="1"/>
        <pt x="120" y="582" on="1"/>
        <pt x="480" y="582" on="1"/>
        <pt x="480" y="0" on="1"/>
      </contour>
    </TTGlyph>
    <TTGlyph name="A" xMin="24" yMin="0" xMax="533" yMax="643">
      <contour>
        <pt x="132" y="0" on="1"/>
        <pt x="36" y="0" on="1"/>
        <pt x="18" y="0" on="0"/>
        <pt x="24" y="21" on="1"/>
        <pt x="182" y="622" on="1"/>
        <pt x="189" y="643" on="0"/>
        <pt x="212" y="643" on="1"/>
        <pt x="345" y="643" on="1"/>
        <pt x="370" y="643" on="0"/>
        <pt x="375" y="622" on="1"/>
        <pt x="533" y="21" on="1"/>
        <pt x="539" y="0" on="0"/>
        <pt x="521" y="0" on="1"/>
        <pt x="425" y="0" on="1"/>
        <pt x="414" y="0" on="0"/>
        <pt x="406" y="9" on="0"/>
        <pt x="404" y="21" on="1"/>
        <pt x="376" y="131" on="1"/>
        <pt x="181" y="131" on="1"/>
        <pt x="153" y="21" on="1"/>
        <pt x="151" y="9" on="0"/>
        <pt x="142" y="0" on="0"/>
      </contour>
      <contour>
        <pt x="277" y="522" on="1"/>
        <pt x="205" y="233" on="1"/>
        <pt x="353" y="233" on="1"/>
        <pt x="281" y="522" on="1"/>
      </contour>
    </TTGlyph>
    <TTGlyph name="AE" xMin="7" yMin="0" xMax="736" yMax="643">
      <contour>
        <pt x="112" y="0" on="1"/>
        <pt x="20" y="0" on="1"/>
        <pt x="-2" y="0" on="0"/>
        <pt x="7" y="22" on="1"/>
        <pt x="284" y="622" on="1"/>
        <pt x="294" y="643" on="0"/>
        <pt x="317" y="643" on="1"/>
        <pt x="716" y="643" on="1"/>
        <pt x="736" y="643" on="0"/>
        <pt x="736" y="622" on="1"/>
        <pt x="736" y="554" on="1"/>
        <pt x="736" y="533" on="0"/>
        <pt x="716" y="533" on="1"/>
        <pt x="507" y="533" on="1"/>
        <pt x="495" y="533" on="0"/>
        <pt x="495" y="522" on="1"/>
        <pt x="495" y="392" on="1"/>
        <pt x="495" y="381" on="0"/>
        <pt x="507" y="381" on="1"/>
        <pt x="678" y="381" on="1"/>
        <pt x="699" y="381" on="0"/>
        <pt x="699" y="360" on="1"/>
        <pt x="699" y="292" on="1"/>
        <pt x="699" y="271" on="0"/>
        <pt x="678" y="271" on="1"/>
        <pt x="507" y="271" on="1"/>
        <pt x="495" y="271" on="0"/>
        <pt x="495" y="260" on="1"/>
        <pt x="495" y="121" on="1"/>
        <pt x="495" y="110" on="0"/>
        <pt x="507" y="110" on="1"/>
        <pt x="716" y="110" on="1"/>
        <pt x="736" y="110" on="0"/>
        <pt x="736" y="89" on="1"/>
        <pt x="736" y="21" on="1"/>
        <pt x="736" y="0" on="0"/>
        <pt x="716" y="0" on="1"/>
        <pt x="389" y="0" on="1"/>
        <pt x="368" y="0" on="0"/>
        <pt x="368" y="21" on="1"/>
        <pt x="368" y="132" on="1"/>
        <pt x="190" y="132" on="1"/>
        <pt x="139" y="21" on="1"/>
        <pt x="131" y="0" on="0"/>
      </contour>
      <contour>
        <pt x="368" y="243" on="1"/>
        <pt x="368" y="522" on="1"/>
        <pt x="364" y="522" on="1"/>
        <pt x="237" y="243" on="1"/>
      </contour>
    </TTGlyph>
    <TTGlyph name="AEacute" xMin="7" yMin="0" xMax="736" yMax="836">
      <contour>
        <pt x="487" y="836" on="1"/>
        <pt x="586" y="836" on="1"/>
        <pt x="597" y="836" on="0"/>
        <pt x="603" y="824" on="0"/>
        <pt x="596" y="816" on="1"/>
        <pt x="515" y="720" on="1"/>
        <pt x="504" y="707" on="0"/>
        <pt x="489" y="707" on="1"/>
        <pt x="423" y="707" on="1"/>
        <pt x="403" y="707" on="0"/>
        <pt x="413" y="728" on="1"/>
        <pt x="458" y="817" on="1"/>
        <pt x="468" y="836" on="0"/>
      </contour>
      <contour>
        <pt x="112" y="0" on="1"/>
        <pt x="20" y="0" on="1"/>
        <pt x="-2" y="0" on="0"/>
        <pt x="7" y="22" on="1"/>
        <pt x="284" y="622" on="1"/>
        <pt x="294" y="643" on="0"/>
        <pt x="317" y="643" on="1"/>
        <pt x="716" y="643" on="1"/>
        <pt x="736" y="643" on="0"/>
        <pt x="736" y="622" on="1"/>
        <pt x="736" y="554" on="1"/>
        <pt x="736" y="533" on="0"/>
        <pt x="716" y="533" on="1"/>
        <pt x="507" y="533" on="1"/>
        <pt x="495" y="533" on="0"/>
        <pt x="495" y="522" on="1"/>
        <pt x="495" y="392" on="1"/>
        <pt x="495" y="381" on="0"/>
        <pt x="507" y="381" on="1"/>
        <pt x="678" y="381" on="1"/>
        <pt x="699" y="381" on="0"/>
        <pt x="699" y="360" on="1"/>
        <pt x="699" y="292" on="1"/>
        <pt x="699" y="271" on="0"/>
        <pt x="678" y="271" on="1"/>
        <pt x="507" y="271" on="1"/>
        <pt x="495" y="271" on="0"/>
        <pt x="495" y="260" on="1"/>
        <pt x="495" y="121" on="1"/>
        <pt x="495" y="110" on="0"/>
        <pt x="507" y="110" on="1"/>
        <pt x="716" y="110" on="1"/>
        <pt x="736" y="110" on="0"/>
        <pt x="736" y="89" on="1"/>
        <pt x="736" y="21" on="1"/>
        <pt x="736" y="0" on="0"/>
        <pt x="716" y="0" on="1"/>
        <pt x="389" y="0" on="1"/>
        <pt x="368" y="0" on="0"/>
        <pt x="368" y="21" on="1"/>
        <pt x="368" y="132" on="1"/>
        <pt x="190" y="132" on="1"/>
        <pt x="139" y="21" on="1"/>
        <pt x="131" y="0" on="0"/>
      </contour>
      <contour>
        <pt x="368" y="243" on="1"/>
        <pt x="368" y="522" on="1"/>
        <pt x="364" y="522" on="1"/>
        <pt x="237" y="243" on="1"/>
      </contour>
    </TTGlyph>
    <TTGlyph name="Aacute" xMin="24" yMin="0" xMax="533" yMax="836">
      <contour>
        <pt x="307" y="836" on="1"/>
        <pt x="406" y="836" on="1"/>
        <pt x="417" y="836" on="0"/>
        <pt x="423" y="824" on="0"/>
        <pt x="416" y="816" on="1"/>
        <pt x="335" y="720" on="1"/>
        <pt x="324" y="707" on="0"/>
        <pt x="309" y="707" on="1"/>
        <pt x="243" y="707" on="1"/>
        <pt x="223" y="707" on="0"/>
        <pt x="233" y="728" on="1"/>
        <pt x="278" y="817" on="1"/>
        <pt x="288" y="836" on="0"/>
      </contour>
      <contour>
        <pt x="132" y="0" on="1"/>
        <pt x="36" y="0" on="1"/>
        <pt x="18" y="0" on="0"/>
        <pt x="24" y="21" on="1"/>
        <pt x="182" y="622" on="1"/>
        <pt x="189" y="643" on="0"/>
        <pt x="212" y="643" on="1"/>
        <pt x="345" y="643" on="1"/>
        <pt x="370" y="643" on="0"/>
        <pt x="375" y="622" on="1"/>
        <pt x="533" y="21" on="1"/>
        <pt x="539" y="0" on="0"/>
        <pt x="521" y="0" on="1"/>
        <pt x="425" y="0" on="1"/>
        <pt x="414" y="0" on="0"/>
        <pt x="406" y="9" on="0"/>
        <pt x="404" y="21" on="1"/>
        <pt x="376" y="131" on="1"/>
        <pt x="181" y="131" on="1"/>
        <pt x="153" y="21" on="1"/>
        <pt x="151" y="9" on="0"/>
        <pt x="142" y="0" on="0"/>
      </contour>
      <contour>
        <pt x="277" y="522" on="1"/>
        <pt x="205" y="233" on="1"/>
        <pt x="353" y="233" on="1"/>
        <pt x="281" y="522" on="1"/>
      </contour>
    </TTGlyph>
    <TTGlyph name="Abreve" xMin="24" yMin="0" xMax="533" yMax="836">
      <contour>
        <pt x="163" y="823" on="1"/>
        <pt x="163" y="836" on="0"/>
        <pt x="177" y="836" on="1"/>
        <pt x="227" y="836" on="1"/>
        <pt x="240" y="836" on="0"/>
        <pt x="240" y="823" on="1"/>
        <pt x="240" y="814" on="1"/>
        <pt x="240" y="790" on="0"/>
        <pt x="257" y="771" on="0"/>
        <pt x="275" y="771" on="1"/>
        <pt x="282" y="771" on="1"/>
        <pt x="317" y="771" on="0"/>
        <pt x="317" y="814" on="1"/>
        <pt x="317" y="823" on="1"/>
        <pt x="317" y="836" on="0"/>
        <pt x="330" y="836" on="1"/>
        <pt x="380" y="836" on="1"/>
        <pt x="394" y="836" on="0"/>
        <pt x="394" y="823" on="1"/>
        <pt x="394" y="812" on="1"/>
        <pt x="394" y="761" on="0"/>
        <pt x="341" y="707" on="0"/>
        <pt x="296" y="707" on="1"/>
        <pt x="261" y="707" on="1"/>
        <pt x="215" y="707" on="0"/>
        <pt x="163" y="761" on="0"/>
        <pt x="163" y="812" on="1"/>
      </contour>
      <contour>
        <pt x="132" y="0" on="1"/>
        <pt x="36" y="0" on="1"/>
        <pt x="18" y="0" on="0"/>
        <pt x="24" y="21" on="1"/>
        <pt x="182" y="622" on="1"/>
        <pt x="189" y="643" on="0"/>
        <pt x="212" y="643" on="1"/>
        <pt x="345" y="643" on="1"/>
        <pt x="370" y="643" on="0"/>
        <pt x="375" y="622" on="1"/>
        <pt x="533" y="21" on="1"/>
        <pt x="539" y="0" on="0"/>
        <pt x="521" y="0" on="1"/>
        <pt x="425" y="0" on="1"/>
        <pt x="414" y="0" on="0"/>
        <pt x="406" y="9" on="0"/>
        <pt x="404" y="21" on="1"/>
        <pt x="376" y="131" on="1"/>
        <pt x="181" y="131" on="1"/>
        <pt x="153" y="21" on="1"/>
        <pt x="151" y="9" on="0"/>
        <pt x="142" y="0" on="0"/>
      </contour>
      <contour>
        <pt x="277" y="522" on="1"/>
        <pt x="205" y="233" on="1"/>
        <pt x="353" y="233" on="1"/>
        <pt x="281" y="522" on="1"/>
      </contour>
    </TTGlyph>
    <TTGlyph name="Acircumflex" xMin="24" yMin="0" xMax="533" yMax="836">
      <contour>
        <pt x="389" y="707" on="1"/>
        <pt x="329" y="707" on="1"/>
        <pt x="316" y="707" on="0"/>
        <pt x="311" y="719" on="1"/>
        <pt x="279" y="785" on="1"/>
        <pt x="246" y="719" on="1"/>
        <pt x="242" y="707" on="0"/>
        <pt x="229" y="707" on="1"/>
        <pt x="170" y="707" on="1"/>
        <pt x="155" y="707" on="0"/>
        <pt x="162" y="720" on="1"/>
        <pt x="224" y="825" on="1"/>
        <pt x="232" y="836" on="0"/>
        <pt x="246" y="836" on="1"/>
        <pt x="311" y="836" on="1"/>
        <pt x="325" y="836" on="0"/>
        <pt x="333" y="825" on="1"/>
        <pt x="396" y="720" on="1"/>
        <pt x="403" y="707" on="0"/>
      </contour>
      <contour>
        <pt x="132" y="0" on="1"/>
        <pt x="36" y="0" on="1"/>
        <pt x="18" y="0" on="0"/>
        <pt x="24" y="21" on="1"/>
        <pt x="182" y="622" on="1"/>
        <pt x="189" y="643" on="0"/>
        <pt x="212" y="643" on="1"/>
        <pt x="345" y="643" on="1"/>
        <pt x="370" y="643" on="0"/>
        <pt x="375" y="622" on="1"/>
        <pt x="533" y="21" on="1"/>
        <pt x="539" y="0" on="0"/>
        <pt x="521" y="0" on="1"/>
        <pt x="425" y="0" on="1"/>
        <pt x="414" y="0" on="0"/>
        <pt x="406" y="9" on="0"/>
        <pt x="404" y="21" on="1"/>
        <pt x="376" y="131" on="1"/>
        <pt x="181" y="131" on="1"/>
        <pt x="153" y="21" on="1"/>
        <pt x="151" y="9" on="0"/>
        <pt x="142" y="0" on="0"/>
      </contour>
      <contour>
        <pt x="277" y="522" on="1"/>
        <pt x="205" y="233" on="1"/>
        <pt x="353" y="233" on="1"/>
        <pt x="281" y="522" on="1"/>
      </contour>
    </TTGlyph>
    <TTGlyph name="Adieresis" xMin="24" yMin="0" xMax="533" yMax="836">
      <contour>
        <pt x="124" y="728" on="1"/>
        <pt x="124" y="816" on="1"/>
        <pt x="124" y="836" on="0"/>
        <pt x="143" y="836" on="1"/>
        <pt x="223" y="836" on="1"/>
        <pt x="242" y="836" on="0"/>
        <pt x="242" y="817" on="1"/>
        <pt x="242" y="728" on="1"/>
        <pt x="242" y="707" on="0"/>
        <pt x="223" y="707" on="1"/>
        <pt x="143" y="707" on="1"/>
        <pt x="124" y="707" on="0"/>
      </contour>
      <contour>
        <pt x="314" y="728" on="1"/>
        <pt x="314" y="816" on="1"/>
        <pt x="314" y="836" on="0"/>
        <pt x="333" y="836" on="1"/>
        <pt x="413" y="836" on="1"/>
        <pt x="432" y="836" on="0"/>
        <pt x="432" y="817" on="1"/>
        <pt x="432" y="728" on="1"/>
        <pt x="432" y="707" on="0"/>
        <pt x="413" y="707" on="1"/>
        <pt x="333" y="707" on="1"/>
        <pt x="314" y="707" on="0"/>
      </contour>
      <contour>
        <pt x="132" y="0" on="1"/>
        <pt x="36" y="0" on="1"/>
        <pt x="18" y="0" on="0"/>
        <pt x="24" y="21" on="1"/>
        <pt x="182" y="622" on="1"/>
        <pt x="189" y="643" on="0"/>
        <pt x="212" y="643" on="1"/>
        <pt x="345" y="643" on="1"/>
        <pt x="370" y="643" on="0"/>
        <pt x="375" y="622" on="1"/>
        <pt x="533" y="21" on="1"/>
        <pt x="539" y="0" on="0"/>
        <pt x="521" y="0" on="1"/>
        <pt x="425" y="0" on="1"/>
        <pt x="414" y="0" on="0"/>
        <pt x="406" y="9" on="0"/>
        <pt x="404" y="21" on="1"/>
        <pt x="376" y="131" on="1"/>
        <pt x="181" y="131" on="1"/>
        <pt x="153" y="21" on="1"/>
        <pt x="151" y="9" on="0"/>
        <pt x="142" y="0" on="0"/>
      </contour>
      <contour>
        <pt x="277" y="522" on="1"/>
        <pt x="205" y="233" on="1"/>
        <pt x="353" y="233" on="1"/>
        <pt x="281" y="522" on="1"/>
      </contour>
    </TTGlyph>
    <TTGlyph name="Agrave" xMin="24" yMin="0" xMax="533" yMax="836">
      <contour>
        <pt x="309" y="707" on="1"/>
        <pt x="243" y="707" on="1"/>
        <pt x="227" y="707" on="0"/>
        <pt x="217" y="720" on="1"/>
        <pt x="136" y="816" on="1"/>
        <pt x="129" y="824" on="0"/>
        <pt x="135" y="836" on="0"/>
        <pt x="146" y="836" on="1"/>
        <pt x="244" y="836" on="1"/>
        <pt x="264" y="836" on="0"/>
        <pt x="274" y="817" on="1"/>
        <pt x="319" y="728" on="1"/>
        <pt x="329" y="707" on="0"/>
      </contour>
      <contour>
        <pt x="132" y="0" on="1"/>
        <pt x="36" y="0" on="1"/>
        <pt x="18" y="0" on="0"/>
        <pt x="24" y="21" on="1"/>
        <pt x="182" y="622" on="1"/>
        <pt x="189" y="643" on="0"/>
        <pt x="212" y="643" on="1"/>
        <pt x="345" y="643" on="1"/>
        <pt x="370" y="643" on="0"/>
        <pt x="375" y="622" on="1"/>
        <pt x="533" y="21" on="1"/>
        <pt x="539" y="0" on="0"/>
        <pt x="521" y="0" on="1"/>
        <pt x="425" y="0" on="1"/>
        <pt x="414" y="0" on="0"/>
        <pt x="406" y="9" on="0"/>
        <pt x="404" y="21" on="1"/>
        <pt x="376" y="131" on="1"/>
        <pt x="181" y="131" on="1"/>
        <pt x="153" y="21" on="1"/>
        <pt x="151" y="9" on="0"/>
        <pt x="142" y="0" on="0"/>
      </contour>
      <contour>
        <pt x="277" y="522" on="1"/>
        <pt x="205" y="233" on="1"/>
        <pt x="353" y="233" on="1"/>
        <pt x="281" y="522" on="1"/>
      </contour>
    </TTGlyph>
    <TTGlyph name="Amacron" xMin="24" yMin="0" xMax="533" yMax="819">
      <contour>
        <pt x="377" y="732" on="1"/>
        <pt x="179" y="732" on="1"/>
        <pt x="159" y="732" on="0"/>
        <pt x="159" y="753" on="1"/>
        <pt x="159" y="798" on="1"/>
        <pt x="159" y="819" on="0"/>
        <pt x="179" y="819" on="1"/>
        <pt x="377" y="819" on="1"/>
        <pt x="397" y="819" on="0"/>
        <pt x="397" y="798" on="1"/>
        <pt x="397" y="753" on="1"/>
        <pt x="397" y="732" on="0"/>
      </contour>
      <contour>
        <pt x="132" y="0" on="1"/>
        <pt x="36" y="0" on="1"/>
        <pt x="18" y="0" on="0"/>
        <pt x="24" y="21" on="1"/>
        <pt x="182" y="622" on="1"/>
        <pt x="189" y="643" on="0"/>
        <pt x="212" y="643" on="1"/>
        <pt x="345" y="643" on="1"/>
        <pt x="370" y="643" on="0"/>
        <pt x="375" y="622" on="1"/>
        <pt x="533" y="21" on="1"/>
        <pt x="539" y="0" on="0"/>
        <pt x="521" y="0" on="1"/>
        <pt x="425" y="0" on="1"/>
        <pt x="414" y="0" on="0"/>
        <pt x="406" y="9" on="0"/>
        <pt x="404" y="21" on="1"/>
        <pt x="376" y="131" on="1"/>
        <pt x="181" y="131" on="1"/>
        <pt x="153" y="21" on="1"/>
        <pt x="151" y="9" on="0"/>
        <pt x="142" y="0" on="0"/>
      </contour>
      <contour>
        <pt x="277" y="522" on="1"/>
        <pt x="205" y="233" on="1"/>
        <pt x="353" y="233" on="1"/>
        <pt x="281" y="522" on="1"/>
      </contour>
    </TTGlyph>
    <TTGlyph name="Aogonek" xMin="24" yMin="-123" xMax="533" yMax="643">
      <contour>
        <pt x="521" y="0" on="1"/>
        <pt x="453" y="0" on="1"/>
        <pt x="416" y="-57" on="1"/>
        <pt x="457" y="-57" on="1"/>
        <pt x="470" y="-57" on="0"/>
        <pt x="479" y="-65" on="0"/>
        <pt x="479" y="-77" on="1"/>
        <pt x="479" y="-98" on="0"/>
        <pt x="413" y="-123" on="0"/>
        <pt x="354" y="-123" on="0"/>
        <pt x="337" y="-88" on="0"/>
        <pt x="351" y="-68" on="1"/>
        <pt x="404" y="19" on="1"/>
        <pt x="404" y="21" on="1"/>
        <pt x="376" y="131" on="1"/>
        <pt x="181" y="131" on="1"/>
        <pt x="153" y="21" on="1"/>
        <pt x="151" y="9" on="0"/>
        <pt x="142" y="0" on="0"/>
        <pt x="132" y="0" on="1"/>
        <pt x="36" y="0" on="1"/>
        <pt x="18" y="0" on="0"/>
        <pt x="24" y="21" on="1"/>
        <pt x="182" y="622" on="1"/>
        <pt x="189" y="643" on="0"/>
        <pt x="212" y="643" on="1"/>
        <pt x="345" y="643" on="1"/>
        <pt x="370" y="643" on="0"/>
        <pt x="375" y="622" on="1"/>
        <pt x="533" y="21" on="1"/>
        <pt x="539" y="0" on="0"/>
      </contour>
      <contour>
        <pt x="205" y="233" on="1"/>
        <pt x="353" y="233" on="1"/>
        <pt x="281" y="522" on="1"/>
        <pt x="277" y="522" on="1"/>
      </contour>
    </TTGlyph>
    <TTGlyph name="Aring" xMin="24" yMin="0" xMax="533" yMax="874">
      <contour>
        <pt x="306" y="704" on="1"/>
        <pt x="249" y="704" on="1"/>
        <pt x="195" y="704" on="0"/>
        <pt x="195" y="758" on="1"/>
        <pt x="195" y="822" on="1"/>
        <pt x="195" y="874" on="0"/>
        <pt x="249" y="874" on="1"/>
        <pt x="306" y="874" on="1"/>
        <pt x="331" y="874" on="0"/>
        <pt x="361" y="846" on="0"/>
        <pt x="361" y="822" on="1"/>
        <pt x="361" y="758" on="1"/>
        <pt x="361" y="732" on="0"/>
        <pt x="331" y="704" on="0"/>
      </contour>
      <contour>
        <pt x="269" y="750" on="1"/>
        <pt x="285" y="750" on="1"/>
        <pt x="298" y="750" on="0"/>
        <pt x="308" y="761" on="0"/>
        <pt x="308" y="775" on="1"/>
        <pt x="308" y="801" on="1"/>
        <pt x="308" y="816" on="0"/>
        <pt x="299" y="827" on="0"/>
        <pt x="286" y="827" on="1"/>
        <pt x="270" y="827" on="1"/>
        <pt x="257" y="827" on="0"/>
        <pt x="246" y="816" on="0"/>
        <pt x="246" y="801" on="1"/>
        <pt x="246" y="775" on="1"/>
        <pt x="246" y="761" on="0"/>
        <pt x="256" y="750" on="0"/>
      </contour>
      <contour>
        <pt x="132" y="0" on="1"/>
        <pt x="36" y="0" on="1"/>
        <pt x="18" y="0" on="0"/>
        <pt x="24" y="21" on="1"/>
        <pt x="182" y="622" on="1"/>
        <pt x="189" y="643" on="0"/>
        <pt x="212" y="643" on="1"/>
        <pt x="345" y="643" on="1"/>
        <pt x="370" y="643" on="0"/>
        <pt x="375" y="622" on="1"/>
        <pt x="533" y="21" on="1"/>
        <pt x="539" y="0" on="0"/>
        <pt x="521" y="0" on="1"/>
        <pt x="425" y="0" on="1"/>
        <pt x="414" y="0" on="0"/>
        <pt x="406" y="9" on="0"/>
        <pt x="404" y="21" on="1"/>
        <pt x="376" y="131" on="1"/>
        <pt x="181" y="131" on="1"/>
        <pt x="153" y="21" on="1"/>
        <pt x="151" y="9" on="0"/>
        <pt x="142" y="0" on="0"/>
      </contour>
      <contour>
        <pt x="277" y="522" on="1"/>
        <pt x="205" y="233" on="1"/>
        <pt x="353" y="233" on="1"/>
        <pt x="281" y="522" on="1"/>
      </contour>
    </TTGlyph>
    <TTGlyph name="Atilde" xMin="24" yMin="0" xMax="533" yMax="833">
      <contour>
        <pt x="231" y="702" on="1"/>
        <pt x="159" y="702" on="0"/>
        <pt x="159" y="778" on="1"/>
        <pt x="159" y="817" on="1"/>
        <pt x="159" y="824" on="0"/>
        <pt x="163" y="828" on="0"/>
        <pt x="170" y="828" on="1"/>
        <pt x="209" y="828" on="1"/>
        <pt x="220" y="828" on="0"/>
        <pt x="220" y="817" on="1"/>
        <pt x="220" y="805" on="1"/>
        <pt x="220" y="783" on="0"/>
        <pt x="226" y="769" on="0"/>
        <pt x="240" y="769" on="0"/>
        <pt x="251" y="780" on="0"/>
        <pt x="293" y="833" on="0"/>
        <pt x="327" y="833" on="1"/>
        <pt x="399" y="833" on="0"/>
        <pt x="399" y="756" on="1"/>
        <pt x="399" y="719" on="1"/>
        <pt x="399" y="706" on="0"/>
        <pt x="389" y="706" on="1"/>
        <pt x="349" y="706" on="1"/>
        <pt x="339" y="706" on="0"/>
        <pt x="339" y="719" on="1"/>
        <pt x="339" y="729" on="1"/>
        <pt x="339" y="751" on="0"/>
        <pt x="332" y="765" on="0"/>
        <pt x="324" y="765" on="1"/>
        <pt x="312" y="765" on="0"/>
        <pt x="294" y="738" on="1"/>
        <pt x="268" y="702" on="0"/>
      </contour>
      <contour>
        <pt x="132" y="0" on="1"/>
        <pt x="36" y="0" on="1"/>
        <pt x="18" y="0" on="0"/>
        <pt x="24" y="21" on="1"/>
        <pt x="182" y="622" on="1"/>
        <pt x="189" y="643" on="0"/>
        <pt x="212" y="643" on="1"/>
        <pt x="345" y="643" on="1"/>
        <pt x="370" y="643" on="0"/>
        <pt x="375" y="622" on="1"/>
        <pt x="533" y="21" on="1"/>
        <pt x="539" y="0" on="0"/>
        <pt x="521" y="0" on="1"/>
        <pt x="425" y="0" on="1"/>
        <pt x="414" y="0" on="0"/>
        <pt x="406" y="9" on="0"/>
        <pt x="404" y="21" on="1"/>
        <pt x="376" y="131" on="1"/>
        <pt x="181" y="131" on="1"/>
        <pt x="153" y="21" on="1"/>
        <pt x="151" y="9" on="0"/>
        <pt x="142" y="0" on="0"/>
      </contour>
      <contour>
        <pt x="277" y="522" on="1"/>
        <pt x="205" y="233" on="1"/>
        <pt x="353" y="233" on="1"/>
        <pt x="281" y="522" on="1"/>
      </contour>
    </TTGlyph>
    <TTGlyph name="B" xMin="65" yMin="0" xMax="500" yMax="643">
      <contour>
        <pt x="203" y="106" on="1"/>
        <pt x="315" y="106" on="1"/>
        <pt x="348" y="106" on="0"/>
        <pt x="377" y="133" on="0"/>
        <pt x="377" y="164" on="1"/>
        <pt x="377" y="222" on="1"/>
        <pt x="377" y="253" on="0"/>
        <pt x="347" y="279" on="0"/>
        <pt x="313" y="279" on="1"/>
        <pt x="203" y="279" on="1"/>
        <pt x="192" y="279" on="0"/>
        <pt x="192" y="268" on="1"/>
        <pt x="192" y="117" on="1"/>
        <pt x="192" y="106" on="0"/>
      </contour>
      <contour>
        <pt x="203" y="382" on="1"/>
        <pt x="305" y="382" on="1"/>
        <pt x="337" y="382" on="0"/>
        <pt x="367" y="409" on="0"/>
        <pt x="367" y="440" on="1"/>
        <pt x="367" y="479" on="1"/>
        <pt x="367" y="510" on="0"/>
        <pt x="338" y="537" on="0"/>
        <pt x="306" y="537" on="1"/>
        <pt x="203" y="537" on="1"/>
        <pt x="192" y="537" on="0"/>
        <pt x="192" y="526" on="1"/>
        <pt x="192" y="393" on="1"/>
        <pt x="192" y="382" on="0"/>
      </contour>
      <contour>
        <pt x="65" y="21" on="1"/>
        <pt x="65" y="622" on="1"/>
        <pt x="65" y="643" on="0"/>
        <pt x="86" y="643" on="1"/>
        <pt x="326" y="643" on="1"/>
        <pt x="405" y="643" on="0"/>
        <pt x="491" y="559" on="0"/>
        <pt x="491" y="481" on="1"/>
        <pt x="491" y="440" on="1"/>
        <pt x="491" y="355" on="0"/>
        <pt x="412" y="330" on="1"/>
        <pt x="452" y="324" on="0"/>
        <pt x="500" y="271" on="0"/>
        <pt x="500" y="222" on="1"/>
        <pt x="500" y="162" on="1"/>
        <pt x="500" y="84" on="0"/>
        <pt x="414" y="0" on="0"/>
        <pt x="336" y="0" on="1"/>
        <pt x="86" y="0" on="1"/>
        <pt x="65" y="0" on="0"/>
      </contour>
    </TTGlyph>
    <TTGlyph name="C" xMin="55" yMin="0" xMax="494" yMax="643">
      <contour>
        <pt x="329" y="0" on="1"/>
        <pt x="220" y="0" on="1"/>
        <pt x="141" y="0" on="0"/>
        <pt x="55" y="84" on="0"/>
        <pt x="55" y="163" on="1"/>
        <pt x="55" y="480" on="1"/>
        <pt x="55" y="559" on="0"/>
        <pt x="141" y="643" on="0"/>
        <pt x="220" y="643" on="1"/>
        <pt x="329" y="643" on="1"/>
        <pt x="407" y="643" on="0"/>
        <pt x="494" y="558" on="0"/>
        <pt x="494" y="480" on="1"/>
        <pt x="494" y="433" on="1"/>
        <pt x="494" y="411" on="0"/>
        <pt x="472" y="411" on="1"/>
        <pt x="388" y="411" on="1"/>
        <pt x="367" y="411" on="0"/>
        <pt x="367" y="433" on="1"/>
        <pt x="367" y="474" on="1"/>
        <pt x="367" y="506" on="0"/>
        <pt x="340" y="533" on="0"/>
        <pt x="308" y="533" on="1"/>
        <pt x="240" y="533" on="1"/>
        <pt x="209" y="533" on="0"/>
        <pt x="182" y="506" on="0"/>
        <pt x="182" y="474" on="1"/>
        <pt x="182" y="169" on="1"/>
        <pt x="182" y="137" on="0"/>
        <pt x="209" y="110" on="0"/>
        <pt x="240" y="110" on="1"/>
        <pt x="308" y="110" on="1"/>
        <pt x="340" y="110" on="0"/>
        <pt x="367" y="137" on="0"/>
        <pt x="367" y="169" on="1"/>
        <pt x="367" y="210" on="1"/>
        <pt x="367" y="232" on="0"/>
        <pt x="388" y="232" on="1"/>
        <pt x="472" y="232" on="1"/>
        <pt x="494" y="232" on="0"/>
        <pt x="494" y="210" on="1"/>
        <pt x="494" y="163" on="1"/>
        <pt x="494" y="85" on="0"/>
        <pt x="407" y="0" on="0"/>
      </contour>
    </TTGlyph>
    <TTGlyph name="Cacute" xMin="55" yMin="0" xMax="494" yMax="836">
      <contour>
        <pt x="329" y="0" on="1"/>
        <pt x="220" y="0" on="1"/>
        <pt x="141" y="0" on="0"/>
        <pt x="55" y="84" on="0"/>
        <pt x="55" y="163" on="1"/>
        <pt x="55" y="480" on="1"/>
        <pt x="55" y="559" on="0"/>
        <pt x="141" y="643" on="0"/>
        <pt x="220" y="643" on="1"/>
        <pt x="329" y="643" on="1"/>
        <pt x="407" y="643" on="0"/>
        <pt x="494" y="558" on="0"/>
        <pt x="494" y="480" on="1"/>
        <pt x="494" y="433" on="1"/>
        <pt x="494" y="411" on="0"/>
        <pt x="472" y="411" on="1"/>
        <pt x="388" y="411" on="1"/>
        <pt x="367" y="411" on="0"/>
        <pt x="367" y="433" on="1"/>
        <pt x="367" y="474" on="1"/>
        <pt x="367" y="506" on="0"/>
        <pt x="340" y="533" on="0"/>
        <pt x="308" y="533" on="1"/>
        <pt x="240" y="533" on="1"/>
        <pt x="209" y="533" on="0"/>
        <pt x="182" y="506" on="0"/>
        <pt x="182" y="474" on="1"/>
        <pt x="182" y="169" on="1"/>
        <pt x="182" y="137" on="0"/>
        <pt x="209" y="110" on="0"/>
        <pt x="240" y="110" on="1"/>
        <pt x="308" y="110" on="1"/>
        <pt x="340" y="110" on="0"/>
        <pt x="367" y="137" on="0"/>
        <pt x="367" y="169" on="1"/>
        <pt x="367" y="210" on="1"/>
        <pt x="367" y="232" on="0"/>
        <pt x="388" y="232" on="1"/>
        <pt x="472" y="232" on="1"/>
        <pt x="494" y="232" on="0"/>
        <pt x="494" y="210" on="1"/>
        <pt x="494" y="163" on="1"/>
        <pt x="494" y="85" on="0"/>
        <pt x="407" y="0" on="0"/>
      </contour>
      <contour>
        <pt x="290" y="836" on="1"/>
        <pt x="389" y="836" on="1"/>
        <pt x="399" y="836" on="0"/>
        <pt x="405" y="824" on="0"/>
        <pt x="399" y="816" on="1"/>
        <pt x="318" y="720" on="1"/>
        <pt x="307" y="707" on="0"/>
        <pt x="291" y="707" on="1"/>
        <pt x="226" y="707" on="1"/>
        <pt x="205" y="707" on="0"/>
        <pt x="215" y="728" on="1"/>
        <pt x="260" y="817" on="1"/>
        <pt x="270" y="836" on="0"/>
      </contour>
    </TTGlyph>
    <TTGlyph name="Ccaron" xMin="55" yMin="0" xMax="494" yMax="836">
      <contour>
        <pt x="329" y="0" on="1"/>
        <pt x="220" y="0" on="1"/>
        <pt x="141" y="0" on="0"/>
        <pt x="55" y="84" on="0"/>
        <pt x="55" y="163" on="1"/>
        <pt x="55" y="480" on="1"/>
        <pt x="55" y="559" on="0"/>
        <pt x="141" y="643" on="0"/>
        <pt x="220" y="643" on="1"/>
        <pt x="329" y="643" on="1"/>
        <pt x="407" y="643" on="0"/>
        <pt x="494" y="558" on="0"/>
        <pt x="494" y="480" on="1"/>
        <pt x="494" y="433" on="1"/>
        <pt x="494" y="411" on="0"/>
        <pt x="472" y="411" on="1"/>
        <pt x="388" y="411" on="1"/>
        <pt x="367" y="411" on="0"/>
        <pt x="367" y="433" on="1"/>
        <pt x="367" y="474" on="1"/>
        <pt x="367" y="506" on="0"/>
        <pt x="340" y="533" on="0"/>
        <pt x="308" y="533" on="1"/>
        <pt x="240" y="533" on="1"/>
        <pt x="209" y="533" on="0"/>
        <pt x="182" y="506" on="0"/>
        <pt x="182" y="474" on="1"/>
        <pt x="182" y="169" on="1"/>
        <pt x="182" y="137" on="0"/>
        <pt x="209" y="110" on="0"/>
        <pt x="240" y="110" on="1"/>
        <pt x="308" y="110" on="1"/>
        <pt x="340" y="110" on="0"/>
        <pt x="367" y="137" on="0"/>
        <pt x="367" y="169" on="1"/>
        <pt x="367" y="210" on="1"/>
        <pt x="367" y="232" on="0"/>
        <pt x="388" y="232" on="1"/>
        <pt x="472" y="232" on="1"/>
        <pt x="494" y="232" on="0"/>
        <pt x="494" y="210" on="1"/>
        <pt x="494" y="163" on="1"/>
        <pt x="494" y="85" on="0"/>
        <pt x="407" y="0" on="0"/>
      </contour>
      <contour>
        <pt x="310" y="707" on="1"/>
        <pt x="246" y="707" on="1"/>
        <pt x="231" y="707" on="0"/>
        <pt x="223" y="718" on="1"/>
        <pt x="161" y="823" on="1"/>
        <pt x="154" y="836" on="0"/>
        <pt x="169" y="836" on="1"/>
        <pt x="228" y="836" on="1"/>
        <pt x="241" y="836" on="0"/>
        <pt x="245" y="824" on="1"/>
        <pt x="278" y="758" on="1"/>
        <pt x="310" y="824" on="1"/>
        <pt x="315" y="836" on="0"/>
        <pt x="328" y="836" on="1"/>
        <pt x="388" y="836" on="1"/>
        <pt x="402" y="836" on="0"/>
        <pt x="395" y="823" on="1"/>
        <pt x="333" y="718" on="1"/>
        <pt x="325" y="707" on="0"/>
      </contour>
    </TTGlyph>
    <TTGlyph name="Ccedilla" xMin="55" yMin="-209" xMax="494" yMax="643">
      <contour>
        <pt x="472" y="411" on="1"/>
        <pt x="388" y="411" on="1"/>
        <pt x="367" y="411" on="0"/>
        <pt x="367" y="433" on="1"/>
        <pt x="367" y="474" on="1"/>
        <pt x="367" y="506" on="0"/>
        <pt x="340" y="533" on="0"/>
        <pt x="308" y="533" on="1"/>
        <pt x="240" y="533" on="1"/>
        <pt x="209" y="533" on="0"/>
        <pt x="182" y="506" on="0"/>
        <pt x="182" y="474" on="1"/>
        <pt x="182" y="169" on="1"/>
        <pt x="182" y="137" on="0"/>
        <pt x="209" y="110" on="0"/>
        <pt x="240" y="110" on="1"/>
        <pt x="308" y="110" on="1"/>
        <pt x="340" y="110" on="0"/>
        <pt x="367" y="137" on="0"/>
        <pt x="367" y="169" on="1"/>
        <pt x="367" y="210" on="1"/>
        <pt x="367" y="232" on="0"/>
        <pt x="388" y="232" on="1"/>
        <pt x="472" y="232" on="1"/>
        <pt x="494" y="232" on="0"/>
        <pt x="494" y="210" on="1"/>
        <pt x="494" y="163" on="1"/>
        <pt x="494" y="85" on="0"/>
        <pt x="407" y="0" on="0"/>
        <pt x="329" y="0" on="1"/>
        <pt x="328" y="0" on="1"/>
        <pt x="288" y="-41" on="1"/>
        <pt x="288" y="-45" on="1"/>
        <pt x="362" y="-45" on="0"/>
        <pt x="362" y="-120" on="1"/>
        <pt x="362" y="-138" on="1"/>
        <pt x="362" y="-174" on="0"/>
        <pt x="311" y="-209" on="0"/>
        <pt x="268" y="-209" on="1"/>
        <pt x="222" y="-209" on="1"/>
        <pt x="211" y="-209" on="0"/>
        <pt x="204" y="-201" on="0"/>
        <pt x="204" y="-190" on="1"/>
        <pt x="204" y="-171" on="1"/>
        <pt x="204" y="-159" on="0"/>
        <pt x="211" y="-151" on="0"/>
        <pt x="222" y="-151" on="1"/>
        <pt x="256" y="-151" on="1"/>
        <pt x="283" y="-151" on="0"/>
        <pt x="301" y="-142" on="0"/>
        <pt x="301" y="-129" on="1"/>
        <pt x="301" y="-126" on="1"/>
        <pt x="301" y="-111" on="0"/>
        <pt x="283" y="-102" on="0"/>
        <pt x="256" y="-102" on="1"/>
        <pt x="230" y="-102" on="1"/>
        <pt x="212" y="-102" on="0"/>
        <pt x="198" y="-63" on="0"/>
        <pt x="212" y="-47" on="1"/>
        <pt x="252" y="0" on="1"/>
        <pt x="220" y="0" on="1"/>
        <pt x="141" y="0" on="0"/>
        <pt x="55" y="84" on="0"/>
        <pt x="55" y="163" on="1"/>
        <pt x="55" y="480" on="1"/>
        <pt x="55" y="559" on="0"/>
        <pt x="141" y="643" on="0"/>
        <pt x="220" y="643" on="1"/>
        <pt x="329" y="643" on="1"/>
        <pt x="407" y="643" on="0"/>
        <pt x="494" y="558" on="0"/>
        <pt x="494" y="480" on="1"/>
        <pt x="494" y="433" on="1"/>
        <pt x="494" y="411" on="0"/>
      </contour>
    </TTGlyph>
    <TTGlyph name="Cdotaccent" xMin="55" yMin="0" xMax="494" yMax="843">
      <contour>
        <pt x="329" y="0" on="1"/>
        <pt x="220" y="0" on="1"/>
        <pt x="141" y="0" on="0"/>
        <pt x="55" y="84" on="0"/>
        <pt x="55" y="163" on="1"/>
        <pt x="55" y="480" on="1"/>
        <pt x="55" y="559" on="0"/>
        <pt x="141" y="643" on="0"/>
        <pt x="220" y="643" on="1"/>
        <pt x="329" y="643" on="1"/>
        <pt x="407" y="643" on="0"/>
        <pt x="494" y="558" on="0"/>
        <pt x="494" y="480" on="1"/>
        <pt x="494" y="433" on="1"/>
        <pt x="494" y="411" on="0"/>
        <pt x="472" y="411" on="1"/>
        <pt x="388" y="411" on="1"/>
        <pt x="367" y="411" on="0"/>
        <pt x="367" y="433" on="1"/>
        <pt x="367" y="474" on="1"/>
        <pt x="367" y="506" on="0"/>
        <pt x="340" y="533" on="0"/>
        <pt x="308" y="533" on="1"/>
        <pt x="240" y="533" on="1"/>
        <pt x="209" y="533" on="0"/>
        <pt x="182" y="506" on="0"/>
        <pt x="182" y="474" on="1"/>
        <pt x="182" y="169" on="1"/>
        <pt x="182" y="137" on="0"/>
        <pt x="209" y="110" on="0"/>
        <pt x="240" y="110" on="1"/>
        <pt x="308" y="110" on="1"/>
        <pt x="340" y="110" on="0"/>
        <pt x="367" y="137" on="0"/>
        <pt x="367" y="169" on="1"/>
        <pt x="367" y="210" on="1"/>
        <pt x="367" y="232" on="0"/>
        <pt x="388" y="232" on="1"/>
        <pt x="472" y="232" on="1"/>
        <pt x="494" y="232" on="0"/>
        <pt x="494" y="210" on="1"/>
        <pt x="494" y="163" on="1"/>
        <pt x="494" y="85" on="0"/>
        <pt x="407" y="0" on="0"/>
      </contour>
      <contour>
        <pt x="211" y="729" on="1"/>
        <pt x="211" y="823" on="1"/>
        <pt x="211" y="843" on="0"/>
        <pt x="231" y="843" on="1"/>
        <pt x="318" y="843" on="1"/>
        <pt x="338" y="843" on="0"/>
        <pt x="338" y="824" on="1"/>
        <pt x="338" y="729" on="1"/>
        <pt x="338" y="708" on="0"/>
        <pt x="318" y="708" on="1"/>
        <pt x="231" y="708" on="1"/>
        <pt x="211" y="708" on="0"/>
      </contour>
    </TTGlyph>
    <TTGlyph name="D" xMin="65" yMin="0" xMax="498" yMax="643">
      <contour>
        <pt x="203" y="110" on="1"/>
        <pt x="312" y="110" on="1"/>
        <pt x="344" y="110" on="0"/>
        <pt x="371" y="137" on="0"/>
        <pt x="371" y="169" on="1"/>
        <pt x="371" y="474" on="1"/>
        <pt x="371" y="506" on="0"/>
        <pt x="344" y="533" on="0"/>
        <pt x="312" y="533" on="1"/>
        <pt x="203" y="533" on="1"/>
        <pt x="192" y="533" on="0"/>
        <pt x="192" y="522" on="1"/>
        <pt x="192" y="121" on="1"/>
        <pt x="192" y="110" on="0"/>
      </contour>
      <contour>
        <pt x="65" y="21" on="1"/>
        <pt x="65" y="622" on="1"/>
        <pt x="65" y="643" on="0"/>
        <pt x="86" y="643" on="1"/>
        <pt x="333" y="643" on="1"/>
        <pt x="411" y="643" on="0"/>
        <pt x="498" y="558" on="0"/>
        <pt x="498" y="480" on="1"/>
        <pt x="498" y="163" on="1"/>
        <pt x="498" y="85" on="0"/>
        <pt x="411" y="0" on="0"/>
        <pt x="333" y="0" on="1"/>
        <pt x="86" y="0" on="1"/>
        <pt x="65" y="0" on="0"/>
      </contour>
    </TTGlyph>
    <TTGlyph name="Dcaron" xMin="65" yMin="0" xMax="498" yMax="836">
      <contour>
        <pt x="243" y="707" on="1"/>
        <pt x="229" y="707" on="0"/>
        <pt x="221" y="718" on="1"/>
        <pt x="158" y="823" on="1"/>
        <pt x="151" y="836" on="0"/>
        <pt x="167" y="836" on="1"/>
        <pt x="225" y="836" on="1"/>
        <pt x="238" y="836" on="0"/>
        <pt x="243" y="824" on="1"/>
        <pt x="275" y="758" on="1"/>
        <pt x="308" y="824" on="1"/>
        <pt x="313" y="836" on="0"/>
        <pt x="326" y="836" on="1"/>
        <pt x="385" y="836" on="1"/>
        <pt x="399" y="836" on="0"/>
        <pt x="392" y="823" on="1"/>
        <pt x="330" y="718" on="1"/>
        <pt x="322" y="707" on="0"/>
        <pt x="308" y="707" on="1"/>
      </contour>
      <contour>
        <pt x="203" y="110" on="1"/>
        <pt x="312" y="110" on="1"/>
        <pt x="344" y="110" on="0"/>
        <pt x="371" y="137" on="0"/>
        <pt x="371" y="169" on="1"/>
        <pt x="371" y="474" on="1"/>
        <pt x="371" y="506" on="0"/>
        <pt x="344" y="533" on="0"/>
        <pt x="312" y="533" on="1"/>
        <pt x="203" y="533" on="1"/>
        <pt x="192" y="533" on="0"/>
        <pt x="192" y="522" on="1"/>
        <pt x="192" y="121" on="1"/>
        <pt x="192" y="110" on="0"/>
      </contour>
      <contour>
        <pt x="65" y="21" on="1"/>
        <pt x="65" y="622" on="1"/>
        <pt x="65" y="643" on="0"/>
        <pt x="86" y="643" on="1"/>
        <pt x="333" y="643" on="1"/>
        <pt x="411" y="643" on="0"/>
        <pt x="498" y="558" on="0"/>
        <pt x="498" y="480" on="1"/>
        <pt x="498" y="163" on="1"/>
        <pt x="498" y="85" on="0"/>
        <pt x="411" y="0" on="0"/>
        <pt x="333" y="0" on="1"/>
        <pt x="86" y="0" on="1"/>
        <pt x="65" y="0" on="0"/>
      </contour>
    </TTGlyph>
    <TTGlyph name="Dcroat" xMin="21" yMin="0" xMax="512" yMax="643">
      <contour>
        <pt x="217" y="110" on="1"/>
        <pt x="326" y="110" on="1"/>
        <pt x="358" y="110" on="0"/>
        <pt x="385" y="137" on="0"/>
        <pt x="385" y="169" on="1"/>
        <pt x="385" y="474" on="1"/>
        <pt x="385" y="506" on="0"/>
        <pt x="358" y="533" on="0"/>
        <pt x="326" y="533" on="1"/>
        <pt x="217" y="533" on="1"/>
        <pt x="206" y="533" on="0"/>
        <pt x="206" y="522" on="1"/>
        <pt x="206" y="414" on="1"/>
        <pt x="206" y="402" on="0"/>
        <pt x="217" y="402" on="1"/>
        <pt x="293" y="402" on="1"/>
        <pt x="314" y="402" on="0"/>
        <pt x="314" y="381" on="1"/>
        <pt x="314" y="329" on="1"/>
        <pt x="314" y="318" on="0"/>
        <pt x="305" y="309" on="0"/>
        <pt x="293" y="309" on="1"/>
        <pt x="217" y="309" on="1"/>
        <pt x="206" y="309" on="0"/>
        <pt x="206" y="298" on="1"/>
        <pt x="206" y="121" on="1"/>
        <pt x="206" y="110" on="0"/>
      </contour>
      <contour>
        <pt x="347" y="0" on="1"/>
        <pt x="100" y="0" on="1"/>
        <pt x="79" y="0" on="0"/>
        <pt x="79" y="21" on="1"/>
        <pt x="79" y="298" on="1"/>
        <pt x="79" y="309" on="0"/>
        <pt x="68" y="309" on="1"/>
        <pt x="42" y="309" on="1"/>
        <pt x="30" y="309" on="0"/>
        <pt x="21" y="318" on="0"/>
        <pt x="21" y="329" on="1"/>
        <pt x="21" y="381" on="1"/>
        <pt x="21" y="402" on="0"/>
        <pt x="42" y="402" on="1"/>
        <pt x="68" y="402" on="1"/>
        <pt x="79" y="402" on="0"/>
        <pt x="79" y="414" on="1"/>
        <pt x="79" y="622" on="1"/>
        <pt x="79" y="643" on="0"/>
        <pt x="100" y="643" on="1"/>
        <pt x="347" y="643" on="1"/>
        <pt x="426" y="643" on="0"/>
        <pt x="512" y="559" on="0"/>
        <pt x="512" y="480" on="1"/>
        <pt x="512" y="163" on="1"/>
        <pt x="512" y="84" on="0"/>
        <pt x="426" y="0" on="0"/>
      </contour>
    </TTGlyph>
    <TTGlyph name="E" xMin="65" yMin="0" xMax="433" yMax="643">
      <contour>
        <pt x="413" y="0" on="1"/>
        <pt x="86" y="0" on="1"/>
        <pt x="65" y="0" on="0"/>
        <pt x="65" y="21" on="1"/>
        <pt x="65" y="622" on="1"/>
        <pt x="65" y="643" on="0"/>
        <pt x="86" y="643" on="1"/>
        <pt x="413" y="643" on="1"/>
        <pt x="433" y="643" on="0"/>
        <pt x="433" y="622" on="1"/>
        <pt x="433" y="554" on="1"/>
        <pt x="433" y="533" on="0"/>
        <pt x="413" y="533" on="1"/>
        <pt x="204" y="533" on="1"/>
        <pt x="192" y="533" on="0"/>
        <pt x="192" y="522" on="1"/>
        <pt x="192" y="392" on="1"/>
        <pt x="192" y="381" on="0"/>
        <pt x="204" y="381" on="1"/>
        <pt x="375" y="381" on="1"/>
        <pt x="396" y="381" on="0"/>
        <pt x="396" y="360" on="1"/>
        <pt x="396" y="292" on="1"/>
        <pt x="396" y="271" on="0"/>
        <pt x="375" y="271" on="1"/>
        <pt x="204" y="271" on="1"/>
        <pt x="192" y="271" on="0"/>
        <pt x="192" y="260" on="1"/>
        <pt x="192" y="121" on="1"/>
        <pt x="192" y="110" on="0"/>
        <pt x="204" y="110" on="1"/>
        <pt x="413" y="110" on="1"/>
        <pt x="433" y="110" on="0"/>
        <pt x="433" y="89" on="1"/>
        <pt x="433" y="21" on="1"/>
        <pt x="433" y="0" on="0"/>
      </contour>
    </TTGlyph>
    <TTGlyph name="Eacute" xMin="65" yMin="0" xMax="433" yMax="836">
      <contour>
        <pt x="268" y="836" on="1"/>
        <pt x="367" y="836" on="1"/>
        <pt x="378" y="836" on="0"/>
        <pt x="384" y="824" on="0"/>
        <pt x="377" y="816" on="1"/>
        <pt x="296" y="720" on="1"/>
        <pt x="285" y="707" on="0"/>
        <pt x="269" y="707" on="1"/>
        <pt x="204" y="707" on="1"/>
        <pt x="184" y="707" on="0"/>
        <pt x="194" y="728" on="1"/>
        <pt x="238" y="817" on="1"/>
        <pt x="249" y="836" on="0"/>
      </contour>
      <contour>
        <pt x="413" y="0" on="1"/>
        <pt x="86" y="0" on="1"/>
        <pt x="65" y="0" on="0"/>
        <pt x="65" y="21" on="1"/>
        <pt x="65" y="622" on="1"/>
        <pt x="65" y="643" on="0"/>
        <pt x="86" y="643" on="1"/>
        <pt x="413" y="643" on="1"/>
        <pt x="433" y="643" on="0"/>
        <pt x="433" y="622" on="1"/>
        <pt x="433" y="554" on="1"/>
        <pt x="433" y="533" on="0"/>
        <pt x="413" y="533" on="1"/>
        <pt x="204" y="533" on="1"/>
        <pt x="192" y="533" on="0"/>
        <pt x="192" y="522" on="1"/>
        <pt x="192" y="392" on="1"/>
        <pt x="192" y="381" on="0"/>
        <pt x="204" y="381" on="1"/>
        <pt x="375" y="381" on="1"/>
        <pt x="396" y="381" on="0"/>
        <pt x="396" y="360" on="1"/>
        <pt x="396" y="292" on="1"/>
        <pt x="396" y="271" on="0"/>
        <pt x="375" y="271" on="1"/>
        <pt x="204" y="271" on="1"/>
        <pt x="192" y="271" on="0"/>
        <pt x="192" y="260" on="1"/>
        <pt x="192" y="121" on="1"/>
        <pt x="192" y="110" on="0"/>
        <pt x="204" y="110" on="1"/>
        <pt x="413" y="110" on="1"/>
        <pt x="433" y="110" on="0"/>
        <pt x="433" y="89" on="1"/>
        <pt x="433" y="21" on="1"/>
        <pt x="433" y="0" on="0"/>
      </contour>
    </TTGlyph>
    <TTGlyph name="Ebreve" xMin="65" yMin="0" xMax="433" yMax="836">
      <contour>
        <pt x="133" y="823" on="1"/>
        <pt x="133" y="836" on="0"/>
        <pt x="147" y="836" on="1"/>
        <pt x="197" y="836" on="1"/>
        <pt x="211" y="836" on="0"/>
        <pt x="211" y="823" on="1"/>
        <pt x="211" y="814" on="1"/>
        <pt x="211" y="790" on="0"/>
        <pt x="227" y="771" on="0"/>
        <pt x="245" y="771" on="1"/>
        <pt x="252" y="771" on="1"/>
        <pt x="287" y="771" on="0"/>
        <pt x="287" y="814" on="1"/>
        <pt x="287" y="823" on="1"/>
        <pt x="287" y="836" on="0"/>
        <pt x="301" y="836" on="1"/>
        <pt x="350" y="836" on="1"/>
        <pt x="364" y="836" on="0"/>
        <pt x="364" y="823" on="1"/>
        <pt x="364" y="812" on="1"/>
        <pt x="364" y="761" on="0"/>
        <pt x="312" y="707" on="0"/>
        <pt x="266" y="707" on="1"/>
        <pt x="231" y="707" on="1"/>
        <pt x="185" y="707" on="0"/>
        <pt x="133" y="761" on="0"/>
        <pt x="133" y="812" on="1"/>
      </contour>
      <contour>
        <pt x="413" y="0" on="1"/>
        <pt x="86" y="0" on="1"/>
        <pt x="65" y="0" on="0"/>
        <pt x="65" y="21" on="1"/>
        <pt x="65" y="622" on="1"/>
        <pt x="65" y="643" on="0"/>
        <pt x="86" y="643" on="1"/>
        <pt x="413" y="643" on="1"/>
        <pt x="433" y="643" on="0"/>
        <pt x="433" y="622" on="1"/>
        <pt x="433" y="554" on="1"/>
        <pt x="433" y="533" on="0"/>
        <pt x="413" y="533" on="1"/>
        <pt x="204" y="533" on="1"/>
        <pt x="192" y="533" on="0"/>
        <pt x="192" y="522" on="1"/>
        <pt x="192" y="392" on="1"/>
        <pt x="192" y="381" on="0"/>
        <pt x="204" y="381" on="1"/>
        <pt x="375" y="381" on="1"/>
        <pt x="396" y="381" on="0"/>
        <pt x="396" y="360" on="1"/>
        <pt x="396" y="292" on="1"/>
        <pt x="396" y="271" on="0"/>
        <pt x="375" y="271" on="1"/>
        <pt x="204" y="271" on="1"/>
        <pt x="192" y="271" on="0"/>
        <pt x="192" y="260" on="1"/>
        <pt x="192" y="121" on="1"/>
        <pt x="192" y="110" on="0"/>
        <pt x="204" y="110" on="1"/>
        <pt x="413" y="110" on="1"/>
        <pt x="433" y="110" on="0"/>
        <pt x="433" y="89" on="1"/>
        <pt x="433" y="21" on="1"/>
        <pt x="433" y="0" on="0"/>
      </contour>
    </TTGlyph>
    <TTGlyph name="Ecaron" xMin="65" yMin="0" xMax="433" yMax="836">
      <contour>
        <pt x="223" y="707" on="1"/>
        <pt x="209" y="707" on="0"/>
        <pt x="201" y="718" on="1"/>
        <pt x="139" y="823" on="1"/>
        <pt x="132" y="836" on="0"/>
        <pt x="147" y="836" on="1"/>
        <pt x="205" y="836" on="1"/>
        <pt x="218" y="836" on="0"/>
        <pt x="223" y="824" on="1"/>
        <pt x="256" y="758" on="1"/>
        <pt x="288" y="824" on="1"/>
        <pt x="293" y="836" on="0"/>
        <pt x="306" y="836" on="1"/>
        <pt x="365" y="836" on="1"/>
        <pt x="380" y="836" on="0"/>
        <pt x="373" y="823" on="1"/>
        <pt x="310" y="718" on="1"/>
        <pt x="302" y="707" on="0"/>
        <pt x="288" y="707" on="1"/>
      </contour>
      <contour>
        <pt x="413" y="0" on="1"/>
        <pt x="86" y="0" on="1"/>
        <pt x="65" y="0" on="0"/>
        <pt x="65" y="21" on="1"/>
        <pt x="65" y="622" on="1"/>
        <pt x="65" y="643" on="0"/>
        <pt x="86" y="643" on="1"/>
        <pt x="413" y="643" on="1"/>
        <pt x="433" y="643" on="0"/>
        <pt x="433" y="622" on="1"/>
        <pt x="433" y="554" on="1"/>
        <pt x="433" y="533" on="0"/>
        <pt x="413" y="533" on="1"/>
        <pt x="204" y="533" on="1"/>
        <pt x="192" y="533" on="0"/>
        <pt x="192" y="522" on="1"/>
        <pt x="192" y="392" on="1"/>
        <pt x="192" y="381" on="0"/>
        <pt x="204" y="381" on="1"/>
        <pt x="375" y="381" on="1"/>
        <pt x="396" y="381" on="0"/>
        <pt x="396" y="360" on="1"/>
        <pt x="396" y="292" on="1"/>
        <pt x="396" y="271" on="0"/>
        <pt x="375" y="271" on="1"/>
        <pt x="204" y="271" on="1"/>
        <pt x="192" y="271" on="0"/>
        <pt x="192" y="260" on="1"/>
        <pt x="192" y="121" on="1"/>
        <pt x="192" y="110" on="0"/>
        <pt x="204" y="110" on="1"/>
        <pt x="413" y="110" on="1"/>
        <pt x="433" y="110" on="0"/>
        <pt x="433" y="89" on="1"/>
        <pt x="433" y="21" on="1"/>
        <pt x="433" y="0" on="0"/>
      </contour>
    </TTGlyph>
    <TTGlyph name="Ecircumflex" xMin="65" yMin="0" xMax="433" yMax="836">
      <contour>
        <pt x="358" y="707" on="1"/>
        <pt x="298" y="707" on="1"/>
        <pt x="285" y="707" on="0"/>
        <pt x="281" y="719" on="1"/>
        <pt x="248" y="785" on="1"/>
        <pt x="216" y="719" on="1"/>
        <pt x="211" y="707" on="0"/>
        <pt x="198" y="707" on="1"/>
        <pt x="139" y="707" on="1"/>
        <pt x="124" y="707" on="0"/>
        <pt x="131" y="720" on="1"/>
        <pt x="194" y="825" on="1"/>
        <pt x="202" y="836" on="0"/>
        <pt x="216" y="836" on="1"/>
        <pt x="281" y="836" on="1"/>
        <pt x="295" y="836" on="0"/>
        <pt x="303" y="825" on="1"/>
        <pt x="365" y="720" on="1"/>
        <pt x="372" y="707" on="0"/>
      </contour>
      <contour>
        <pt x="413" y="0" on="1"/>
        <pt x="86" y="0" on="1"/>
        <pt x="65" y="0" on="0"/>
        <pt x="65" y="21" on="1"/>
        <pt x="65" y="622" on="1"/>
        <pt x="65" y="643" on="0"/>
        <pt x="86" y="643" on="1"/>
        <pt x="413" y="643" on="1"/>
        <pt x="433" y="643" on="0"/>
        <pt x="433" y="622" on="1"/>
        <pt x="433" y="554" on="1"/>
        <pt x="433" y="533" on="0"/>
        <pt x="413" y="533" on="1"/>
        <pt x="204" y="533" on="1"/>
        <pt x="192" y="533" on="0"/>
        <pt x="192" y="522" on="1"/>
        <pt x="192" y="392" on="1"/>
        <pt x="192" y="381" on="0"/>
        <pt x="204" y="381" on="1"/>
        <pt x="375" y="381" on="1"/>
        <pt x="396" y="381" on="0"/>
        <pt x="396" y="360" on="1"/>
        <pt x="396" y="292" on="1"/>
        <pt x="396" y="271" on="0"/>
        <pt x="375" y="271" on="1"/>
        <pt x="204" y="271" on="1"/>
        <pt x="192" y="271" on="0"/>
        <pt x="192" y="260" on="1"/>
        <pt x="192" y="121" on="1"/>
        <pt x="192" y="110" on="0"/>
        <pt x="204" y="110" on="1"/>
        <pt x="413" y="110" on="1"/>
        <pt x="433" y="110" on="0"/>
        <pt x="433" y="89" on="1"/>
        <pt x="433" y="21" on="1"/>
        <pt x="433" y="0" on="0"/>
      </contour>
    </TTGlyph>
    <TTGlyph name="Edieresis" xMin="65" yMin="0" xMax="433" yMax="836">
      <contour>
        <pt x="95" y="728" on="1"/>
        <pt x="95" y="816" on="1"/>
        <pt x="95" y="836" on="0"/>
        <pt x="114" y="836" on="1"/>
        <pt x="194" y="836" on="1"/>
        <pt x="214" y="836" on="0"/>
        <pt x="214" y="817" on="1"/>
        <pt x="214" y="728" on="1"/>
        <pt x="214" y="707" on="0"/>
        <pt x="194" y="707" on="1"/>
        <pt x="114" y="707" on="1"/>
        <pt x="95" y="707" on="0"/>
      </contour>
      <contour>
        <pt x="285" y="728" on="1"/>
        <pt x="285" y="816" on="1"/>
        <pt x="285" y="836" on="0"/>
        <pt x="304" y="836" on="1"/>
        <pt x="384" y="836" on="1"/>
        <pt x="404" y="836" on="0"/>
        <pt x="404" y="817" on="1"/>
        <pt x="404" y="728" on="1"/>
        <pt x="404" y="707" on="0"/>
        <pt x="384" y="707" on="1"/>
        <pt x="304" y="707" on="1"/>
        <pt x="285" y="707" on="0"/>
      </contour>
      <contour>
        <pt x="413" y="0" on="1"/>
        <pt x="86" y="0" on="1"/>
        <pt x="65" y="0" on="0"/>
        <pt x="65" y="21" on="1"/>
        <pt x="65" y="622" on="1"/>
        <pt x="65" y="643" on="0"/>
        <pt x="86" y="643" on="1"/>
        <pt x="413" y="643" on="1"/>
        <pt x="433" y="643" on="0"/>
        <pt x="433" y="622" on="1"/>
        <pt x="433" y="554" on="1"/>
        <pt x="433" y="533" on="0"/>
        <pt x="413" y="533" on="1"/>
        <pt x="204" y="533" on="1"/>
        <pt x="192" y="533" on="0"/>
        <pt x="192" y="522" on="1"/>
        <pt x="192" y="392" on="1"/>
        <pt x="192" y="381" on="0"/>
        <pt x="204" y="381" on="1"/>
        <pt x="375" y="381" on="1"/>
        <pt x="396" y="381" on="0"/>
        <pt x="396" y="360" on="1"/>
        <pt x="396" y="292" on="1"/>
        <pt x="396" y="271" on="0"/>
        <pt x="375" y="271" on="1"/>
        <pt x="204" y="271" on="1"/>
        <pt x="192" y="271" on="0"/>
        <pt x="192" y="260" on="1"/>
        <pt x="192" y="121" on="1"/>
        <pt x="192" y="110" on="0"/>
        <pt x="204" y="110" on="1"/>
        <pt x="413" y="110" on="1"/>
        <pt x="433" y="110" on="0"/>
        <pt x="433" y="89" on="1"/>
        <pt x="433" y="21" on="1"/>
        <pt x="433" y="0" on="0"/>
      </contour>
    </TTGlyph>
    <TTGlyph name="Edotaccent" xMin="65" yMin="0" xMax="433" yMax="843">
      <contour>
        <pt x="186" y="729" on="1"/>
        <pt x="186" y="823" on="1"/>
        <pt x="186" y="843" on="0"/>
        <pt x="206" y="843" on="1"/>
        <pt x="294" y="843" on="1"/>
        <pt x="313" y="843" on="0"/>
        <pt x="313" y="824" on="1"/>
        <pt x="313" y="729" on="1"/>
        <pt x="313" y="708" on="0"/>
        <pt x="294" y="708" on="1"/>
        <pt x="206" y="708" on="1"/>
        <pt x="186" y="708" on="0"/>
      </contour>
      <contour>
        <pt x="413" y="0" on="1"/>
        <pt x="86" y="0" on="1"/>
        <pt x="65" y="0" on="0"/>
        <pt x="65" y="21" on="1"/>
        <pt x="65" y="622" on="1"/>
        <pt x="65" y="643" on="0"/>
        <pt x="86" y="643" on="1"/>
        <pt x="413" y="643" on="1"/>
        <pt x="433" y="643" on="0"/>
        <pt x="433" y="622" on="1"/>
        <pt x="433" y="554" on="1"/>
        <pt x="433" y="533" on="0"/>
        <pt x="413" y="533" on="1"/>
        <pt x="204" y="533" on="1"/>
        <pt x="192" y="533" on="0"/>
        <pt x="192" y="522" on="1"/>
        <pt x="192" y="392" on="1"/>
        <pt x="192" y="381" on="0"/>
        <pt x="204" y="381" on="1"/>
        <pt x="375" y="381" on="1"/>
        <pt x="396" y="381" on="0"/>
        <pt x="396" y="360" on="1"/>
        <pt x="396" y="292" on="1"/>
        <pt x="396" y="271" on="0"/>
        <pt x="375" y="271" on="1"/>
        <pt x="204" y="271" on="1"/>
        <pt x="192" y="271" on="0"/>
        <pt x="192" y="260" on="1"/>
        <pt x="192" y="121" on="1"/>
        <pt x="192" y="110" on="0"/>
        <pt x="204" y="110" on="1"/>
        <pt x="413" y="110" on="1"/>
        <pt x="433" y="110" on="0"/>
        <pt x="433" y="89" on="1"/>
        <pt x="433" y="21" on="1"/>
        <pt x="433" y="0" on="0"/>
      </contour>
    </TTGlyph>
    <TTGlyph name="Egrave" xMin="65" yMin="0" xMax="433" yMax="836">
      <contour>
        <pt x="280" y="707" on="1"/>
        <pt x="214" y="707" on="1"/>
        <pt x="198" y="707" on="0"/>
        <pt x="188" y="720" on="1"/>
        <pt x="107" y="816" on="1"/>
        <pt x="100" y="824" on="0"/>
        <pt x="106" y="836" on="0"/>
        <pt x="117" y="836" on="1"/>
        <pt x="215" y="836" on="1"/>
        <pt x="236" y="836" on="0"/>
        <pt x="245" y="817" on="1"/>
        <pt x="290" y="728" on="1"/>
        <pt x="300" y="707" on="0"/>
      </contour>
      <contour>
        <pt x="413" y="0" on="1"/>
        <pt x="86" y="0" on="1"/>
        <pt x="65" y="0" on="0"/>
        <pt x="65" y="21" on="1"/>
        <pt x="65" y="622" on="1"/>
        <pt x="65" y="643" on="0"/>
        <pt x="86" y="643" on="1"/>
        <pt x="413" y="643" on="1"/>
        <pt x="433" y="643" on="0"/>
        <pt x="433" y="622" on="1"/>
        <pt x="433" y="554" on="1"/>
        <pt x="433" y="533" on="0"/>
        <pt x="413" y="533" on="1"/>
        <pt x="204" y="533" on="1"/>
        <pt x="192" y="533" on="0"/>
        <pt x="192" y="522" on="1"/>
        <pt x="192" y="392" on="1"/>
        <pt x="192" y="381" on="0"/>
        <pt x="204" y="381" on="1"/>
        <pt x="375" y="381" on="1"/>
        <pt x="396" y="381" on="0"/>
        <pt x="396" y="360" on="1"/>
        <pt x="396" y="292" on="1"/>
        <pt x="396" y="271" on="0"/>
        <pt x="375" y="271" on="1"/>
        <pt x="204" y="271" on="1"/>
        <pt x="192" y="271" on="0"/>
        <pt x="192" y="260" on="1"/>
        <pt x="192" y="121" on="1"/>
        <pt x="192" y="110" on="0"/>
        <pt x="204" y="110" on="1"/>
        <pt x="413" y="110" on="1"/>
        <pt x="433" y="110" on="0"/>
        <pt x="433" y="89" on="1"/>
        <pt x="433" y="21" on="1"/>
        <pt x="433" y="0" on="0"/>
      </contour>
    </TTGlyph>
    <TTGlyph name="Emacron" xMin="65" yMin="0" xMax="433" yMax="819">
      <contour>
        <pt x="348" y="732" on="1"/>
        <pt x="150" y="732" on="1"/>
        <pt x="130" y="732" on="0"/>
        <pt x="130" y="753" on="1"/>
        <pt x="130" y="798" on="1"/>
        <pt x="130" y="819" on="0"/>
        <pt x="150" y="819" on="1"/>
        <pt x="348" y="819" on="1"/>
        <pt x="368" y="819" on="0"/>
        <pt x="368" y="798" on="1"/>
        <pt x="368" y="753" on="1"/>
        <pt x="368" y="732" on="0"/>
      </contour>
      <contour>
        <pt x="413" y="0" on="1"/>
        <pt x="86" y="0" on="1"/>
        <pt x="65" y="0" on="0"/>
        <pt x="65" y="21" on="1"/>
        <pt x="65" y="622" on="1"/>
        <pt x="65" y="643" on="0"/>
        <pt x="86" y="643" on="1"/>
        <pt x="413" y="643" on="1"/>
        <pt x="433" y="643" on="0"/>
        <pt x="433" y="622" on="1"/>
        <pt x="433" y="554" on="1"/>
        <pt x="433" y="533" on="0"/>
        <pt x="413" y="533" on="1"/>
        <pt x="204" y="533" on="1"/>
        <pt x="192" y="533" on="0"/>
        <pt x="192" y="522" on="1"/>
        <pt x="192" y="392" on="1"/>
        <pt x="192" y="381" on="0"/>
        <pt x="204" y="381" on="1"/>
        <pt x="375" y="381" on="1"/>
        <pt x="396" y="381" on="0"/>
        <pt x="396" y="360" on="1"/>
        <pt x="396" y="292" on="1"/>
        <pt x="396" y="271" on="0"/>
        <pt x="375" y="271" on="1"/>
        <pt x="204" y="271" on="1"/>
        <pt x="192" y="271" on="0"/>
        <pt x="192" y="260" on="1"/>
        <pt x="192" y="121" on="1"/>
        <pt x="192" y="110" on="0"/>
        <pt x="204" y="110" on="1"/>
        <pt x="413" y="110" on="1"/>
        <pt x="433" y="110" on="0"/>
        <pt x="433" y="89" on="1"/>
        <pt x="433" y="21" on="1"/>
        <pt x="433" y="0" on="0"/>
      </contour>
    </TTGlyph>
    <TTGlyph name="Eng" xMin="73" yMin="-172" xMax="528" yMax="643">
      <contour>
        <pt x="400" y="20" on="1"/>
        <pt x="204" y="392" on="1"/>
        <pt x="200" y="392" on="1"/>
        <pt x="200" y="21" on="1"/>
        <pt x="200" y="0" on="0"/>
        <pt x="179" y="0" on="1"/>
        <pt x="94" y="0" on="1"/>
        <pt x="73" y="0" on="0"/>
        <pt x="73" y="21" on="1"/>
        <pt x="73" y="622" on="1"/>
        <pt x="73" y="643" on="0"/>
        <pt x="94" y="643" on="1"/>
        <pt x="171" y="643" on="1"/>
        <pt x="191" y="643" on="0"/>
        <pt x="198" y="629" on="1"/>
        <pt x="397" y="250" on="1"/>
        <pt x="401" y="250" on="1"/>
        <pt x="401" y="622" on="1"/>
        <pt x="401" y="643" on="0"/>
        <pt x="422" y="643" on="1"/>
        <pt x="507" y="643" on="1"/>
        <pt x="528" y="643" on="0"/>
        <pt x="528" y="622" on="1"/>
        <pt x="528" y="-8" on="1"/>
        <pt x="528" y="-86" on="0"/>
        <pt x="440" y="-172" on="0"/>
        <pt x="362" y="-172" on="1"/>
        <pt x="295" y="-172" on="1"/>
        <pt x="275" y="-172" on="0"/>
        <pt x="275" y="-151" on="1"/>
        <pt x="275" y="-83" on="1"/>
        <pt x="275" y="-62" on="0"/>
        <pt x="295" y="-62" on="1"/>
        <pt x="323" y="-62" on="1"/>
        <pt x="368" y="-62" on="0"/>
        <pt x="400" y="-30" on="0"/>
        <pt x="400" y="15" on="1"/>
      </contour>
    </TTGlyph>
    <TTGlyph name="Eogonek" xMin="65" yMin="-123" xMax="433" yMax="643">
      <contour>
        <pt x="413" y="533" on="1"/>
        <pt x="204" y="533" on="1"/>
        <pt x="192" y="533" on="0"/>
        <pt x="192" y="522" on="1"/>
        <pt x="192" y="392" on="1"/>
        <pt x="192" y="381" on="0"/>
        <pt x="204" y="381" on="1"/>
        <pt x="375" y="381" on="1"/>
        <pt x="396" y="381" on="0"/>
        <pt x="396" y="360" on="1"/>
        <pt x="396" y="292" on="1"/>
        <pt x="396" y="271" on="0"/>
        <pt x="375" y="271" on="1"/>
        <pt x="204" y="271" on="1"/>
        <pt x="192" y="271" on="0"/>
        <pt x="192" y="260" on="1"/>
        <pt x="192" y="121" on="1"/>
        <pt x="192" y="110" on="0"/>
        <pt x="204" y="110" on="1"/>
        <pt x="413" y="110" on="1"/>
        <pt x="433" y="110" on="0"/>
        <pt x="433" y="89" on="1"/>
        <pt x="433" y="21" on="1"/>
        <pt x="433" y="0" on="0"/>
        <pt x="413" y="0" on="1"/>
        <pt x="373" y="0" on="1"/>
        <pt x="335" y="-57" on="1"/>
        <pt x="377" y="-57" on="1"/>
        <pt x="389" y="-57" on="0"/>
        <pt x="398" y="-65" on="0"/>
        <pt x="398" y="-77" on="1"/>
        <pt x="398" y="-98" on="0"/>
        <pt x="332" y="-123" on="0"/>
        <pt x="273" y="-123" on="0"/>
        <pt x="257" y="-88" on="0"/>
        <pt x="271" y="-68" on="1"/>
        <pt x="313" y="0" on="1"/>
        <pt x="86" y="0" on="1"/>
        <pt x="65" y="0" on="0"/>
        <pt x="65" y="21" on="1"/>
        <pt x="65" y="622" on="1"/>
        <pt x="65" y="643" on="0"/>
        <pt x="86" y="643" on="1"/>
        <pt x="413" y="643" on="1"/>
        <pt x="433" y="643" on="0"/>
        <pt x="433" y="622" on="1"/>
        <pt x="433" y="554" on="1"/>
        <pt x="433" y="533" on="0"/>
      </contour>
    </TTGlyph>
    <TTGlyph name="Eth" xMin="21" yMin="0" xMax="512" yMax="643">
      <contour>
        <pt x="217" y="110" on="1"/>
        <pt x="326" y="110" on="1"/>
        <pt x="358" y="110" on="0"/>
        <pt x="385" y="137" on="0"/>
        <pt x="385" y="169" on="1"/>
        <pt x="385" y="474" on="1"/>
        <pt x="385" y="506" on="0"/>
        <pt x="358" y="533" on="0"/>
        <pt x="326" y="533" on="1"/>
        <pt x="217" y="533" on="1"/>
        <pt x="206" y="533" on="0"/>
        <pt x="206" y="522" on="1"/>
        <pt x="206" y="380" on="1"/>
        <pt x="206" y="369" on="0"/>
        <pt x="217" y="369" on="1"/>
        <pt x="293" y="369" on="1"/>
        <pt x="314" y="369" on="0"/>
        <pt x="314" y="348" on="1"/>
        <pt x="314" y="296" on="1"/>
        <pt x="314" y="275" on="0"/>
        <pt x="293" y="275" on="1"/>
        <pt x="217" y="275" on="1"/>
        <pt x="206" y="275" on="0"/>
        <pt x="206" y="264" on="1"/>
        <pt x="206" y="121" on="1"/>
        <pt x="206" y="110" on="0"/>
      </contour>
      <contour>
        <pt x="347" y="0" on="1"/>
        <pt x="100" y="0" on="1"/>
        <pt x="79" y="0" on="0"/>
        <pt x="79" y="21" on="1"/>
        <pt x="79" y="264" on="1"/>
        <pt x="79" y="275" on="0"/>
        <pt x="68" y="275" on="1"/>
        <pt x="42" y="275" on="1"/>
        <pt x="30" y="275" on="0"/>
        <pt x="21" y="284" on="0"/>
        <pt x="21" y="296" on="1"/>
        <pt x="21" y="348" on="1"/>
        <pt x="21" y="369" on="0"/>
        <pt x="42" y="369" on="1"/>
        <pt x="68" y="369" on="1"/>
        <pt x="79" y="369" on="0"/>
        <pt x="79" y="380" on="1"/>
        <pt x="79" y="622" on="1"/>
        <pt x="79" y="643" on="0"/>
        <pt x="100" y="643" on="1"/>
        <pt x="347" y="643" on="1"/>
        <pt x="426" y="643" on="0"/>
        <pt x="512" y="559" on="0"/>
        <pt x="512" y="480" on="1"/>
        <pt x="512" y="163" on="1"/>
        <pt x="512" y="84" on="0"/>
        <pt x="426" y="0" on="0"/>
      </contour>
    </TTGlyph>
    <TTGlyph name="Euro" xMin="23" yMin="0" xMax="485" yMax="643">
      <contour>
        <pt x="320" y="0" on="1"/>
        <pt x="255" y="0" on="1"/>
        <pt x="176" y="0" on="0"/>
        <pt x="90" y="84" on="0"/>
        <pt x="90" y="162" on="1"/>
        <pt x="90" y="210" on="1"/>
        <pt x="46" y="210" on="1"/>
        <pt x="23" y="210" on="0"/>
        <pt x="23" y="234" on="1"/>
        <pt x="23" y="272" on="1"/>
        <pt x="23" y="285" on="0"/>
        <pt x="33" y="296" on="0"/>
        <pt x="46" y="296" on="1"/>
        <pt x="90" y="296" on="1"/>
        <pt x="90" y="340" on="1"/>
        <pt x="46" y="340" on="1"/>
        <pt x="23" y="340" on="0"/>
        <pt x="23" y="363" on="1"/>
        <pt x="23" y="401" on="1"/>
        <pt x="23" y="414" on="0"/>
        <pt x="33" y="425" on="0"/>
        <pt x="46" y="425" on="1"/>
        <pt x="90" y="425" on="1"/>
        <pt x="90" y="481" on="1"/>
        <pt x="90" y="559" on="0"/>
        <pt x="176" y="643" on="0"/>
        <pt x="255" y="643" on="1"/>
        <pt x="320" y="643" on="1"/>
        <pt x="399" y="643" on="0"/>
        <pt x="485" y="559" on="0"/>
        <pt x="485" y="481" on="1"/>
        <pt x="485" y="461" on="1"/>
        <pt x="485" y="440" on="0"/>
        <pt x="464" y="440" on="1"/>
        <pt x="379" y="440" on="1"/>
        <pt x="358" y="440" on="0"/>
        <pt x="358" y="461" on="1"/>
        <pt x="358" y="479" on="1"/>
        <pt x="358" y="511" on="0"/>
        <pt x="331" y="537" on="0"/>
        <pt x="299" y="537" on="1"/>
        <pt x="276" y="537" on="1"/>
        <pt x="243" y="537" on="0"/>
        <pt x="214" y="510" on="0"/>
        <pt x="214" y="479" on="1"/>
        <pt x="214" y="425" on="1"/>
        <pt x="306" y="425" on="1"/>
        <pt x="319" y="425" on="0"/>
        <pt x="329" y="414" on="0"/>
        <pt x="329" y="401" on="1"/>
        <pt x="329" y="363" on="1"/>
        <pt x="329" y="340" on="0"/>
        <pt x="306" y="340" on="1"/>
        <pt x="214" y="340" on="1"/>
        <pt x="214" y="296" on="1"/>
        <pt x="306" y="296" on="1"/>
        <pt x="319" y="296" on="0"/>
        <pt x="329" y="285" on="0"/>
        <pt x="329" y="272" on="1"/>
        <pt x="329" y="234" on="1"/>
        <pt x="329" y="210" on="0"/>
        <pt x="306" y="210" on="1"/>
        <pt x="214" y="210" on="1"/>
        <pt x="214" y="164" on="1"/>
        <pt x="214" y="133" on="0"/>
        <pt x="243" y="106" on="0"/>
        <pt x="276" y="106" on="1"/>
        <pt x="299" y="106" on="1"/>
        <pt x="331" y="106" on="0"/>
        <pt x="358" y="132" on="0"/>
        <pt x="358" y="164" on="1"/>
        <pt x="358" y="182" on="1"/>
        <pt x="358" y="203" on="0"/>
        <pt x="379" y="203" on="1"/>
        <pt x="464" y="203" on="1"/>
        <pt x="485" y="203" on="0"/>
        <pt x="485" y="182" on="1"/>
        <pt x="485" y="162" on="1"/>
        <pt x="485" y="84" on="0"/>
        <pt x="399" y="0" on="0"/>
      </contour>
    </TTGlyph>
    <TTGlyph name="F" xMin="65" yMin="0" xMax="425" yMax="643">
      <contour>
        <pt x="171" y="0" on="1"/>
        <pt x="86" y="0" on="1"/>
        <pt x="65" y="0" on="0"/>
        <pt x="65" y="21" on="1"/>
        <pt x="65" y="622" on="1"/>
        <pt x="65" y="643" on="0"/>
        <pt x="86" y="643" on="1"/>
        <pt x="405" y="643" on="1"/>
        <pt x="425" y="643" on="0"/>
        <pt x="425" y="622" on="1"/>
        <pt x="425" y="554" on="1"/>
        <pt x="425" y="533" on="0"/>
        <pt x="405" y="533" on="1"/>
        <pt x="204" y="533" on="1"/>
        <pt x="192" y="533" on="0"/>
        <pt x="192" y="522" on="1"/>
        <pt x="192" y="367" on="1"/>
        <pt x="192" y="355" on="0"/>
        <pt x="204" y="355" on="1"/>
        <pt x="375" y="355" on="1"/>
        <pt x="396" y="355" on="0"/>
        <pt x="396" y="334" on="1"/>
        <pt x="396" y="267" on="1"/>
        <pt x="396" y="245" on="0"/>
        <pt x="375" y="245" on="1"/>
        <pt x="204" y="245" on="1"/>
        <pt x="192" y="245" on="0"/>
        <pt x="192" y="234" on="1"/>
        <pt x="192" y="21" on="1"/>
        <pt x="192" y="0" on="0"/>
      </contour>
    </TTGlyph>
    <TTGlyph name="G" xMin="55" yMin="0" xMax="490" yMax="643">
      <contour>
        <pt x="326" y="0" on="1"/>
        <pt x="220" y="0" on="1"/>
        <pt x="141" y="0" on="0"/>
        <pt x="55" y="84" on="0"/>
        <pt x="55" y="163" on="1"/>
        <pt x="55" y="480" on="1"/>
        <pt x="55" y="559" on="0"/>
        <pt x="141" y="643" on="0"/>
        <pt x="220" y="643" on="1"/>
        <pt x="326" y="643" on="1"/>
        <pt x="404" y="643" on="0"/>
        <pt x="490" y="558" on="0"/>
        <pt x="490" y="480" on="1"/>
        <pt x="490" y="450" on="1"/>
        <pt x="490" y="428" on="0"/>
        <pt x="469" y="428" on="1"/>
        <pt x="384" y="428" on="1"/>
        <pt x="363" y="428" on="0"/>
        <pt x="363" y="450" on="1"/>
        <pt x="363" y="474" on="1"/>
        <pt x="363" y="506" on="0"/>
        <pt x="337" y="533" on="0"/>
        <pt x="305" y="533" on="1"/>
        <pt x="240" y="533" on="1"/>
        <pt x="209" y="533" on="0"/>
        <pt x="182" y="506" on="0"/>
        <pt x="182" y="474" on="1"/>
        <pt x="182" y="169" on="1"/>
        <pt x="182" y="137" on="0"/>
        <pt x="209" y="110" on="0"/>
        <pt x="240" y="110" on="1"/>
        <pt x="305" y="110" on="1"/>
        <pt x="337" y="110" on="0"/>
        <pt x="363" y="137" on="0"/>
        <pt x="363" y="169" on="1"/>
        <pt x="363" y="232" on="1"/>
        <pt x="363" y="243" on="0"/>
        <pt x="352" y="243" on="1"/>
        <pt x="292" y="243" on="1"/>
        <pt x="271" y="243" on="0"/>
        <pt x="271" y="264" on="1"/>
        <pt x="271" y="332" on="1"/>
        <pt x="271" y="353" on="0"/>
        <pt x="292" y="353" on="1"/>
        <pt x="467" y="353" on="1"/>
        <pt x="490" y="353" on="0"/>
        <pt x="490" y="330" on="1"/>
        <pt x="490" y="163" on="1"/>
        <pt x="490" y="85" on="0"/>
        <pt x="404" y="0" on="0"/>
      </contour>
    </TTGlyph>
    <TTGlyph name="Gbreve" xMin="55" yMin="0" xMax="490" yMax="836">
      <contour>
        <pt x="157" y="823" on="1"/>
        <pt x="157" y="836" on="0"/>
        <pt x="171" y="836" on="1"/>
        <pt x="221" y="836" on="1"/>
        <pt x="235" y="836" on="0"/>
        <pt x="235" y="823" on="1"/>
        <pt x="235" y="814" on="1"/>
        <pt x="235" y="790" on="0"/>
        <pt x="251" y="771" on="0"/>
        <pt x="269" y="771" on="1"/>
        <pt x="277" y="771" on="1"/>
        <pt x="311" y="771" on="0"/>
        <pt x="311" y="814" on="1"/>
        <pt x="311" y="823" on="1"/>
        <pt x="311" y="836" on="0"/>
        <pt x="325" y="836" on="1"/>
        <pt x="374" y="836" on="1"/>
        <pt x="388" y="836" on="0"/>
        <pt x="388" y="823" on="1"/>
        <pt x="388" y="812" on="1"/>
        <pt x="388" y="761" on="0"/>
        <pt x="336" y="707" on="0"/>
        <pt x="290" y="707" on="1"/>
        <pt x="255" y="707" on="1"/>
        <pt x="210" y="707" on="0"/>
        <pt x="157" y="761" on="0"/>
        <pt x="157" y="812" on="1"/>
      </contour>
      <contour>
        <pt x="326" y="0" on="1"/>
        <pt x="220" y="0" on="1"/>
        <pt x="141" y="0" on="0"/>
        <pt x="55" y="84" on="0"/>
        <pt x="55" y="163" on="1"/>
        <pt x="55" y="480" on="1"/>
        <pt x="55" y="559" on="0"/>
        <pt x="141" y="643" on="0"/>
        <pt x="220" y="643" on="1"/>
        <pt x="326" y="643" on="1"/>
        <pt x="404" y="643" on="0"/>
        <pt x="490" y="558" on="0"/>
        <pt x="490" y="480" on="1"/>
        <pt x="490" y="450" on="1"/>
        <pt x="490" y="428" on="0"/>
        <pt x="469" y="428" on="1"/>
        <pt x="384" y="428" on="1"/>
        <pt x="363" y="428" on="0"/>
        <pt x="363" y="450" on="1"/>
        <pt x="363" y="474" on="1"/>
        <pt x="363" y="506" on="0"/>
        <pt x="337" y="533" on="0"/>
        <pt x="305" y="533" on="1"/>
        <pt x="240" y="533" on="1"/>
        <pt x="209" y="533" on="0"/>
        <pt x="182" y="506" on="0"/>
        <pt x="182" y="474" on="1"/>
        <pt x="182" y="169" on="1"/>
        <pt x="182" y="137" on="0"/>
        <pt x="209" y="110" on="0"/>
        <pt x="240" y="110" on="1"/>
        <pt x="305" y="110" on="1"/>
        <pt x="337" y="110" on="0"/>
        <pt x="363" y="137" on="0"/>
        <pt x="363" y="169" on="1"/>
        <pt x="363" y="232" on="1"/>
        <pt x="363" y="243" on="0"/>
        <pt x="352" y="243" on="1"/>
        <pt x="292" y="243" on="1"/>
        <pt x="271" y="243" on="0"/>
        <pt x="271" y="264" on="1"/>
        <pt x="271" y="332" on="1"/>
        <pt x="271" y="353" on="0"/>
        <pt x="292" y="353" on="1"/>
        <pt x="467" y="353" on="1"/>
        <pt x="490" y="353" on="0"/>
        <pt x="490" y="330" on="1"/>
        <pt x="490" y="163" on="1"/>
        <pt x="490" y="85" on="0"/>
        <pt x="404" y="0" on="0"/>
      </contour>
    </TTGlyph>
    <TTGlyph name="Gcircumflex" xMin="55" yMin="0" xMax="490" yMax="836">
      <contour>
        <pt x="385" y="707" on="1"/>
        <pt x="325" y="707" on="1"/>
        <pt x="312" y="707" on="0"/>
        <pt x="307" y="719" on="1"/>
        <pt x="275" y="785" on="1"/>
        <pt x="242" y="719" on="1"/>
        <pt x="238" y="707" on="0"/>
        <pt x="225" y="707" on="1"/>
        <pt x="166" y="707" on="1"/>
        <pt x="151" y="707" on="0"/>
        <pt x="158" y="720" on="1"/>
        <pt x="220" y="825" on="1"/>
        <pt x="228" y="836" on="0"/>
        <pt x="242" y="836" on="1"/>
        <pt x="307" y="836" on="1"/>
        <pt x="322" y="836" on="0"/>
        <pt x="330" y="825" on="1"/>
        <pt x="392" y="720" on="1"/>
        <pt x="399" y="707" on="0"/>
      </contour>
      <contour>
        <pt x="326" y="0" on="1"/>
        <pt x="220" y="0" on="1"/>
        <pt x="141" y="0" on="0"/>
        <pt x="55" y="84" on="0"/>
        <pt x="55" y="163" on="1"/>
        <pt x="55" y="480" on="1"/>
        <pt x="55" y="559" on="0"/>
        <pt x="141" y="643" on="0"/>
        <pt x="220" y="643" on="1"/>
        <pt x="326" y="643" on="1"/>
        <pt x="404" y="643" on="0"/>
        <pt x="490" y="558" on="0"/>
        <pt x="490" y="480" on="1"/>
        <pt x="490" y="450" on="1"/>
        <pt x="490" y="428" on="0"/>
        <pt x="469" y="428" on="1"/>
        <pt x="384" y="428" on="1"/>
        <pt x="363" y="428" on="0"/>
        <pt x="363" y="450" on="1"/>
        <pt x="363" y="474" on="1"/>
        <pt x="363" y="506" on="0"/>
        <pt x="337" y="533" on="0"/>
        <pt x="305" y="533" on="1"/>
        <pt x="240" y="533" on="1"/>
        <pt x="209" y="533" on="0"/>
        <pt x="182" y="506" on="0"/>
        <pt x="182" y="474" on="1"/>
        <pt x="182" y="169" on="1"/>
        <pt x="182" y="137" on="0"/>
        <pt x="209" y="110" on="0"/>
        <pt x="240" y="110" on="1"/>
        <pt x="305" y="110" on="1"/>
        <pt x="337" y="110" on="0"/>
        <pt x="363" y="137" on="0"/>
        <pt x="363" y="169" on="1"/>
        <pt x="363" y="232" on="1"/>
        <pt x="363" y="243" on="0"/>
        <pt x="352" y="243" on="1"/>
        <pt x="292" y="243" on="1"/>
        <pt x="271" y="243" on="0"/>
        <pt x="271" y="264" on="1"/>
        <pt x="271" y="332" on="1"/>
        <pt x="271" y="353" on="0"/>
        <pt x="292" y="353" on="1"/>
        <pt x="467" y="353" on="1"/>
        <pt x="490" y="353" on="0"/>
        <pt x="490" y="330" on="1"/>
        <pt x="490" y="163" on="1"/>
        <pt x="490" y="85" on="0"/>
        <pt x="404" y="0" on="0"/>
      </contour>
    </TTGlyph>
    <TTGlyph name="Gdotaccent" xMin="55" yMin="0" xMax="490" yMax="843">
      <contour>
        <pt x="209" y="729" on="1"/>
        <pt x="209" y="823" on="1"/>
        <pt x="209" y="843" on="0"/>
        <pt x="229" y="843" on="1"/>
        <pt x="317" y="843" on="1"/>
        <pt x="336" y="843" on="0"/>
        <pt x="336" y="824" on="1"/>
        <pt x="336" y="729" on="1"/>
        <pt x="336" y="708" on="0"/>
        <pt x="317" y="708" on="1"/>
        <pt x="229" y="708" on="1"/>
        <pt x="209" y="708" on="0"/>
      </contour>
      <contour>
        <pt x="326" y="0" on="1"/>
        <pt x="220" y="0" on="1"/>
        <pt x="141" y="0" on="0"/>
        <pt x="55" y="84" on="0"/>
        <pt x="55" y="163" on="1"/>
        <pt x="55" y="480" on="1"/>
        <pt x="55" y="559" on="0"/>
        <pt x="141" y="643" on="0"/>
        <pt x="220" y="643" on="1"/>
        <pt x="326" y="643" on="1"/>
        <pt x="404" y="643" on="0"/>
        <pt x="490" y="558" on="0"/>
        <pt x="490" y="480" on="1"/>
        <pt x="490" y="450" on="1"/>
        <pt x="490" y="428" on="0"/>
        <pt x="469" y="428" on="1"/>
        <pt x="384" y="428" on="1"/>
        <pt x="363" y="428" on="0"/>
        <pt x="363" y="450" on="1"/>
        <pt x="363" y="474" on="1"/>
        <pt x="363" y="506" on="0"/>
        <pt x="337" y="533" on="0"/>
        <pt x="305" y="533" on="1"/>
        <pt x="240" y="533" on="1"/>
        <pt x="209" y="533" on="0"/>
        <pt x="182" y="506" on="0"/>
        <pt x="182" y="474" on="1"/>
        <pt x="182" y="169" on="1"/>
        <pt x="182" y="137" on="0"/>
        <pt x="209" y="110" on="0"/>
        <pt x="240" y="110" on="1"/>
        <pt x="305" y="110" on="1"/>
        <pt x="337" y="110" on="0"/>
        <pt x="363" y="137" on="0"/>
        <pt x="363" y="169" on="1"/>
        <pt x="363" y="232" on="1"/>
        <pt x="363" y="243" on="0"/>
        <pt x="352" y="243" on="1"/>
        <pt x="292" y="243" on="1"/>
        <pt x="271" y="243" on="0"/>
        <pt x="271" y="264" on="1"/>
        <pt x="271" y="332" on="1"/>
        <pt x="271" y="353" on="0"/>
        <pt x="292" y="353" on="1"/>
        <pt x="467" y="353" on="1"/>
        <pt x="490" y="353" on="0"/>
        <pt x="490" y="330" on="1"/>
        <pt x="490" y="163" on="1"/>
        <pt x="490" y="85" on="0"/>
        <pt x="404" y="0" on="0"/>
      </contour>
    </TTGlyph>
    <TTGlyph name="H" xMin="65" yMin="0" xMax="511" yMax="643">
      <contour>
        <pt x="171" y="0" on="1"/>
        <pt x="86" y="0" on="1"/>
        <pt x="65" y="0" on="0"/>
        <pt x="65" y="21" on="1"/>
        <pt x="65" y="622" on="1"/>
        <pt x="65" y="643" on="0"/>
        <pt x="86" y="643" on="1"/>
        <pt x="171" y="643" on="1"/>
        <pt x="192" y="643" on="0"/>
        <pt x="192" y="622" on="1"/>
        <pt x="192" y="387" on="1"/>
        <pt x="192" y="376" on="0"/>
        <pt x="204" y="376" on="1"/>
        <pt x="373" y="376" on="1"/>
        <pt x="384" y="376" on="0"/>
        <pt x="384" y="387" on="1"/>
        <pt x="384" y="622" on="1"/>
        <pt x="384" y="643" on="0"/>
        <pt x="405" y="643" on="1"/>
        <pt x="490" y="643" on="1"/>
        <pt x="511" y="643" on="0"/>
        <pt x="511" y="622" on="1"/>
        <pt x="511" y="21" on="1"/>
        <pt x="511" y="0" on="0"/>
        <pt x="490" y="0" on="1"/>
        <pt x="405" y="0" on="1"/>
        <pt x="384" y="0" on="0"/>
        <pt x="384" y="21" on="1"/>
        <pt x="384" y="255" on="1"/>
        <pt x="384" y="266" on="0"/>
        <pt x="373" y="266" on="1"/>
        <pt x="204" y="266" on="1"/>
        <pt x="192" y="266" on="0"/>
        <pt x="192" y="255" on="1"/>
        <pt x="192" y="21" on="1"/>
        <pt x="192" y="0" on="0"/>
      </contour>
    </TTGlyph>
    <TTGlyph name="Hbar" xMin="21" yMin="0" xMax="601" yMax="643">
      <contour>
        <pt x="193" y="0" on="1"/>
        <pt x="109" y="0" on="1"/>
        <pt x="87" y="0" on="0"/>
        <pt x="87" y="21" on="1"/>
        <pt x="87" y="427" on="1"/>
        <pt x="87" y="439" on="0"/>
        <pt x="76" y="439" on="1"/>
        <pt x="42" y="439" on="1"/>
        <pt x="30" y="439" on="0"/>
        <pt x="21" y="448" on="0"/>
        <pt x="21" y="459" on="1"/>
        <pt x="21" y="511" on="1"/>
        <pt x="21" y="532" on="0"/>
        <pt x="42" y="532" on="1"/>
        <pt x="76" y="532" on="1"/>
        <pt x="87" y="532" on="0"/>
        <pt x="87" y="544" on="1"/>
        <pt x="87" y="622" on="1"/>
        <pt x="87" y="643" on="0"/>
        <pt x="109" y="643" on="1"/>
        <pt x="193" y="643" on="1"/>
        <pt x="215" y="643" on="0"/>
        <pt x="215" y="622" on="1"/>
        <pt x="215" y="544" on="1"/>
        <pt x="215" y="532" on="0"/>
        <pt x="226" y="532" on="1"/>
        <pt x="396" y="532" on="1"/>
        <pt x="406" y="532" on="0"/>
        <pt x="406" y="541" on="1"/>
        <pt x="406" y="622" on="1"/>
        <pt x="406" y="643" on="0"/>
        <pt x="428" y="643" on="1"/>
        <pt x="512" y="643" on="1"/>
        <pt x="534" y="643" on="0"/>
        <pt x="534" y="622" on="1"/>
        <pt x="534" y="544" on="1"/>
        <pt x="534" y="532" on="0"/>
        <pt x="546" y="532" on="1"/>
        <pt x="580" y="532" on="1"/>
        <pt x="601" y="532" on="0"/>
        <pt x="601" y="511" on="1"/>
        <pt x="601" y="459" on="1"/>
        <pt x="601" y="448" on="0"/>
        <pt x="592" y="439" on="0"/>
        <pt x="580" y="439" on="1"/>
        <pt x="546" y="439" on="1"/>
        <pt x="534" y="439" on="0"/>
        <pt x="534" y="427" on="1"/>
        <pt x="534" y="21" on="1"/>
        <pt x="534" y="0" on="0"/>
        <pt x="512" y="0" on="1"/>
        <pt x="428" y="0" on="1"/>
        <pt x="406" y="0" on="0"/>
        <pt x="406" y="21" on="1"/>
        <pt x="406" y="238" on="1"/>
        <pt x="406" y="249" on="0"/>
        <pt x="395" y="249" on="1"/>
        <pt x="226" y="249" on="1"/>
        <pt x="215" y="249" on="0"/>
        <pt x="215" y="238" on="1"/>
        <pt x="215" y="21" on="1"/>
        <pt x="215" y="0" on="0"/>
      </contour>
      <contour>
        <pt x="226" y="359" on="1"/>
        <pt x="395" y="359" on="1"/>
        <pt x="407" y="359" on="0"/>
        <pt x="407" y="371" on="1"/>
        <pt x="407" y="427" on="1"/>
        <pt x="407" y="439" on="0"/>
        <pt x="395" y="439" on="1"/>
        <pt x="226" y="439" on="1"/>
        <pt x="215" y="439" on="0"/>
        <pt x="215" y="427" on="1"/>
        <pt x="215" y="371" on="1"/>
        <pt x="215" y="359" on="0"/>
      </contour>
    </TTGlyph>
    <TTGlyph name="I" xMin="70" yMin="0" xMax="197" yMax="643">
      <contour>
        <pt x="197" y="622" on="1"/>
        <pt x="197" y="21" on="1"/>
        <pt x="197" y="0" on="0"/>
        <pt x="176" y="0" on="1"/>
        <pt x="91" y="0" on="1"/>
        <pt x="70" y="0" on="0"/>
        <pt x="70" y="21" on="1"/>
        <pt x="70" y="622" on="1"/>
        <pt x="70" y="643" on="0"/>
        <pt x="91" y="643" on="1"/>
        <pt x="176" y="643" on="1"/>
        <pt x="197" y="643" on="0"/>
      </contour>
    </TTGlyph>
    <TTGlyph name="IJ" xMin="74" yMin="0" xMax="690" yMax="643">
      <contour>
        <pt x="585" y="643" on="1"/>
        <pt x="669" y="643" on="1"/>
        <pt x="690" y="643" on="0"/>
        <pt x="690" y="623" on="1"/>
        <pt x="690" y="163" on="1"/>
        <pt x="690" y="85" on="0"/>
        <pt x="604" y="0" on="0"/>
        <pt x="526" y="0" on="1"/>
        <pt x="426" y="0" on="1"/>
        <pt x="347" y="0" on="0"/>
        <pt x="261" y="84" on="0"/>
        <pt x="261" y="163" on="1"/>
        <pt x="261" y="257" on="1"/>
        <pt x="261" y="278" on="0"/>
        <pt x="282" y="278" on="1"/>
        <pt x="367" y="278" on="1"/>
        <pt x="388" y="278" on="0"/>
        <pt x="388" y="257" on="1"/>
        <pt x="388" y="169" on="1"/>
        <pt x="388" y="137" on="0"/>
        <pt x="415" y="110" on="0"/>
        <pt x="446" y="110" on="1"/>
        <pt x="505" y="110" on="1"/>
        <pt x="537" y="110" on="0"/>
        <pt x="563" y="137" on="0"/>
        <pt x="563" y="169" on="1"/>
        <pt x="563" y="622" on="1"/>
        <pt x="563" y="643" on="0"/>
      </contour>
      <contour>
        <pt x="201" y="622" on="1"/>
        <pt x="201" y="21" on="1"/>
        <pt x="201" y="0" on="0"/>
        <pt x="180" y="0" on="1"/>
        <pt x="95" y="0" on="1"/>
        <pt x="74" y="0" on="0"/>
        <pt x="74" y="21" on="1"/>
        <pt x="74" y="622" on="1"/>
        <pt x="74" y="643" on="0"/>
        <pt x="95" y="643" on="1"/>
        <pt x="180" y="643" on="1"/>
        <pt x="201" y="643" on="0"/>
      </contour>
    </TTGlyph>
    <TTGlyph name="Iacute" xMin="70" yMin="0" xMax="277" yMax="836">
      <contour>
        <pt x="164" y="836" on="1"/>
        <pt x="263" y="836" on="1"/>
        <pt x="274" y="836" on="0"/>
        <pt x="280" y="824" on="0"/>
        <pt x="273" y="816" on="1"/>
        <pt x="192" y="720" on="1"/>
        <pt x="181" y="707" on="0"/>
        <pt x="165" y="707" on="1"/>
        <pt x="100" y="707" on="1"/>
        <pt x="80" y="707" on="0"/>
        <pt x="90" y="728" on="1"/>
        <pt x="134" y="817" on="1"/>
        <pt x="145" y="836" on="0"/>
      </contour>
      <contour>
        <pt x="197" y="622" on="1"/>
        <pt x="197" y="21" on="1"/>
        <pt x="197" y="0" on="0"/>
        <pt x="176" y="0" on="1"/>
        <pt x="91" y="0" on="1"/>
        <pt x="70" y="0" on="0"/>
        <pt x="70" y="21" on="1"/>
        <pt x="70" y="622" on="1"/>
        <pt x="70" y="643" on="0"/>
        <pt x="91" y="643" on="1"/>
        <pt x="176" y="643" on="1"/>
        <pt x="197" y="643" on="0"/>
      </contour>
    </TTGlyph>
    <TTGlyph name="Ibreve" xMin="18" yMin="0" xMax="249" yMax="836">
      <contour>
        <pt x="18" y="823" on="1"/>
        <pt x="18" y="836" on="0"/>
        <pt x="32" y="836" on="1"/>
        <pt x="82" y="836" on="1"/>
        <pt x="96" y="836" on="0"/>
        <pt x="96" y="823" on="1"/>
        <pt x="96" y="814" on="1"/>
        <pt x="96" y="790" on="0"/>
        <pt x="112" y="771" on="0"/>
        <pt x="130" y="771" on="1"/>
        <pt x="138" y="771" on="1"/>
        <pt x="172" y="771" on="0"/>
        <pt x="172" y="814" on="1"/>
        <pt x="172" y="823" on="1"/>
        <pt x="172" y="836" on="0"/>
        <pt x="186" y="836" on="1"/>
        <pt x="235" y="836" on="1"/>
        <pt x="249" y="836" on="0"/>
        <pt x="249" y="823" on="1"/>
        <pt x="249" y="812" on="1"/>
        <pt x="249" y="761" on="0"/>
        <pt x="197" y="707" on="0"/>
        <pt x="151" y="707" on="1"/>
        <pt x="116" y="707" on="1"/>
        <pt x="70" y="707" on="0"/>
        <pt x="18" y="761" on="0"/>
        <pt x="18" y="812" on="1"/>
      </contour>
      <contour>
        <pt x="197" y="622" on="1"/>
        <pt x="197" y="21" on="1"/>
        <pt x="197" y="0" on="0"/>
        <pt x="176" y="0" on="1"/>
        <pt x="91" y="0" on="1"/>
        <pt x="70" y="0" on="0"/>
        <pt x="70" y="21" on="1"/>
        <pt x="70" y="622" on="1"/>
        <pt x="70" y="643" on="0"/>
        <pt x="91" y="643" on="1"/>
        <pt x="176" y="643" on="1"/>
        <pt x="197" y="643" on="0"/>
      </contour>
    </TTGlyph>
    <TTGlyph name="Icircumflex" xMin="15" yMin="0" xMax="249" yMax="836">
      <contour>
        <pt x="242" y="707" on="1"/>
        <pt x="182" y="707" on="1"/>
        <pt x="170" y="707" on="0"/>
        <pt x="165" y="719" on="1"/>
        <pt x="132" y="785" on="1"/>
        <pt x="100" y="719" on="1"/>
        <pt x="95" y="707" on="0"/>
        <pt x="82" y="707" on="1"/>
        <pt x="24" y="707" on="1"/>
        <pt x="8" y="707" on="0"/>
        <pt x="15" y="720" on="1"/>
        <pt x="78" y="825" on="1"/>
        <pt x="86" y="836" on="0"/>
        <pt x="100" y="836" on="1"/>
        <pt x="165" y="836" on="1"/>
        <pt x="179" y="836" on="0"/>
        <pt x="187" y="825" on="1"/>
        <pt x="249" y="720" on="1"/>
        <pt x="256" y="707" on="0"/>
      </contour>
      <contour>
        <pt x="197" y="622" on="1"/>
        <pt x="197" y="21" on="1"/>
        <pt x="197" y="0" on="0"/>
        <pt x="176" y="0" on="1"/>
        <pt x="91" y="0" on="1"/>
        <pt x="70" y="0" on="0"/>
        <pt x="70" y="21" on="1"/>
        <pt x="70" y="622" on="1"/>
        <pt x="70" y="643" on="0"/>
        <pt x="91" y="643" on="1"/>
        <pt x="176" y="643" on="1"/>
        <pt x="197" y="643" on="0"/>
      </contour>
    </TTGlyph>
    <TTGlyph name="Idieresis" xMin="-21" yMin="0" xMax="288" yMax="836">
      <contour>
        <pt x="-21" y="728" on="1"/>
        <pt x="-21" y="816" on="1"/>
        <pt x="-21" y="836" on="0"/>
        <pt x="-2" y="836" on="1"/>
        <pt x="78" y="836" on="1"/>
        <pt x="98" y="836" on="0"/>
        <pt x="98" y="817" on="1"/>
        <pt x="98" y="728" on="1"/>
        <pt x="98" y="707" on="0"/>
        <pt x="78" y="707" on="1"/>
        <pt x="-2" y="707" on="1"/>
        <pt x="-21" y="707" on="0"/>
      </contour>
      <contour>
        <pt x="169" y="728" on="1"/>
        <pt x="169" y="816" on="1"/>
        <pt x="169" y="836" on="0"/>
        <pt x="188" y="836" on="1"/>
        <pt x="268" y="836" on="1"/>
        <pt x="288" y="836" on="0"/>
        <pt x="288" y="817" on="1"/>
        <pt x="288" y="728" on="1"/>
        <pt x="288" y="707" on="0"/>
        <pt x="268" y="707" on="1"/>
        <pt x="188" y="707" on="1"/>
        <pt x="169" y="707" on="0"/>
      </contour>
      <contour>
        <pt x="197" y="622" on="1"/>
        <pt x="197" y="21" on="1"/>
        <pt x="197" y="0" on="0"/>
        <pt x="176" y="0" on="1"/>
        <pt x="91" y="0" on="1"/>
        <pt x="70" y="0" on="0"/>
        <pt x="70" y="21" on="1"/>
        <pt x="70" y="622" on="1"/>
        <pt x="70" y="643" on="0"/>
        <pt x="91" y="643" on="1"/>
        <pt x="176" y="643" on="1"/>
        <pt x="197" y="643" on="0"/>
      </contour>
    </TTGlyph>
    <TTGlyph name="Idotaccent" xMin="70" yMin="0" xMax="197" yMax="830">
      <contour>
        <pt x="197" y="622" on="1"/>
        <pt x="197" y="21" on="1"/>
        <pt x="197" y="0" on="0"/>
        <pt x="176" y="0" on="1"/>
        <pt x="91" y="0" on="1"/>
        <pt x="70" y="0" on="0"/>
        <pt x="70" y="21" on="1"/>
        <pt x="70" y="622" on="1"/>
        <pt x="70" y="643" on="0"/>
        <pt x="91" y="643" on="1"/>
        <pt x="176" y="643" on="1"/>
        <pt x="197" y="643" on="0"/>
      </contour>
      <contour>
        <pt x="70" y="724" on="1"/>
        <pt x="70" y="810" on="1"/>
        <pt x="70" y="830" on="0"/>
        <pt x="90" y="830" on="1"/>
        <pt x="177" y="830" on="1"/>
        <pt x="197" y="830" on="0"/>
        <pt x="197" y="811" on="1"/>
        <pt x="197" y="724" on="1"/>
        <pt x="197" y="703" on="0"/>
        <pt x="177" y="703" on="1"/>
        <pt x="90" y="703" on="1"/>
        <pt x="70" y="703" on="0"/>
      </contour>
    </TTGlyph>
    <TTGlyph name="Igrave" xMin="-10" yMin="0" xMax="197" yMax="836">
      <contour>
        <pt x="166" y="707" on="1"/>
        <pt x="101" y="707" on="1"/>
        <pt x="85" y="707" on="0"/>
        <pt x="75" y="720" on="1"/>
        <pt x="-6" y="816" on="1"/>
        <pt x="-13" y="824" on="0"/>
        <pt x="-7" y="836" on="0"/>
        <pt x="3" y="836" on="1"/>
        <pt x="102" y="836" on="1"/>
        <pt x="122" y="836" on="0"/>
        <pt x="132" y="817" on="1"/>
        <pt x="177" y="728" on="1"/>
        <pt x="187" y="707" on="0"/>
      </contour>
      <contour>
        <pt x="197" y="622" on="1"/>
        <pt x="197" y="21" on="1"/>
        <pt x="197" y="0" on="0"/>
        <pt x="176" y="0" on="1"/>
        <pt x="91" y="0" on="1"/>
        <pt x="70" y="0" on="0"/>
        <pt x="70" y="21" on="1"/>
        <pt x="70" y="622" on="1"/>
        <pt x="70" y="643" on="0"/>
        <pt x="91" y="643" on="1"/>
        <pt x="176" y="643" on="1"/>
        <pt x="197" y="643" on="0"/>
      </contour>
    </TTGlyph>
    <TTGlyph name="Imacron" xMin="14" yMin="0" xMax="253" yMax="819">
      <contour>
        <pt x="232" y="732" on="1"/>
        <pt x="35" y="732" on="1"/>
        <pt x="14" y="732" on="0"/>
        <pt x="14" y="753" on="1"/>
        <pt x="14" y="798" on="1"/>
        <pt x="14" y="819" on="0"/>
        <pt x="35" y="819" on="1"/>
        <pt x="232" y="819" on="1"/>
        <pt x="253" y="819" on="0"/>
        <pt x="253" y="798" on="1"/>
        <pt x="253" y="753" on="1"/>
        <pt x="253" y="732" on="0"/>
      </contour>
      <contour>
        <pt x="197" y="622" on="1"/>
        <pt x="197" y="21" on="1"/>
        <pt x="197" y="0" on="0"/>
        <pt x="176" y="0" on="1"/>
        <pt x="91" y="0" on="1"/>
        <pt x="70" y="0" on="0"/>
        <pt x="70" y="21" on="1"/>
        <pt x="70" y="622" on="1"/>
        <pt x="70" y="643" on="0"/>
        <pt x="91" y="643" on="1"/>
        <pt x="176" y="643" on="1"/>
        <pt x="197" y="643" on="0"/>
      </contour>
    </TTGlyph>
    <TTGlyph name="Iogonek" xMin="62" yMin="-123" xMax="197" yMax="643">
      <contour>
        <pt x="176" y="0" on="1"/>
        <pt x="170" y="0" on="1"/>
        <pt x="132" y="-57" on="1"/>
        <pt x="174" y="-57" on="1"/>
        <pt x="186" y="-57" on="0"/>
        <pt x="195" y="-65" on="0"/>
        <pt x="195" y="-77" on="1"/>
        <pt x="195" y="-98" on="0"/>
        <pt x="129" y="-123" on="0"/>
        <pt x="70" y="-123" on="0"/>
        <pt x="54" y="-88" on="0"/>
        <pt x="68" y="-68" on="1"/>
        <pt x="109" y="0" on="1"/>
        <pt x="91" y="0" on="1"/>
        <pt x="70" y="0" on="0"/>
        <pt x="70" y="21" on="1"/>
        <pt x="70" y="622" on="1"/>
        <pt x="70" y="643" on="0"/>
        <pt x="91" y="643" on="1"/>
        <pt x="176" y="643" on="1"/>
        <pt x="197" y="643" on="0"/>
        <pt x="197" y="622" on="1"/>
        <pt x="197" y="21" on="1"/>
        <pt x="197" y="0" on="0"/>
      </contour>
    </TTGlyph>
    <TTGlyph name="Itilde" xMin="14" yMin="0" xMax="254" yMax="833">
      <contour>
        <pt x="85" y="702" on="1"/>
        <pt x="14" y="702" on="0"/>
        <pt x="14" y="778" on="1"/>
        <pt x="14" y="817" on="1"/>
        <pt x="14" y="828" on="0"/>
        <pt x="24" y="828" on="1"/>
        <pt x="64" y="828" on="1"/>
        <pt x="74" y="828" on="0"/>
        <pt x="74" y="817" on="1"/>
        <pt x="74" y="805" on="1"/>
        <pt x="74" y="783" on="0"/>
        <pt x="81" y="769" on="0"/>
        <pt x="96" y="769" on="0"/>
        <pt x="148" y="833" on="0"/>
        <pt x="182" y="833" on="1"/>
        <pt x="254" y="833" on="0"/>
        <pt x="254" y="756" on="1"/>
        <pt x="254" y="719" on="1"/>
        <pt x="254" y="706" on="0"/>
        <pt x="243" y="706" on="1"/>
        <pt x="204" y="706" on="1"/>
        <pt x="193" y="706" on="0"/>
        <pt x="193" y="719" on="1"/>
        <pt x="193" y="729" on="1"/>
        <pt x="193" y="751" on="0"/>
        <pt x="187" y="765" on="0"/>
        <pt x="170" y="765" on="0"/>
        <pt x="149" y="738" on="1"/>
        <pt x="123" y="702" on="0"/>
      </contour>
      <contour>
        <pt x="197" y="622" on="1"/>
        <pt x="197" y="21" on="1"/>
        <pt x="197" y="0" on="0"/>
        <pt x="176" y="0" on="1"/>
        <pt x="91" y="0" on="1"/>
        <pt x="70" y="0" on="0"/>
        <pt x="70" y="21" on="1"/>
        <pt x="70" y="622" on="1"/>
        <pt x="70" y="643" on="0"/>
        <pt x="91" y="643" on="1"/>
        <pt x="176" y="643" on="1"/>
        <pt x="197" y="643" on="0"/>
      </contour>
    </TTGlyph>
    <TTGlyph name="J" xMin="32" yMin="0" xMax="461" yMax="643">
      <contour>
        <pt x="356" y="643" on="1"/>
        <pt x="440" y="643" on="1"/>
        <pt x="461" y="643" on="0"/>
        <pt x="461" y="623" on="1"/>
        <pt x="461" y="163" on="1"/>
        <pt x="461" y="85" on="0"/>
        <pt x="375" y="0" on="0"/>
        <pt x="297" y="0" on="1"/>
        <pt x="197" y="0" on="1"/>
        <pt x="118" y="0" on="0"/>
        <pt x="32" y="84" on="0"/>
        <pt x="32" y="163" on="1"/>
        <pt x="32" y="257" on="1"/>
        <pt x="32" y="278" on="0"/>
        <pt x="53" y="278" on="1"/>
        <pt x="138" y="278" on="1"/>
        <pt x="159" y="278" on="0"/>
        <pt x="159" y="257" on="1"/>
        <pt x="159" y="169" on="1"/>
        <pt x="159" y="137" on="0"/>
        <pt x="186" y="110" on="0"/>
        <pt x="217" y="110" on="1"/>
        <pt x="276" y="110" on="1"/>
        <pt x="308" y="110" on="0"/>
        <pt x="334" y="137" on="0"/>
        <pt x="334" y="169" on="1"/>
        <pt x="334" y="622" on="1"/>
        <pt x="334" y="643" on="0"/>
      </contour>
    </TTGlyph>
    <TTGlyph name="Jcircumflex" xMin="32" yMin="0" xMax="514" yMax="836">
      <contour>
        <pt x="356" y="643" on="1"/>
        <pt x="440" y="643" on="1"/>
        <pt x="461" y="643" on="0"/>
        <pt x="461" y="623" on="1"/>
        <pt x="461" y="163" on="1"/>
        <pt x="461" y="85" on="0"/>
        <pt x="375" y="0" on="0"/>
        <pt x="297" y="0" on="1"/>
        <pt x="197" y="0" on="1"/>
        <pt x="118" y="0" on="0"/>
        <pt x="32" y="84" on="0"/>
        <pt x="32" y="163" on="1"/>
        <pt x="32" y="257" on="1"/>
        <pt x="32" y="278" on="0"/>
        <pt x="53" y="278" on="1"/>
        <pt x="138" y="278" on="1"/>
        <pt x="159" y="278" on="0"/>
        <pt x="159" y="257" on="1"/>
        <pt x="159" y="169" on="1"/>
        <pt x="159" y="137" on="0"/>
        <pt x="186" y="110" on="0"/>
        <pt x="217" y="110" on="1"/>
        <pt x="276" y="110" on="1"/>
        <pt x="308" y="110" on="0"/>
        <pt x="334" y="137" on="0"/>
        <pt x="334" y="169" on="1"/>
        <pt x="334" y="622" on="1"/>
        <pt x="334" y="643" on="0"/>
      </contour>
      <contour>
        <pt x="507" y="707" on="1"/>
        <pt x="447" y="707" on="1"/>
        <pt x="434" y="707" on="0"/>
        <pt x="430" y="719" on="1"/>
        <pt x="397" y="785" on="1"/>
        <pt x="365" y="719" on="1"/>
        <pt x="360" y="707" on="0"/>
        <pt x="347" y="707" on="1"/>
        <pt x="288" y="707" on="1"/>
        <pt x="273" y="707" on="0"/>
        <pt x="280" y="720" on="1"/>
        <pt x="343" y="825" on="1"/>
        <pt x="351" y="836" on="0"/>
        <pt x="365" y="836" on="1"/>
        <pt x="430" y="836" on="1"/>
        <pt x="444" y="836" on="0"/>
        <pt x="452" y="825" on="1"/>
        <pt x="514" y="720" on="1"/>
        <pt x="521" y="707" on="0"/>
      </contour>
    </TTGlyph>
    <TTGlyph name="K" xMin="65" yMin="0" xMax="547" yMax="643">
      <contour>
        <pt x="171" y="0" on="1"/>
        <pt x="86" y="0" on="1"/>
        <pt x="65" y="0" on="0"/>
        <pt x="65" y="21" on="1"/>
        <pt x="65" y="622" on="1"/>
        <pt x="65" y="643" on="0"/>
        <pt x="86" y="643" on="1"/>
        <pt x="171" y="643" on="1"/>
        <pt x="192" y="643" on="0"/>
        <pt x="192" y="622" on="1"/>
        <pt x="192" y="337" on="1"/>
        <pt x="194" y="337" on="1"/>
        <pt x="202" y="361" on="0"/>
        <pt x="225" y="399" on="1"/>
        <pt x="377" y="622" on="1"/>
        <pt x="390" y="643" on="0"/>
        <pt x="416" y="643" on="1"/>
        <pt x="514" y="643" on="1"/>
        <pt x="525" y="643" on="0"/>
        <pt x="530" y="630" on="0"/>
        <pt x="522" y="620" on="1"/>
        <pt x="332" y="357" on="1"/>
        <pt x="544" y="25" on="1"/>
        <pt x="551" y="13" on="0"/>
        <pt x="542" y="0" on="0"/>
        <pt x="528" y="0" on="1"/>
        <pt x="455" y="0" on="1"/>
        <pt x="420" y="0" on="0"/>
        <pt x="408" y="21" on="1"/>
        <pt x="255" y="266" on="1"/>
        <pt x="192" y="192" on="1"/>
        <pt x="192" y="21" on="1"/>
        <pt x="192" y="0" on="0"/>
      </contour>
    </TTGlyph>
    <TTGlyph name="L" xMin="65" yMin="0" xMax="435" yMax="643">
      <contour>
        <pt x="415" y="0" on="1"/>
        <pt x="86" y="0" on="1"/>
        <pt x="65" y="0" on="0"/>
        <pt x="65" y="21" on="1"/>
        <pt x="65" y="622" on="1"/>
        <pt x="65" y="643" on="0"/>
        <pt x="86" y="643" on="1"/>
        <pt x="171" y="643" on="1"/>
        <pt x="192" y="643" on="0"/>
        <pt x="192" y="622" on="1"/>
        <pt x="192" y="122" on="1"/>
        <pt x="192" y="111" on="0"/>
        <pt x="204" y="111" on="1"/>
        <pt x="415" y="111" on="1"/>
        <pt x="435" y="111" on="0"/>
        <pt x="435" y="89" on="1"/>
        <pt x="435" y="21" on="1"/>
        <pt x="435" y="0" on="0"/>
      </contour>
    </TTGlyph>
    <TTGlyph name="Lacute" xMin="65" yMin="0" xMax="435" yMax="836">
      <contour>
        <pt x="161" y="836" on="1"/>
        <pt x="260" y="836" on="1"/>
        <pt x="270" y="836" on="0"/>
        <pt x="276" y="824" on="0"/>
        <pt x="270" y="816" on="1"/>
        <pt x="188" y="720" on="1"/>
        <pt x="178" y="707" on="0"/>
        <pt x="162" y="707" on="1"/>
        <pt x="97" y="707" on="1"/>
        <pt x="76" y="707" on="0"/>
        <pt x="86" y="728" on="1"/>
        <pt x="131" y="817" on="1"/>
        <pt x="140" y="836" on="0"/>
      </contour>
      <contour>
        <pt x="415" y="0" on="1"/>
        <pt x="86" y="0" on="1"/>
        <pt x="65" y="0" on="0"/>
        <pt x="65" y="21" on="1"/>
        <pt x="65" y="622" on="1"/>
        <pt x="65" y="643" on="0"/>
        <pt x="86" y="643" on="1"/>
        <pt x="171" y="643" on="1"/>
        <pt x="192" y="643" on="0"/>
        <pt x="192" y="622" on="1"/>
        <pt x="192" y="122" on="1"/>
        <pt x="192" y="111" on="0"/>
        <pt x="204" y="111" on="1"/>
        <pt x="415" y="111" on="1"/>
        <pt x="435" y="111" on="0"/>
        <pt x="435" y="89" on="1"/>
        <pt x="435" y="21" on="1"/>
        <pt x="435" y="0" on="0"/>
      </contour>
    </TTGlyph>
    <TTGlyph name="Lcaron" xMin="65" yMin="0" xMax="435" yMax="643">
      <contour>
        <pt x="395" y="624" on="1"/>
        <pt x="395" y="594" on="1"/>
        <pt x="395" y="563" on="0"/>
        <pt x="372" y="515" on="1"/>
        <pt x="319" y="414" on="1"/>
        <pt x="311" y="404" on="0"/>
        <pt x="300" y="404" on="1"/>
        <pt x="283" y="404" on="0"/>
        <pt x="283" y="424" on="1"/>
        <pt x="283" y="623" on="1"/>
        <pt x="283" y="643" on="0"/>
        <pt x="302" y="643" on="1"/>
        <pt x="375" y="643" on="1"/>
        <pt x="395" y="643" on="0"/>
      </contour>
      <contour>
        <pt x="415" y="0" on="1"/>
        <pt x="86" y="0" on="1"/>
        <pt x="65" y="0" on="0"/>
        <pt x="65" y="21" on="1"/>
        <pt x="65" y="622" on="1"/>
        <pt x="65" y="643" on="0"/>
        <pt x="86" y="643" on="1"/>
        <pt x="171" y="643" on="1"/>
        <pt x="192" y="643" on="0"/>
        <pt x="192" y="622" on="1"/>
        <pt x="192" y="122" on="1"/>
        <pt x="192" y="111" on="0"/>
        <pt x="204" y="111" on="1"/>
        <pt x="415" y="111" on="1"/>
        <pt x="435" y="111" on="0"/>
        <pt x="435" y="89" on="1"/>
        <pt x="435" y="21" on="1"/>
        <pt x="435" y="0" on="0"/>
      </contour>
    </TTGlyph>
    <TTGlyph name="Ldot" xMin="73" yMin="0" xMax="443" yMax="643">
      <contour>
        <pt x="423" y="0" on="1"/>
        <pt x="94" y="0" on="1"/>
        <pt x="73" y="0" on="0"/>
        <pt x="73" y="21" on="1"/>
        <pt x="73" y="622" on="1"/>
        <pt x="73" y="643" on="0"/>
        <pt x="94" y="643" on="1"/>
        <pt x="179" y="643" on="1"/>
        <pt x="200" y="643" on="0"/>
        <pt x="200" y="622" on="1"/>
        <pt x="200" y="122" on="1"/>
        <pt x="200" y="111" on="0"/>
        <pt x="212" y="111" on="1"/>
        <pt x="423" y="111" on="1"/>
        <pt x="443" y="111" on="0"/>
        <pt x="443" y="89" on="1"/>
        <pt x="443" y="21" on="1"/>
        <pt x="443" y="0" on="0"/>
      </contour>
      <contour>
        <pt x="415" y="368" on="1"/>
        <pt x="415" y="271" on="1"/>
        <pt x="415" y="250" on="0"/>
        <pt x="396" y="250" on="1"/>
        <pt x="307" y="250" on="1"/>
        <pt x="287" y="250" on="0"/>
        <pt x="287" y="272" on="1"/>
        <pt x="287" y="367" on="1"/>
        <pt x="287" y="387" on="0"/>
        <pt x="307" y="387" on="1"/>
        <pt x="396" y="387" on="1"/>
        <pt x="415" y="387" on="0"/>
      </contour>
    </TTGlyph>
    <TTGlyph name="Lslash" xMin="18" yMin="0" xMax="471" yMax="643">
      <contour>
        <pt x="451" y="0" on="1"/>
        <pt x="122" y="0" on="1"/>
        <pt x="101" y="0" on="0"/>
        <pt x="101" y="21" on="1"/>
        <pt x="101" y="284" on="1"/>
        <pt x="38" y="248" on="1"/>
        <pt x="30" y="244" on="0"/>
        <pt x="18" y="251" on="0"/>
        <pt x="18" y="261" on="1"/>
        <pt x="18" y="326" on="1"/>
        <pt x="18" y="346" on="0"/>
        <pt x="38" y="357" on="1"/>
        <pt x="101" y="392" on="1"/>
        <pt x="101" y="622" on="1"/>
        <pt x="101" y="643" on="0"/>
        <pt x="122" y="643" on="1"/>
        <pt x="207" y="643" on="1"/>
        <pt x="228" y="643" on="0"/>
        <pt x="228" y="622" on="1"/>
        <pt x="228" y="465" on="1"/>
        <pt x="310" y="511" on="1"/>
        <pt x="330" y="520" on="0"/>
        <pt x="330" y="499" on="1"/>
        <pt x="330" y="432" on="1"/>
        <pt x="330" y="411" on="0"/>
        <pt x="310" y="400" on="1"/>
        <pt x="228" y="354" on="1"/>
        <pt x="228" y="122" on="1"/>
        <pt x="228" y="111" on="0"/>
        <pt x="240" y="111" on="1"/>
        <pt x="451" y="111" on="1"/>
        <pt x="471" y="111" on="0"/>
        <pt x="471" y="89" on="1"/>
        <pt x="471" y="21" on="1"/>
        <pt x="471" y="0" on="0"/>
      </contour>
    </TTGlyph>
    <TTGlyph name="M" xMin="65" yMin="0" xMax="661" yMax="643">
      <contour>
        <pt x="492" y="643" on="1"/>
        <pt x="640" y="643" on="1"/>
        <pt x="661" y="643" on="0"/>
        <pt x="661" y="622" on="1"/>
        <pt x="661" y="21" on="1"/>
        <pt x="661" y="0" on="0"/>
        <pt x="640" y="0" on="1"/>
        <pt x="558" y="0" on="1"/>
        <pt x="537" y="0" on="0"/>
        <pt x="537" y="21" on="1"/>
        <pt x="537" y="495" on="1"/>
        <pt x="533" y="495" on="1"/>
        <pt x="431" y="160" on="1"/>
        <pt x="425" y="140" on="0"/>
        <pt x="406" y="140" on="1"/>
        <pt x="322" y="140" on="1"/>
        <pt x="303" y="140" on="0"/>
        <pt x="297" y="160" on="1"/>
        <pt x="193" y="496" on="1"/>
        <pt x="189" y="496" on="1"/>
        <pt x="189" y="21" on="1"/>
        <pt x="189" y="9" on="0"/>
        <pt x="181" y="0" on="0"/>
        <pt x="168" y="0" on="1"/>
        <pt x="86" y="0" on="1"/>
        <pt x="65" y="0" on="0"/>
        <pt x="65" y="21" on="1"/>
        <pt x="65" y="622" on="1"/>
        <pt x="65" y="643" on="0"/>
        <pt x="86" y="643" on="1"/>
        <pt x="235" y="643" on="1"/>
        <pt x="249" y="643" on="0"/>
        <pt x="254" y="629" on="1"/>
        <pt x="360" y="276" on="1"/>
        <pt x="366" y="276" on="1"/>
        <pt x="473" y="629" on="1"/>
        <pt x="476" y="643" on="0"/>
      </contour>
    </TTGlyph>
    <TTGlyph name="Mu" xMin="73" yMin="-133" xMax="491" yMax="510">
      <contour>
        <pt x="200" y="-112" on="1"/>
        <pt x="200" y="-133" on="0"/>
        <pt x="179" y="-133" on="1"/>
        <pt x="94" y="-133" on="1"/>
        <pt x="73" y="-133" on="0"/>
        <pt x="73" y="-112" on="1"/>
        <pt x="73" y="489" on="1"/>
        <pt x="73" y="510" on="0"/>
        <pt x="94" y="510" on="1"/>
        <pt x="179" y="510" on="1"/>
        <pt x="200" y="510" on="0"/>
        <pt x="200" y="489" on="1"/>
        <pt x="200" y="169" on="1"/>
        <pt x="200" y="137" on="0"/>
        <pt x="227" y="110" on="0"/>
        <pt x="258" y="110" on="1"/>
        <pt x="295" y="110" on="1"/>
        <pt x="364" y="110" on="0"/>
        <pt x="364" y="186" on="1"/>
        <pt x="364" y="489" on="1"/>
        <pt x="364" y="510" on="0"/>
        <pt x="385" y="510" on="1"/>
        <pt x="469" y="510" on="1"/>
        <pt x="491" y="510" on="0"/>
        <pt x="491" y="489" on="1"/>
        <pt x="491" y="21" on="1"/>
        <pt x="491" y="0" on="0"/>
        <pt x="469" y="0" on="1"/>
        <pt x="385" y="0" on="1"/>
        <pt x="364" y="0" on="0"/>
        <pt x="364" y="21" on="1"/>
        <pt x="364" y="54" on="1"/>
        <pt x="360" y="54" on="1"/>
        <pt x="349" y="27" on="0"/>
        <pt x="293" y="0" on="0"/>
        <pt x="206" y="0" on="0"/>
        <pt x="200" y="7" on="1"/>
      </contour>
    </TTGlyph>
    <TTGlyph name="N" xMin="65" yMin="0" xMax="520" yMax="643">
      <contour>
        <pt x="169" y="0" on="1"/>
        <pt x="86" y="0" on="1"/>
        <pt x="65" y="0" on="0"/>
        <pt x="65" y="21" on="1"/>
        <pt x="65" y="622" on="1"/>
        <pt x="65" y="643" on="0"/>
        <pt x="86" y="643" on="1"/>
        <pt x="161" y="643" on="1"/>
        <pt x="182" y="643" on="0"/>
        <pt x="189" y="629" on="1"/>
        <pt x="391" y="250" on="1"/>
        <pt x="395" y="250" on="1"/>
        <pt x="395" y="622" on="1"/>
        <pt x="395" y="643" on="0"/>
        <pt x="416" y="643" on="1"/>
        <pt x="499" y="643" on="1"/>
        <pt x="520" y="643" on="0"/>
        <pt x="520" y="622" on="1"/>
        <pt x="520" y="21" on="1"/>
        <pt x="520" y="0" on="0"/>
        <pt x="499" y="0" on="1"/>
        <pt x="426" y="0" on="1"/>
        <pt x="404" y="0" on="0"/>
        <pt x="394" y="20" on="1"/>
        <pt x="194" y="392" on="1"/>
        <pt x="190" y="392" on="1"/>
        <pt x="190" y="21" on="1"/>
        <pt x="190" y="0" on="0"/>
      </contour>
    </TTGlyph>
    <TTGlyph name="Nacute" xMin="65" yMin="0" xMax="520" yMax="836">
      <contour>
        <pt x="319" y="836" on="1"/>
        <pt x="417" y="836" on="1"/>
        <pt x="428" y="836" on="0"/>
        <pt x="434" y="824" on="0"/>
        <pt x="427" y="816" on="1"/>
        <pt x="346" y="720" on="1"/>
        <pt x="336" y="707" on="0"/>
        <pt x="320" y="707" on="1"/>
        <pt x="254" y="707" on="1"/>
        <pt x="234" y="707" on="0"/>
        <pt x="244" y="728" on="1"/>
        <pt x="289" y="817" on="1"/>
        <pt x="298" y="836" on="0"/>
      </contour>
      <contour>
        <pt x="169" y="0" on="1"/>
        <pt x="86" y="0" on="1"/>
        <pt x="65" y="0" on="0"/>
        <pt x="65" y="21" on="1"/>
        <pt x="65" y="622" on="1"/>
        <pt x="65" y="643" on="0"/>
        <pt x="86" y="643" on="1"/>
        <pt x="161" y="643" on="1"/>
        <pt x="182" y="643" on="0"/>
        <pt x="189" y="629" on="1"/>
        <pt x="391" y="250" on="1"/>
        <pt x="395" y="250" on="1"/>
        <pt x="395" y="622" on="1"/>
        <pt x="395" y="643" on="0"/>
        <pt x="416" y="643" on="1"/>
        <pt x="499" y="643" on="1"/>
        <pt x="520" y="643" on="0"/>
        <pt x="520" y="622" on="1"/>
        <pt x="520" y="21" on="1"/>
        <pt x="520" y="0" on="0"/>
        <pt x="499" y="0" on="1"/>
        <pt x="426" y="0" on="1"/>
        <pt x="404" y="0" on="0"/>
        <pt x="394" y="20" on="1"/>
        <pt x="194" y="392" on="1"/>
        <pt x="190" y="392" on="1"/>
        <pt x="190" y="21" on="1"/>
        <pt x="190" y="0" on="0"/>
      </contour>
    </TTGlyph>
    <TTGlyph name="Ncaron" xMin="65" yMin="0" xMax="520" yMax="836">
      <contour>
        <pt x="169" y="0" on="1"/>
        <pt x="86" y="0" on="1"/>
        <pt x="65" y="0" on="0"/>
        <pt x="65" y="21" on="1"/>
        <pt x="65" y="622" on="1"/>
        <pt x="65" y="643" on="0"/>
        <pt x="86" y="643" on="1"/>
        <pt x="161" y="643" on="1"/>
        <pt x="182" y="643" on="0"/>
        <pt x="189" y="629" on="1"/>
        <pt x="391" y="250" on="1"/>
        <pt x="395" y="250" on="1"/>
        <pt x="395" y="622" on="1"/>
        <pt x="395" y="643" on="0"/>
        <pt x="416" y="643" on="1"/>
        <pt x="499" y="643" on="1"/>
        <pt x="520" y="643" on="0"/>
        <pt x="520" y="622" on="1"/>
        <pt x="520" y="21" on="1"/>
        <pt x="520" y="0" on="0"/>
        <pt x="499" y="0" on="1"/>
        <pt x="426" y="0" on="1"/>
        <pt x="404" y="0" on="0"/>
        <pt x="394" y="20" on="1"/>
        <pt x="194" y="392" on="1"/>
        <pt x="190" y="392" on="1"/>
        <pt x="190" y="21" on="1"/>
        <pt x="190" y="0" on="0"/>
      </contour>
      <contour>
        <pt x="269" y="707" on="1"/>
        <pt x="255" y="707" on="0"/>
        <pt x="247" y="718" on="1"/>
        <pt x="184" y="823" on="1"/>
        <pt x="177" y="836" on="0"/>
        <pt x="192" y="836" on="1"/>
        <pt x="251" y="836" on="1"/>
        <pt x="264" y="836" on="0"/>
        <pt x="269" y="824" on="1"/>
        <pt x="301" y="758" on="1"/>
        <pt x="334" y="824" on="1"/>
        <pt x="338" y="836" on="0"/>
        <pt x="351" y="836" on="1"/>
        <pt x="411" y="836" on="1"/>
        <pt x="425" y="836" on="0"/>
        <pt x="418" y="823" on="1"/>
        <pt x="356" y="718" on="1"/>
        <pt x="348" y="707" on="0"/>
        <pt x="334" y="707" on="1"/>
      </contour>
    </TTGlyph>
    <TTGlyph name="Ntilde" xMin="65" yMin="0" xMax="520" yMax="833">
      <contour>
        <pt x="245" y="702" on="1"/>
        <pt x="174" y="702" on="0"/>
        <pt x="174" y="778" on="1"/>
        <pt x="174" y="817" on="1"/>
        <pt x="174" y="828" on="0"/>
        <pt x="184" y="828" on="1"/>
        <pt x="223" y="828" on="1"/>
        <pt x="230" y="828" on="0"/>
        <pt x="234" y="824" on="0"/>
        <pt x="234" y="817" on="1"/>
        <pt x="234" y="805" on="1"/>
        <pt x="234" y="783" on="0"/>
        <pt x="240" y="769" on="0"/>
        <pt x="256" y="769" on="0"/>
        <pt x="282" y="801" on="1"/>
        <pt x="306" y="833" on="0"/>
        <pt x="342" y="833" on="1"/>
        <pt x="414" y="833" on="0"/>
        <pt x="414" y="756" on="1"/>
        <pt x="414" y="719" on="1"/>
        <pt x="414" y="706" on="0"/>
        <pt x="403" y="706" on="1"/>
        <pt x="364" y="706" on="1"/>
        <pt x="353" y="706" on="0"/>
        <pt x="353" y="719" on="1"/>
        <pt x="353" y="729" on="1"/>
        <pt x="353" y="751" on="0"/>
        <pt x="347" y="765" on="0"/>
        <pt x="330" y="765" on="0"/>
        <pt x="308" y="738" on="1"/>
        <pt x="283" y="702" on="0"/>
      </contour>
      <contour>
        <pt x="169" y="0" on="1"/>
        <pt x="86" y="0" on="1"/>
        <pt x="65" y="0" on="0"/>
        <pt x="65" y="21" on="1"/>
        <pt x="65" y="622" on="1"/>
        <pt x="65" y="643" on="0"/>
        <pt x="86" y="643" on="1"/>
        <pt x="161" y="643" on="1"/>
        <pt x="182" y="643" on="0"/>
        <pt x="189" y="629" on="1"/>
        <pt x="391" y="250" on="1"/>
        <pt x="395" y="250" on="1"/>
        <pt x="395" y="622" on="1"/>
        <pt x="395" y="643" on="0"/>
        <pt x="416" y="643" on="1"/>
        <pt x="499" y="643" on="1"/>
        <pt x="520" y="643" on="0"/>
        <pt x="520" y="622" on="1"/>
        <pt x="520" y="21" on="1"/>
        <pt x="520" y="0" on="0"/>
        <pt x="499" y="0" on="1"/>
        <pt x="426" y="0" on="1"/>
        <pt x="404" y="0" on="0"/>
        <pt x="394" y="20" on="1"/>
        <pt x="194" y="392" on="1"/>
        <pt x="190" y="392" on="1"/>
        <pt x="190" y="21" on="1"/>
        <pt x="190" y="0" on="0"/>
      </contour>
    </TTGlyph>
    <TTGlyph name="O" xMin="55" yMin="0" xMax="497" yMax="643">
      <contour>
        <pt x="240" y="110" on="1"/>
        <pt x="311" y="110" on="1"/>
        <pt x="343" y="110" on="0"/>
        <pt x="370" y="137" on="0"/>
        <pt x="370" y="169" on="1"/>
        <pt x="370" y="474" on="1"/>
        <pt x="370" y="506" on="0"/>
        <pt x="343" y="533" on="0"/>
        <pt x="311" y="533" on="1"/>
        <pt x="240" y="533" on="1"/>
        <pt x="208" y="533" on="0"/>
        <pt x="182" y="506" on="0"/>
        <pt x="182" y="474" on="1"/>
        <pt x="182" y="169" on="1"/>
        <pt x="182" y="137" on="0"/>
        <pt x="208" y="110" on="0"/>
      </contour>
      <contour>
        <pt x="332" y="0" on="1"/>
        <pt x="220" y="0" on="1"/>
        <pt x="141" y="0" on="0"/>
        <pt x="55" y="84" on="0"/>
        <pt x="55" y="163" on="1"/>
        <pt x="55" y="480" on="1"/>
        <pt x="55" y="559" on="0"/>
        <pt x="141" y="643" on="0"/>
        <pt x="220" y="643" on="1"/>
        <pt x="332" y="643" on="1"/>
        <pt x="411" y="643" on="0"/>
        <pt x="497" y="559" on="0"/>
        <pt x="497" y="480" on="1"/>
        <pt x="497" y="163" on="1"/>
        <pt x="497" y="84" on="0"/>
        <pt x="411" y="0" on="0"/>
      </contour>
    </TTGlyph>
    <TTGlyph name="OE" xMin="63" yMin="0" xMax="726" yMax="643">
      <contour>
        <pt x="63" y="163" on="1"/>
        <pt x="63" y="480" on="1"/>
        <pt x="63" y="559" on="0"/>
        <pt x="149" y="643" on="0"/>
        <pt x="228" y="643" on="1"/>
        <pt x="705" y="643" on="1"/>
        <pt x="726" y="643" on="0"/>
        <pt x="726" y="622" on="1"/>
        <pt x="726" y="554" on="1"/>
        <pt x="726" y="533" on="0"/>
        <pt x="705" y="533" on="1"/>
        <pt x="504" y="533" on="1"/>
        <pt x="493" y="533" on="0"/>
        <pt x="493" y="522" on="1"/>
        <pt x="493" y="392" on="1"/>
        <pt x="493" y="381" on="0"/>
        <pt x="504" y="381" on="1"/>
        <pt x="668" y="381" on="1"/>
        <pt x="688" y="381" on="0"/>
        <pt x="688" y="360" on="1"/>
        <pt x="688" y="292" on="1"/>
        <pt x="688" y="271" on="0"/>
        <pt x="668" y="271" on="1"/>
        <pt x="504" y="271" on="1"/>
        <pt x="493" y="271" on="0"/>
        <pt x="493" y="260" on="1"/>
        <pt x="493" y="121" on="1"/>
        <pt x="493" y="110" on="0"/>
        <pt x="504" y="110" on="1"/>
        <pt x="705" y="110" on="1"/>
        <pt x="726" y="110" on="0"/>
        <pt x="726" y="89" on="1"/>
        <pt x="726" y="21" on="1"/>
        <pt x="726" y="0" on="0"/>
        <pt x="705" y="0" on="1"/>
        <pt x="228" y="0" on="1"/>
        <pt x="149" y="0" on="0"/>
        <pt x="63" y="84" on="0"/>
      </contour>
      <contour>
        <pt x="249" y="110" on="1"/>
        <pt x="355" y="110" on="1"/>
        <pt x="367" y="110" on="0"/>
        <pt x="367" y="121" on="1"/>
        <pt x="367" y="522" on="1"/>
        <pt x="367" y="533" on="0"/>
        <pt x="355" y="533" on="1"/>
        <pt x="249" y="533" on="1"/>
        <pt x="217" y="533" on="0"/>
        <pt x="191" y="506" on="0"/>
        <pt x="191" y="474" on="1"/>
        <pt x="191" y="169" on="1"/>
        <pt x="191" y="137" on="0"/>
        <pt x="217" y="110" on="0"/>
      </contour>
    </TTGlyph>
    <TTGlyph name="Oacute" xMin="55" yMin="0" xMax="497" yMax="836">
      <contour>
        <pt x="298" y="836" on="1"/>
        <pt x="397" y="836" on="1"/>
        <pt x="407" y="836" on="0"/>
        <pt x="413" y="824" on="0"/>
        <pt x="406" y="816" on="1"/>
        <pt x="325" y="720" on="1"/>
        <pt x="315" y="707" on="0"/>
        <pt x="299" y="707" on="1"/>
        <pt x="233" y="707" on="1"/>
        <pt x="213" y="707" on="0"/>
        <pt x="223" y="728" on="1"/>
        <pt x="268" y="817" on="1"/>
        <pt x="278" y="836" on="0"/>
      </contour>
      <contour>
        <pt x="240" y="110" on="1"/>
        <pt x="311" y="110" on="1"/>
        <pt x="343" y="110" on="0"/>
        <pt x="370" y="137" on="0"/>
        <pt x="370" y="169" on="1"/>
        <pt x="370" y="474" on="1"/>
        <pt x="370" y="506" on="0"/>
        <pt x="343" y="533" on="0"/>
        <pt x="311" y="533" on="1"/>
        <pt x="240" y="533" on="1"/>
        <pt x="208" y="533" on="0"/>
        <pt x="182" y="506" on="0"/>
        <pt x="182" y="474" on="1"/>
        <pt x="182" y="169" on="1"/>
        <pt x="182" y="137" on="0"/>
        <pt x="208" y="110" on="0"/>
      </contour>
      <contour>
        <pt x="332" y="0" on="1"/>
        <pt x="220" y="0" on="1"/>
        <pt x="141" y="0" on="0"/>
        <pt x="55" y="84" on="0"/>
        <pt x="55" y="163" on="1"/>
        <pt x="55" y="480" on="1"/>
        <pt x="55" y="559" on="0"/>
        <pt x="141" y="643" on="0"/>
        <pt x="220" y="643" on="1"/>
        <pt x="332" y="643" on="1"/>
        <pt x="411" y="643" on="0"/>
        <pt x="497" y="559" on="0"/>
        <pt x="497" y="480" on="1"/>
        <pt x="497" y="163" on="1"/>
        <pt x="497" y="84" on="0"/>
        <pt x="411" y="0" on="0"/>
      </contour>
    </TTGlyph>
    <TTGlyph name="Obreve" xMin="55" yMin="0" xMax="497" yMax="836">
      <contour>
        <pt x="161" y="823" on="1"/>
        <pt x="161" y="836" on="0"/>
        <pt x="175" y="836" on="1"/>
        <pt x="225" y="836" on="1"/>
        <pt x="239" y="836" on="0"/>
        <pt x="239" y="823" on="1"/>
        <pt x="239" y="814" on="1"/>
        <pt x="239" y="790" on="0"/>
        <pt x="255" y="771" on="0"/>
        <pt x="273" y="771" on="1"/>
        <pt x="280" y="771" on="1"/>
        <pt x="315" y="771" on="0"/>
        <pt x="315" y="814" on="1"/>
        <pt x="315" y="823" on="1"/>
        <pt x="315" y="836" on="0"/>
        <pt x="329" y="836" on="1"/>
        <pt x="378" y="836" on="1"/>
        <pt x="392" y="836" on="0"/>
        <pt x="392" y="823" on="1"/>
        <pt x="392" y="812" on="1"/>
        <pt x="392" y="761" on="0"/>
        <pt x="340" y="707" on="0"/>
        <pt x="294" y="707" on="1"/>
        <pt x="259" y="707" on="1"/>
        <pt x="213" y="707" on="0"/>
        <pt x="161" y="761" on="0"/>
        <pt x="161" y="812" on="1"/>
      </contour>
      <contour>
        <pt x="240" y="110" on="1"/>
        <pt x="311" y="110" on="1"/>
        <pt x="343" y="110" on="0"/>
        <pt x="370" y="137" on="0"/>
        <pt x="370" y="169" on="1"/>
        <pt x="370" y="474" on="1"/>
        <pt x="370" y="506" on="0"/>
        <pt x="343" y="533" on="0"/>
        <pt x="311" y="533" on="1"/>
        <pt x="240" y="533" on="1"/>
        <pt x="208" y="533" on="0"/>
        <pt x="182" y="506" on="0"/>
        <pt x="182" y="474" on="1"/>
        <pt x="182" y="169" on="1"/>
        <pt x="182" y="137" on="0"/>
        <pt x="208" y="110" on="0"/>
      </contour>
      <contour>
        <pt x="332" y="0" on="1"/>
        <pt x="220" y="0" on="1"/>
        <pt x="141" y="0" on="0"/>
        <pt x="55" y="84" on="0"/>
        <pt x="55" y="163" on="1"/>
        <pt x="55" y="480" on="1"/>
        <pt x="55" y="559" on="0"/>
        <pt x="141" y="643" on="0"/>
        <pt x="220" y="643" on="1"/>
        <pt x="332" y="643" on="1"/>
        <pt x="411" y="643" on="0"/>
        <pt x="497" y="559" on="0"/>
        <pt x="497" y="480" on="1"/>
        <pt x="497" y="163" on="1"/>
        <pt x="497" y="84" on="0"/>
        <pt x="411" y="0" on="0"/>
      </contour>
    </TTGlyph>
    <TTGlyph name="Ocircumflex" xMin="55" yMin="0" xMax="497" yMax="836">
      <contour>
        <pt x="389" y="707" on="1"/>
        <pt x="329" y="707" on="1"/>
        <pt x="316" y="707" on="0"/>
        <pt x="312" y="719" on="1"/>
        <pt x="279" y="785" on="1"/>
        <pt x="247" y="719" on="1"/>
        <pt x="242" y="707" on="0"/>
        <pt x="229" y="707" on="1"/>
        <pt x="170" y="707" on="1"/>
        <pt x="155" y="707" on="0"/>
        <pt x="162" y="720" on="1"/>
        <pt x="225" y="825" on="1"/>
        <pt x="233" y="836" on="0"/>
        <pt x="247" y="836" on="1"/>
        <pt x="312" y="836" on="1"/>
        <pt x="326" y="836" on="0"/>
        <pt x="334" y="825" on="1"/>
        <pt x="396" y="720" on="1"/>
        <pt x="403" y="707" on="0"/>
      </contour>
      <contour>
        <pt x="240" y="110" on="1"/>
        <pt x="311" y="110" on="1"/>
        <pt x="343" y="110" on="0"/>
        <pt x="370" y="137" on="0"/>
        <pt x="370" y="169" on="1"/>
        <pt x="370" y="474" on="1"/>
        <pt x="370" y="506" on="0"/>
        <pt x="343" y="533" on="0"/>
        <pt x="311" y="533" on="1"/>
        <pt x="240" y="533" on="1"/>
        <pt x="208" y="533" on="0"/>
        <pt x="182" y="506" on="0"/>
        <pt x="182" y="474" on="1"/>
        <pt x="182" y="169" on="1"/>
        <pt x="182" y="137" on="0"/>
        <pt x="208" y="110" on="0"/>
      </contour>
      <contour>
        <pt x="332" y="0" on="1"/>
        <pt x="220" y="0" on="1"/>
        <pt x="141" y="0" on="0"/>
        <pt x="55" y="84" on="0"/>
        <pt x="55" y="163" on="1"/>
        <pt x="55" y="480" on="1"/>
        <pt x="55" y="559" on="0"/>
        <pt x="141" y="643" on="0"/>
        <pt x="220" y="643" on="1"/>
        <pt x="332" y="643" on="1"/>
        <pt x="411" y="643" on="0"/>
        <pt x="497" y="559" on="0"/>
        <pt x="497" y="480" on="1"/>
        <pt x="497" y="163" on="1"/>
        <pt x="497" y="84" on="0"/>
        <pt x="411" y="0" on="0"/>
      </contour>
    </TTGlyph>
    <TTGlyph name="Odieresis" xMin="55" yMin="0" xMax="497" yMax="836">
      <contour>
        <pt x="122" y="728" on="1"/>
        <pt x="122" y="816" on="1"/>
        <pt x="122" y="836" on="0"/>
        <pt x="141" y="836" on="1"/>
        <pt x="221" y="836" on="1"/>
        <pt x="240" y="836" on="0"/>
        <pt x="240" y="817" on="1"/>
        <pt x="240" y="728" on="1"/>
        <pt x="240" y="707" on="0"/>
        <pt x="221" y="707" on="1"/>
        <pt x="141" y="707" on="1"/>
        <pt x="122" y="707" on="0"/>
      </contour>
      <contour>
        <pt x="312" y="728" on="1"/>
        <pt x="312" y="816" on="1"/>
        <pt x="312" y="836" on="0"/>
        <pt x="331" y="836" on="1"/>
        <pt x="411" y="836" on="1"/>
        <pt x="430" y="836" on="0"/>
        <pt x="430" y="817" on="1"/>
        <pt x="430" y="728" on="1"/>
        <pt x="430" y="707" on="0"/>
        <pt x="411" y="707" on="1"/>
        <pt x="331" y="707" on="1"/>
        <pt x="312" y="707" on="0"/>
      </contour>
      <contour>
        <pt x="240" y="110" on="1"/>
        <pt x="311" y="110" on="1"/>
        <pt x="343" y="110" on="0"/>
        <pt x="370" y="137" on="0"/>
        <pt x="370" y="169" on="1"/>
        <pt x="370" y="474" on="1"/>
        <pt x="370" y="506" on="0"/>
        <pt x="343" y="533" on="0"/>
        <pt x="311" y="533" on="1"/>
        <pt x="240" y="533" on="1"/>
        <pt x="208" y="533" on="0"/>
        <pt x="182" y="506" on="0"/>
        <pt x="182" y="474" on="1"/>
        <pt x="182" y="169" on="1"/>
        <pt x="182" y="137" on="0"/>
        <pt x="208" y="110" on="0"/>
      </contour>
      <contour>
        <pt x="332" y="0" on="1"/>
        <pt x="220" y="0" on="1"/>
        <pt x="141" y="0" on="0"/>
        <pt x="55" y="84" on="0"/>
        <pt x="55" y="163" on="1"/>
        <pt x="55" y="480" on="1"/>
        <pt x="55" y="559" on="0"/>
        <pt x="141" y="643" on="0"/>
        <pt x="220" y="643" on="1"/>
        <pt x="332" y="643" on="1"/>
        <pt x="411" y="643" on="0"/>
        <pt x="497" y="559" on="0"/>
        <pt x="497" y="480" on="1"/>
        <pt x="497" y="163" on="1"/>
        <pt x="497" y="84" on="0"/>
        <pt x="411" y="0" on="0"/>
      </contour>
    </TTGlyph>
    <TTGlyph name="Ograve" xMin="55" yMin="0" xMax="497" yMax="836">
      <contour>
        <pt x="308" y="707" on="1"/>
        <pt x="242" y="707" on="1"/>
        <pt x="226" y="707" on="0"/>
        <pt x="216" y="720" on="1"/>
        <pt x="135" y="816" on="1"/>
        <pt x="128" y="824" on="0"/>
        <pt x="134" y="836" on="0"/>
        <pt x="144" y="836" on="1"/>
        <pt x="243" y="836" on="1"/>
        <pt x="264" y="836" on="0"/>
        <pt x="273" y="817" on="1"/>
        <pt x="318" y="728" on="1"/>
        <pt x="328" y="707" on="0"/>
      </contour>
      <contour>
        <pt x="240" y="110" on="1"/>
        <pt x="311" y="110" on="1"/>
        <pt x="343" y="110" on="0"/>
        <pt x="370" y="137" on="0"/>
        <pt x="370" y="169" on="1"/>
        <pt x="370" y="474" on="1"/>
        <pt x="370" y="506" on="0"/>
        <pt x="343" y="533" on="0"/>
        <pt x="311" y="533" on="1"/>
        <pt x="240" y="533" on="1"/>
        <pt x="208" y="533" on="0"/>
        <pt x="182" y="506" on="0"/>
        <pt x="182" y="474" on="1"/>
        <pt x="182" y="169" on="1"/>
        <pt x="182" y="137" on="0"/>
        <pt x="208" y="110" on="0"/>
      </contour>
      <contour>
        <pt x="332" y="0" on="1"/>
        <pt x="220" y="0" on="1"/>
        <pt x="141" y="0" on="0"/>
        <pt x="55" y="84" on="0"/>
        <pt x="55" y="163" on="1"/>
        <pt x="55" y="480" on="1"/>
        <pt x="55" y="559" on="0"/>
        <pt x="141" y="643" on="0"/>
        <pt x="220" y="643" on="1"/>
        <pt x="332" y="643" on="1"/>
        <pt x="411" y="643" on="0"/>
        <pt x="497" y="559" on="0"/>
        <pt x="497" y="480" on="1"/>
        <pt x="497" y="163" on="1"/>
        <pt x="497" y="84" on="0"/>
        <pt x="411" y="0" on="0"/>
      </contour>
    </TTGlyph>
    <TTGlyph name="Ohungarumlaut" xMin="55" yMin="0" xMax="497" yMax="836">
      <contour>
        <pt x="236" y="836" on="1"/>
        <pt x="301" y="836" on="1"/>
        <pt x="324" y="836" on="0"/>
        <pt x="311" y="816" on="1"/>
        <pt x="239" y="720" on="1"/>
        <pt x="229" y="707" on="0"/>
        <pt x="214" y="707" on="1"/>
        <pt x="172" y="707" on="1"/>
        <pt x="152" y="707" on="0"/>
        <pt x="162" y="728" on="1"/>
        <pt x="206" y="817" on="1"/>
        <pt x="216" y="836" on="0"/>
      </contour>
      <contour>
        <pt x="389" y="836" on="1"/>
        <pt x="453" y="836" on="1"/>
        <pt x="477" y="836" on="0"/>
        <pt x="463" y="816" on="1"/>
        <pt x="392" y="720" on="1"/>
        <pt x="381" y="707" on="0"/>
        <pt x="366" y="707" on="1"/>
        <pt x="325" y="707" on="1"/>
        <pt x="304" y="707" on="0"/>
        <pt x="315" y="728" on="1"/>
        <pt x="359" y="817" on="1"/>
        <pt x="368" y="836" on="0"/>
      </contour>
      <contour>
        <pt x="240" y="110" on="1"/>
        <pt x="311" y="110" on="1"/>
        <pt x="343" y="110" on="0"/>
        <pt x="370" y="137" on="0"/>
        <pt x="370" y="169" on="1"/>
        <pt x="370" y="474" on="1"/>
        <pt x="370" y="506" on="0"/>
        <pt x="343" y="533" on="0"/>
        <pt x="311" y="533" on="1"/>
        <pt x="240" y="533" on="1"/>
        <pt x="208" y="533" on="0"/>
        <pt x="182" y="506" on="0"/>
        <pt x="182" y="474" on="1"/>
        <pt x="182" y="169" on="1"/>
        <pt x="182" y="137" on="0"/>
        <pt x="208" y="110" on="0"/>
      </contour>
      <contour>
        <pt x="332" y="0" on="1"/>
        <pt x="220" y="0" on="1"/>
        <pt x="141" y="0" on="0"/>
        <pt x="55" y="84" on="0"/>
        <pt x="55" y="163" on="1"/>
        <pt x="55" y="480" on="1"/>
        <pt x="55" y="559" on="0"/>
        <pt x="141" y="643" on="0"/>
        <pt x="220" y="643" on="1"/>
        <pt x="332" y="643" on="1"/>
        <pt x="411" y="643" on="0"/>
        <pt x="497" y="559" on="0"/>
        <pt x="497" y="480" on="1"/>
        <pt x="497" y="163" on="1"/>
        <pt x="497" y="84" on="0"/>
        <pt x="411" y="0" on="0"/>
      </contour>
    </TTGlyph>
    <TTGlyph name="Omacron" xMin="55" yMin="0" xMax="497" yMax="819">
      <contour>
        <pt x="375" y="732" on="1"/>
        <pt x="177" y="732" on="1"/>
        <pt x="157" y="732" on="0"/>
        <pt x="157" y="753" on="1"/>
        <pt x="157" y="798" on="1"/>
        <pt x="157" y="819" on="0"/>
        <pt x="177" y="819" on="1"/>
        <pt x="375" y="819" on="1"/>
        <pt x="395" y="819" on="0"/>
        <pt x="395" y="798" on="1"/>
        <pt x="395" y="753" on="1"/>
        <pt x="395" y="732" on="0"/>
      </contour>
      <contour>
        <pt x="240" y="110" on="1"/>
        <pt x="311" y="110" on="1"/>
        <pt x="343" y="110" on="0"/>
        <pt x="370" y="137" on="0"/>
        <pt x="370" y="169" on="1"/>
        <pt x="370" y="474" on="1"/>
        <pt x="370" y="506" on="0"/>
        <pt x="343" y="533" on="0"/>
        <pt x="311" y="533" on="1"/>
        <pt x="240" y="533" on="1"/>
        <pt x="208" y="533" on="0"/>
        <pt x="182" y="506" on="0"/>
        <pt x="182" y="474" on="1"/>
        <pt x="182" y="169" on="1"/>
        <pt x="182" y="137" on="0"/>
        <pt x="208" y="110" on="0"/>
      </contour>
      <contour>
        <pt x="332" y="0" on="1"/>
        <pt x="220" y="0" on="1"/>
        <pt x="141" y="0" on="0"/>
        <pt x="55" y="84" on="0"/>
        <pt x="55" y="163" on="1"/>
        <pt x="55" y="480" on="1"/>
        <pt x="55" y="559" on="0"/>
        <pt x="141" y="643" on="0"/>
        <pt x="220" y="643" on="1"/>
        <pt x="332" y="643" on="1"/>
        <pt x="411" y="643" on="0"/>
        <pt x="497" y="559" on="0"/>
        <pt x="497" y="480" on="1"/>
        <pt x="497" y="163" on="1"/>
        <pt x="497" y="84" on="0"/>
        <pt x="411" y="0" on="0"/>
      </contour>
    </TTGlyph>
    <TTGlyph name="Oslash" xMin="51" yMin="-1" xMax="531" yMax="643">
      <contour>
        <pt x="515" y="480" on="1"/>
        <pt x="515" y="163" on="1"/>
        <pt x="515" y="85" on="0"/>
        <pt x="429" y="0" on="0"/>
        <pt x="351" y="0" on="1"/>
        <pt x="230" y="0" on="1"/>
        <pt x="167" y="0" on="0"/>
        <pt x="125" y="28" on="1"/>
        <pt x="108" y="4" on="1"/>
        <pt x="96" y="-12" on="0"/>
        <pt x="77" y="-1" on="1"/>
        <pt x="56" y="15" on="1"/>
        <pt x="39" y="27" on="0"/>
        <pt x="51" y="45" on="1"/>
        <pt x="79" y="85" on="1"/>
        <pt x="65" y="119" on="0"/>
        <pt x="65" y="163" on="1"/>
        <pt x="65" y="480" on="1"/>
        <pt x="65" y="559" on="0"/>
        <pt x="151" y="643" on="0"/>
        <pt x="230" y="643" on="1"/>
        <pt x="351" y="643" on="1"/>
        <pt x="415" y="643" on="0"/>
        <pt x="456" y="614" on="1"/>
        <pt x="473" y="638" on="1"/>
        <pt x="486" y="655" on="0"/>
        <pt x="504" y="643" on="1"/>
        <pt x="525" y="628" on="1"/>
        <pt x="542" y="616" on="0"/>
        <pt x="531" y="598" on="1"/>
        <pt x="501" y="556" on="1"/>
        <pt x="515" y="523" on="0"/>
      </contour>
      <contour>
        <pt x="192" y="474" on="1"/>
        <pt x="192" y="243" on="1"/>
        <pt x="382" y="510" on="1"/>
        <pt x="370" y="533" on="0"/>
        <pt x="330" y="533" on="1"/>
        <pt x="250" y="533" on="1"/>
        <pt x="218" y="533" on="0"/>
        <pt x="192" y="506" on="0"/>
      </contour>
      <contour>
        <pt x="388" y="169" on="1"/>
        <pt x="388" y="397" on="1"/>
        <pt x="199" y="132" on="1"/>
        <pt x="211" y="110" on="0"/>
        <pt x="250" y="110" on="1"/>
        <pt x="330" y="110" on="1"/>
        <pt x="362" y="110" on="0"/>
        <pt x="388" y="137" on="0"/>
      </contour>
    </TTGlyph>
    <TTGlyph name="Oslashacute" xMin="51" yMin="-1" xMax="531" yMax="836">
      <contour>
        <pt x="515" y="480" on="1"/>
        <pt x="515" y="163" on="1"/>
        <pt x="515" y="85" on="0"/>
        <pt x="429" y="0" on="0"/>
        <pt x="351" y="0" on="1"/>
        <pt x="230" y="0" on="1"/>
        <pt x="167" y="0" on="0"/>
        <pt x="125" y="28" on="1"/>
        <pt x="108" y="4" on="1"/>
        <pt x="96" y="-12" on="0"/>
        <pt x="77" y="-1" on="1"/>
        <pt x="56" y="15" on="1"/>
        <pt x="39" y="27" on="0"/>
        <pt x="51" y="45" on="1"/>
        <pt x="79" y="85" on="1"/>
        <pt x="65" y="119" on="0"/>
        <pt x="65" y="163" on="1"/>
        <pt x="65" y="480" on="1"/>
        <pt x="65" y="559" on="0"/>
        <pt x="151" y="643" on="0"/>
        <pt x="230" y="643" on="1"/>
        <pt x="351" y="643" on="1"/>
        <pt x="415" y="643" on="0"/>
        <pt x="456" y="614" on="1"/>
        <pt x="473" y="638" on="1"/>
        <pt x="486" y="655" on="0"/>
        <pt x="504" y="643" on="1"/>
        <pt x="525" y="628" on="1"/>
        <pt x="542" y="616" on="0"/>
        <pt x="531" y="598" on="1"/>
        <pt x="501" y="556" on="1"/>
        <pt x="515" y="523" on="0"/>
      </contour>
      <contour>
        <pt x="192" y="474" on="1"/>
        <pt x="192" y="243" on="1"/>
        <pt x="382" y="510" on="1"/>
        <pt x="370" y="533" on="0"/>
        <pt x="330" y="533" on="1"/>
        <pt x="250" y="533" on="1"/>
        <pt x="218" y="533" on="0"/>
        <pt x="192" y="506" on="0"/>
      </contour>
      <contour>
        <pt x="388" y="169" on="1"/>
        <pt x="388" y="397" on="1"/>
        <pt x="199" y="132" on="1"/>
        <pt x="211" y="110" on="0"/>
        <pt x="250" y="110" on="1"/>
        <pt x="330" y="110" on="1"/>
        <pt x="362" y="110" on="0"/>
        <pt x="388" y="137" on="0"/>
      </contour>
      <contour>
        <pt x="313" y="707" on="1"/>
        <pt x="248" y="707" on="1"/>
        <pt x="227" y="707" on="0"/>
        <pt x="238" y="728" on="1"/>
        <pt x="282" y="817" on="1"/>
        <pt x="293" y="836" on="0"/>
        <pt x="312" y="836" on="1"/>
        <pt x="411" y="836" on="1"/>
        <pt x="421" y="836" on="0"/>
        <pt x="427" y="824" on="0"/>
        <pt x="421" y="816" on="1"/>
        <pt x="340" y="720" on="1"/>
        <pt x="329" y="707" on="0"/>
      </contour>
    </TTGlyph>
    <TTGlyph name="Otilde" xMin="55" yMin="0" xMax="497" yMax="833">
      <contour>
        <pt x="228" y="702" on="1"/>
        <pt x="156" y="702" on="0"/>
        <pt x="156" y="778" on="1"/>
        <pt x="156" y="817" on="1"/>
        <pt x="156" y="828" on="0"/>
        <pt x="167" y="828" on="1"/>
        <pt x="206" y="828" on="1"/>
        <pt x="213" y="828" on="0"/>
        <pt x="217" y="824" on="0"/>
        <pt x="217" y="817" on="1"/>
        <pt x="217" y="805" on="1"/>
        <pt x="217" y="783" on="0"/>
        <pt x="223" y="769" on="0"/>
        <pt x="239" y="769" on="0"/>
        <pt x="265" y="801" on="1"/>
        <pt x="289" y="833" on="0"/>
        <pt x="325" y="833" on="1"/>
        <pt x="396" y="833" on="0"/>
        <pt x="396" y="756" on="1"/>
        <pt x="396" y="719" on="1"/>
        <pt x="396" y="706" on="0"/>
        <pt x="386" y="706" on="1"/>
        <pt x="347" y="706" on="1"/>
        <pt x="336" y="706" on="0"/>
        <pt x="336" y="719" on="1"/>
        <pt x="336" y="729" on="1"/>
        <pt x="336" y="751" on="0"/>
        <pt x="330" y="765" on="0"/>
        <pt x="313" y="765" on="0"/>
        <pt x="291" y="738" on="1"/>
        <pt x="266" y="702" on="0"/>
      </contour>
      <contour>
        <pt x="240" y="110" on="1"/>
        <pt x="311" y="110" on="1"/>
        <pt x="343" y="110" on="0"/>
        <pt x="370" y="137" on="0"/>
        <pt x="370" y="169" on="1"/>
        <pt x="370" y="474" on="1"/>
        <pt x="370" y="506" on="0"/>
        <pt x="343" y="533" on="0"/>
        <pt x="311" y="533" on="1"/>
        <pt x="240" y="533" on="1"/>
        <pt x="208" y="533" on="0"/>
        <pt x="182" y="506" on="0"/>
        <pt x="182" y="474" on="1"/>
        <pt x="182" y="169" on="1"/>
        <pt x="182" y="137" on="0"/>
        <pt x="208" y="110" on="0"/>
      </contour>
      <contour>
        <pt x="332" y="0" on="1"/>
        <pt x="220" y="0" on="1"/>
        <pt x="141" y="0" on="0"/>
        <pt x="55" y="84" on="0"/>
        <pt x="55" y="163" on="1"/>
        <pt x="55" y="480" on="1"/>
        <pt x="55" y="559" on="0"/>
        <pt x="141" y="643" on="0"/>
        <pt x="220" y="643" on="1"/>
        <pt x="332" y="643" on="1"/>
        <pt x="411" y="643" on="0"/>
        <pt x="497" y="559" on="0"/>
        <pt x="497" y="480" on="1"/>
        <pt x="497" y="163" on="1"/>
        <pt x="497" y="84" on="0"/>
        <pt x="411" y="0" on="0"/>
      </contour>
    </TTGlyph>
    <TTGlyph name="P" xMin="65" yMin="0" xMax="494" yMax="643">
      <contour>
        <pt x="171" y="0" on="1"/>
        <pt x="86" y="0" on="1"/>
        <pt x="65" y="0" on="0"/>
        <pt x="65" y="21" on="1"/>
        <pt x="65" y="622" on="1"/>
        <pt x="65" y="643" on="0"/>
        <pt x="86" y="643" on="1"/>
        <pt x="330" y="643" on="1"/>
        <pt x="408" y="643" on="0"/>
        <pt x="494" y="558" on="0"/>
        <pt x="494" y="480" on="1"/>
        <pt x="494" y="384" on="1"/>
        <pt x="494" y="306" on="0"/>
        <pt x="408" y="221" on="0"/>
        <pt x="330" y="221" on="1"/>
        <pt x="204" y="221" on="1"/>
        <pt x="192" y="221" on="0"/>
        <pt x="192" y="210" on="1"/>
        <pt x="192" y="21" on="1"/>
        <pt x="192" y="0" on="0"/>
      </contour>
      <contour>
        <pt x="203" y="332" on="1"/>
        <pt x="309" y="332" on="1"/>
        <pt x="341" y="332" on="0"/>
        <pt x="367" y="359" on="0"/>
        <pt x="367" y="390" on="1"/>
        <pt x="367" y="474" on="1"/>
        <pt x="367" y="506" on="0"/>
        <pt x="341" y="533" on="0"/>
        <pt x="309" y="533" on="1"/>
        <pt x="203" y="533" on="1"/>
        <pt x="192" y="533" on="0"/>
        <pt x="192" y="522" on="1"/>
        <pt x="192" y="343" on="1"/>
        <pt x="192" y="332" on="0"/>
      </contour>
    </TTGlyph>
    <TTGlyph name="Pi" xMin="32" yMin="0" xMax="632" yMax="643">
      <contour>
        <pt x="240" y="0" on="1"/>
        <pt x="155" y="0" on="1"/>
        <pt x="134" y="0" on="0"/>
        <pt x="134" y="21" on="1"/>
        <pt x="134" y="524" on="1"/>
        <pt x="134" y="532" on="0"/>
        <pt x="123" y="532" on="1"/>
        <pt x="53" y="532" on="1"/>
        <pt x="32" y="532" on="0"/>
        <pt x="32" y="554" on="1"/>
        <pt x="32" y="622" on="1"/>
        <pt x="32" y="643" on="0"/>
        <pt x="53" y="643" on="1"/>
        <pt x="611" y="643" on="1"/>
        <pt x="632" y="643" on="0"/>
        <pt x="632" y="622" on="1"/>
        <pt x="632" y="554" on="1"/>
        <pt x="632" y="532" on="0"/>
        <pt x="611" y="532" on="1"/>
        <pt x="541" y="532" on="1"/>
        <pt x="529" y="532" on="0"/>
        <pt x="529" y="521" on="1"/>
        <pt x="529" y="21" on="1"/>
        <pt x="529" y="0" on="0"/>
        <pt x="508" y="0" on="1"/>
        <pt x="423" y="0" on="1"/>
        <pt x="402" y="0" on="0"/>
        <pt x="402" y="21" on="1"/>
        <pt x="402" y="521" on="1"/>
        <pt x="402" y="532" on="0"/>
        <pt x="391" y="532" on="1"/>
        <pt x="273" y="532" on="1"/>
        <pt x="261" y="532" on="0"/>
        <pt x="261" y="521" on="1"/>
        <pt x="261" y="21" on="1"/>
        <pt x="261" y="0" on="0"/>
      </contour>
    </TTGlyph>
    <TTGlyph name="Q" xMin="63" yMin="-133" xMax="505" yMax="643">
      <contour>
        <pt x="249" y="110" on="1"/>
        <pt x="320" y="110" on="1"/>
        <pt x="352" y="110" on="0"/>
        <pt x="379" y="137" on="0"/>
        <pt x="379" y="169" on="1"/>
        <pt x="379" y="474" on="1"/>
        <pt x="379" y="506" on="0"/>
        <pt x="352" y="533" on="0"/>
        <pt x="320" y="533" on="1"/>
        <pt x="249" y="533" on="1"/>
        <pt x="217" y="533" on="0"/>
        <pt x="191" y="506" on="0"/>
        <pt x="191" y="474" on="1"/>
        <pt x="191" y="169" on="1"/>
        <pt x="191" y="137" on="0"/>
        <pt x="217" y="110" on="0"/>
      </contour>
      <contour>
        <pt x="432" y="-133" on="1"/>
        <pt x="359" y="-133" on="1"/>
        <pt x="332" y="-133" on="0"/>
        <pt x="320" y="-112" on="1"/>
        <pt x="255" y="0" on="1"/>
        <pt x="228" y="0" on="1"/>
        <pt x="149" y="0" on="0"/>
        <pt x="63" y="84" on="0"/>
        <pt x="63" y="163" on="1"/>
        <pt x="63" y="480" on="1"/>
        <pt x="63" y="559" on="0"/>
        <pt x="149" y="643" on="0"/>
        <pt x="228" y="643" on="1"/>
        <pt x="340" y="643" on="1"/>
        <pt x="419" y="643" on="0"/>
        <pt x="505" y="559" on="0"/>
        <pt x="505" y="480" on="1"/>
        <pt x="505" y="163" on="1"/>
        <pt x="505" y="97" on="0"/>
        <pt x="442" y="15" on="0"/>
        <pt x="384" y="4" on="1"/>
        <pt x="448" y="-107" on="1"/>
        <pt x="453" y="-119" on="0"/>
        <pt x="443" y="-133" on="0"/>
      </contour>
    </TTGlyph>
    <TTGlyph name="R" xMin="65" yMin="0" xMax="508" yMax="643">
      <contour>
        <pt x="171" y="0" on="1"/>
        <pt x="86" y="0" on="1"/>
        <pt x="65" y="0" on="0"/>
        <pt x="65" y="21" on="1"/>
        <pt x="65" y="622" on="1"/>
        <pt x="65" y="643" on="0"/>
        <pt x="86" y="643" on="1"/>
        <pt x="324" y="643" on="1"/>
        <pt x="402" y="643" on="0"/>
        <pt x="490" y="557" on="0"/>
        <pt x="490" y="479" on="1"/>
        <pt x="490" y="401" on="1"/>
        <pt x="490" y="288" on="0"/>
        <pt x="401" y="251" on="1"/>
        <pt x="401" y="247" on="1"/>
        <pt x="508" y="24" on="1"/>
        <pt x="517" y="0" on="0"/>
        <pt x="491" y="0" on="1"/>
        <pt x="410" y="0" on="1"/>
        <pt x="392" y="0" on="0"/>
        <pt x="376" y="8" on="0"/>
        <pt x="371" y="21" on="1"/>
        <pt x="271" y="237" on="1"/>
        <pt x="204" y="237" on="1"/>
        <pt x="192" y="237" on="0"/>
        <pt x="192" y="226" on="1"/>
        <pt x="192" y="21" on="1"/>
        <pt x="192" y="0" on="0"/>
      </contour>
      <contour>
        <pt x="203" y="339" on="1"/>
        <pt x="301" y="339" on="1"/>
        <pt x="333" y="339" on="0"/>
        <pt x="363" y="366" on="0"/>
        <pt x="363" y="396" on="1"/>
        <pt x="363" y="474" on="1"/>
        <pt x="363" y="505" on="0"/>
        <pt x="333" y="533" on="0"/>
        <pt x="301" y="533" on="1"/>
        <pt x="203" y="533" on="1"/>
        <pt x="192" y="533" on="0"/>
        <pt x="192" y="522" on="1"/>
        <pt x="192" y="350" on="1"/>
        <pt x="192" y="339" on="0"/>
      </contour>
    </TTGlyph>
    <TTGlyph name="Racute" xMin="65" yMin="0" xMax="508" yMax="836">
      <contour>
        <pt x="286" y="836" on="1"/>
        <pt x="385" y="836" on="1"/>
        <pt x="395" y="836" on="0"/>
        <pt x="401" y="824" on="0"/>
        <pt x="395" y="816" on="1"/>
        <pt x="313" y="720" on="1"/>
        <pt x="303" y="707" on="0"/>
        <pt x="287" y="707" on="1"/>
        <pt x="222" y="707" on="1"/>
        <pt x="201" y="707" on="0"/>
        <pt x="211" y="728" on="1"/>
        <pt x="256" y="817" on="1"/>
        <pt x="266" y="836" on="0"/>
      </contour>
      <contour>
        <pt x="171" y="0" on="1"/>
        <pt x="86" y="0" on="1"/>
        <pt x="65" y="0" on="0"/>
        <pt x="65" y="21" on="1"/>
        <pt x="65" y="622" on="1"/>
        <pt x="65" y="643" on="0"/>
        <pt x="86" y="643" on="1"/>
        <pt x="324" y="643" on="1"/>
        <pt x="402" y="643" on="0"/>
        <pt x="490" y="557" on="0"/>
        <pt x="490" y="479" on="1"/>
        <pt x="490" y="401" on="1"/>
        <pt x="490" y="288" on="0"/>
        <pt x="401" y="251" on="1"/>
        <pt x="401" y="247" on="1"/>
        <pt x="508" y="24" on="1"/>
        <pt x="517" y="0" on="0"/>
        <pt x="491" y="0" on="1"/>
        <pt x="410" y="0" on="1"/>
        <pt x="392" y="0" on="0"/>
        <pt x="376" y="8" on="0"/>
        <pt x="371" y="21" on="1"/>
        <pt x="271" y="237" on="1"/>
        <pt x="204" y="237" on="1"/>
        <pt x="192" y="237" on="0"/>
        <pt x="192" y="226" on="1"/>
        <pt x="192" y="21" on="1"/>
        <pt x="192" y="0" on="0"/>
      </contour>
      <contour>
        <pt x="203" y="339" on="1"/>
        <pt x="301" y="339" on="1"/>
        <pt x="333" y="339" on="0"/>
        <pt x="363" y="366" on="0"/>
        <pt x="363" y="396" on="1"/>
        <pt x="363" y="474" on="1"/>
        <pt x="363" y="505" on="0"/>
        <pt x="333" y="533" on="0"/>
        <pt x="301" y="533" on="1"/>
        <pt x="203" y="533" on="1"/>
        <pt x="192" y="533" on="0"/>
        <pt x="192" y="522" on="1"/>
        <pt x="192" y="350" on="1"/>
        <pt x="192" y="339" on="0"/>
      </contour>
    </TTGlyph>
    <TTGlyph name="Rcaron" xMin="65" yMin="0" xMax="508" yMax="836">
      <contour>
        <pt x="231" y="707" on="1"/>
        <pt x="217" y="707" on="0"/>
        <pt x="209" y="718" on="1"/>
        <pt x="147" y="823" on="1"/>
        <pt x="140" y="836" on="0"/>
        <pt x="155" y="836" on="1"/>
        <pt x="214" y="836" on="1"/>
        <pt x="227" y="836" on="0"/>
        <pt x="231" y="824" on="1"/>
        <pt x="264" y="758" on="1"/>
        <pt x="296" y="824" on="1"/>
        <pt x="301" y="836" on="0"/>
        <pt x="314" y="836" on="1"/>
        <pt x="374" y="836" on="1"/>
        <pt x="388" y="836" on="0"/>
        <pt x="381" y="823" on="1"/>
        <pt x="319" y="718" on="1"/>
        <pt x="311" y="707" on="0"/>
        <pt x="296" y="707" on="1"/>
      </contour>
      <contour>
        <pt x="171" y="0" on="1"/>
        <pt x="86" y="0" on="1"/>
        <pt x="65" y="0" on="0"/>
        <pt x="65" y="21" on="1"/>
        <pt x="65" y="622" on="1"/>
        <pt x="65" y="643" on="0"/>
        <pt x="86" y="643" on="1"/>
        <pt x="324" y="643" on="1"/>
        <pt x="402" y="643" on="0"/>
        <pt x="490" y="557" on="0"/>
        <pt x="490" y="479" on="1"/>
        <pt x="490" y="401" on="1"/>
        <pt x="490" y="288" on="0"/>
        <pt x="401" y="251" on="1"/>
        <pt x="401" y="247" on="1"/>
        <pt x="508" y="24" on="1"/>
        <pt x="517" y="0" on="0"/>
        <pt x="491" y="0" on="1"/>
        <pt x="410" y="0" on="1"/>
        <pt x="392" y="0" on="0"/>
        <pt x="376" y="8" on="0"/>
        <pt x="371" y="21" on="1"/>
        <pt x="271" y="237" on="1"/>
        <pt x="204" y="237" on="1"/>
        <pt x="192" y="237" on="0"/>
        <pt x="192" y="226" on="1"/>
        <pt x="192" y="21" on="1"/>
        <pt x="192" y="0" on="0"/>
      </contour>
      <contour>
        <pt x="203" y="339" on="1"/>
        <pt x="301" y="339" on="1"/>
        <pt x="333" y="339" on="0"/>
        <pt x="363" y="366" on="0"/>
        <pt x="363" y="396" on="1"/>
        <pt x="363" y="474" on="1"/>
        <pt x="363" y="505" on="0"/>
        <pt x="333" y="533" on="0"/>
        <pt x="301" y="533" on="1"/>
        <pt x="203" y="533" on="1"/>
        <pt x="192" y="533" on="0"/>
        <pt x="192" y="522" on="1"/>
        <pt x="192" y="350" on="1"/>
        <pt x="192" y="339" on="0"/>
      </contour>
    </TTGlyph>
    <TTGlyph name="S" xMin="48" yMin="0" xMax="490" yMax="643">
      <contour>
        <pt x="49" y="164" on="1"/>
        <pt x="49" y="184" on="1"/>
        <pt x="49" y="205" on="0"/>
        <pt x="70" y="205" on="1"/>
        <pt x="155" y="205" on="1"/>
        <pt x="176" y="205" on="0"/>
        <pt x="176" y="184" on="1"/>
        <pt x="176" y="176" on="1"/>
        <pt x="176" y="138" on="0"/>
        <pt x="206" y="110" on="0"/>
        <pt x="246" y="110" on="1"/>
        <pt x="293" y="110" on="1"/>
        <pt x="332" y="110" on="0"/>
        <pt x="363" y="140" on="0"/>
        <pt x="363" y="181" on="1"/>
        <pt x="363" y="193" on="1"/>
        <pt x="363" y="222" on="0"/>
        <pt x="316" y="253" on="0"/>
        <pt x="246" y="259" on="0"/>
        <pt x="165" y="276" on="0"/>
        <pt x="95" y="303" on="0"/>
        <pt x="48" y="382" on="0"/>
        <pt x="48" y="444" on="1"/>
        <pt x="48" y="479" on="1"/>
        <pt x="48" y="557" on="0"/>
        <pt x="136" y="643" on="0"/>
        <pt x="214" y="643" on="1"/>
        <pt x="314" y="643" on="1"/>
        <pt x="393" y="643" on="0"/>
        <pt x="481" y="557" on="0"/>
        <pt x="481" y="479" on="1"/>
        <pt x="481" y="460" on="1"/>
        <pt x="481" y="439" on="0"/>
        <pt x="460" y="439" on="1"/>
        <pt x="375" y="439" on="1"/>
        <pt x="354" y="439" on="0"/>
        <pt x="354" y="460" on="1"/>
        <pt x="354" y="466" on="1"/>
        <pt x="354" y="505" on="0"/>
        <pt x="324" y="533" on="0"/>
        <pt x="284" y="533" on="1"/>
        <pt x="245" y="533" on="1"/>
        <pt x="204" y="533" on="0"/>
        <pt x="175" y="502" on="0"/>
        <pt x="175" y="457" on="1"/>
        <pt x="175" y="438" on="1"/>
        <pt x="175" y="391" on="0"/>
        <pt x="257" y="384" on="1"/>
        <pt x="342" y="377" on="0"/>
        <pt x="408" y="350" on="1"/>
        <pt x="443" y="335" on="0"/>
        <pt x="490" y="258" on="0"/>
        <pt x="490" y="198" on="1"/>
        <pt x="490" y="164" on="1"/>
        <pt x="490" y="86" on="0"/>
        <pt x="402" y="0" on="0"/>
        <pt x="324" y="0" on="1"/>
        <pt x="215" y="0" on="1"/>
        <pt x="137" y="0" on="0"/>
        <pt x="49" y="86" on="0"/>
      </contour>
    </TTGlyph>
    <TTGlyph name="Sacute" xMin="48" yMin="0" xMax="490" yMax="836">
      <contour>
        <pt x="49" y="164" on="1"/>
        <pt x="49" y="184" on="1"/>
        <pt x="49" y="205" on="0"/>
        <pt x="70" y="205" on="1"/>
        <pt x="155" y="205" on="1"/>
        <pt x="176" y="205" on="0"/>
        <pt x="176" y="184" on="1"/>
        <pt x="176" y="176" on="1"/>
        <pt x="176" y="138" on="0"/>
        <pt x="206" y="110" on="0"/>
        <pt x="246" y="110" on="1"/>
        <pt x="293" y="110" on="1"/>
        <pt x="332" y="110" on="0"/>
        <pt x="363" y="140" on="0"/>
        <pt x="363" y="181" on="1"/>
        <pt x="363" y="193" on="1"/>
        <pt x="363" y="222" on="0"/>
        <pt x="316" y="253" on="0"/>
        <pt x="246" y="259" on="0"/>
        <pt x="165" y="276" on="0"/>
        <pt x="95" y="303" on="0"/>
        <pt x="48" y="382" on="0"/>
        <pt x="48" y="444" on="1"/>
        <pt x="48" y="479" on="1"/>
        <pt x="48" y="557" on="0"/>
        <pt x="136" y="643" on="0"/>
        <pt x="214" y="643" on="1"/>
        <pt x="314" y="643" on="1"/>
        <pt x="393" y="643" on="0"/>
        <pt x="481" y="557" on="0"/>
        <pt x="481" y="479" on="1"/>
        <pt x="481" y="460" on="1"/>
        <pt x="481" y="439" on="0"/>
        <pt x="460" y="439" on="1"/>
        <pt x="375" y="439" on="1"/>
        <pt x="354" y="439" on="0"/>
        <pt x="354" y="460" on="1"/>
        <pt x="354" y="466" on="1"/>
        <pt x="354" y="505" on="0"/>
        <pt x="324" y="533" on="0"/>
        <pt x="284" y="533" on="1"/>
        <pt x="245" y="533" on="1"/>
        <pt x="204" y="533" on="0"/>
        <pt x="175" y="502" on="0"/>
        <pt x="175" y="457" on="1"/>
        <pt x="175" y="438" on="1"/>
        <pt x="175" y="391" on="0"/>
        <pt x="257" y="384" on="1"/>
        <pt x="342" y="377" on="0"/>
        <pt x="408" y="350" on="1"/>
        <pt x="443" y="335" on="0"/>
        <pt x="490" y="258" on="0"/>
        <pt x="490" y="198" on="1"/>
        <pt x="490" y="164" on="1"/>
        <pt x="490" y="86" on="0"/>
        <pt x="402" y="0" on="0"/>
        <pt x="324" y="0" on="1"/>
        <pt x="215" y="0" on="1"/>
        <pt x="137" y="0" on="0"/>
        <pt x="49" y="86" on="0"/>
      </contour>
      <contour>
        <pt x="282" y="836" on="1"/>
        <pt x="381" y="836" on="1"/>
        <pt x="391" y="836" on="0"/>
        <pt x="397" y="824" on="0"/>
        <pt x="391" y="816" on="1"/>
        <pt x="310" y="720" on="1"/>
        <pt x="299" y="707" on="0"/>
        <pt x="283" y="707" on="1"/>
        <pt x="218" y="707" on="1"/>
        <pt x="197" y="707" on="0"/>
        <pt x="207" y="728" on="1"/>
        <pt x="252" y="817" on="1"/>
        <pt x="262" y="836" on="0"/>
      </contour>
    </TTGlyph>
    <TTGlyph name="Scaron" xMin="48" yMin="0" xMax="490" yMax="836">
      <contour>
        <pt x="49" y="164" on="1"/>
        <pt x="49" y="184" on="1"/>
        <pt x="49" y="205" on="0"/>
        <pt x="70" y="205" on="1"/>
        <pt x="155" y="205" on="1"/>
        <pt x="176" y="205" on="0"/>
        <pt x="176" y="184" on="1"/>
        <pt x="176" y="176" on="1"/>
        <pt x="176" y="138" on="0"/>
        <pt x="206" y="110" on="0"/>
        <pt x="246" y="110" on="1"/>
        <pt x="293" y="110" on="1"/>
        <pt x="332" y="110" on="0"/>
        <pt x="363" y="140" on="0"/>
        <pt x="363" y="181" on="1"/>
        <pt x="363" y="193" on="1"/>
        <pt x="363" y="222" on="0"/>
        <pt x="316" y="253" on="0"/>
        <pt x="246" y="259" on="0"/>
        <pt x="165" y="276" on="0"/>
        <pt x="95" y="303" on="0"/>
        <pt x="48" y="382" on="0"/>
        <pt x="48" y="444" on="1"/>
        <pt x="48" y="479" on="1"/>
        <pt x="48" y="557" on="0"/>
        <pt x="136" y="643" on="0"/>
        <pt x="214" y="643" on="1"/>
        <pt x="314" y="643" on="1"/>
        <pt x="393" y="643" on="0"/>
        <pt x="481" y="557" on="0"/>
        <pt x="481" y="479" on="1"/>
        <pt x="481" y="460" on="1"/>
        <pt x="481" y="439" on="0"/>
        <pt x="460" y="439" on="1"/>
        <pt x="375" y="439" on="1"/>
        <pt x="354" y="439" on="0"/>
        <pt x="354" y="460" on="1"/>
        <pt x="354" y="466" on="1"/>
        <pt x="354" y="505" on="0"/>
        <pt x="324" y="533" on="0"/>
        <pt x="284" y="533" on="1"/>
        <pt x="245" y="533" on="1"/>
        <pt x="204" y="533" on="0"/>
        <pt x="175" y="502" on="0"/>
        <pt x="175" y="457" on="1"/>
        <pt x="175" y="438" on="1"/>
        <pt x="175" y="391" on="0"/>
        <pt x="257" y="384" on="1"/>
        <pt x="342" y="377" on="0"/>
        <pt x="408" y="350" on="1"/>
        <pt x="443" y="335" on="0"/>
        <pt x="490" y="258" on="0"/>
        <pt x="490" y="198" on="1"/>
        <pt x="490" y="164" on="1"/>
        <pt x="490" y="86" on="0"/>
        <pt x="402" y="0" on="0"/>
        <pt x="324" y="0" on="1"/>
        <pt x="215" y="0" on="1"/>
        <pt x="137" y="0" on="0"/>
        <pt x="49" y="86" on="0"/>
      </contour>
      <contour>
        <pt x="295" y="707" on="1"/>
        <pt x="230" y="707" on="1"/>
        <pt x="215" y="707" on="0"/>
        <pt x="207" y="718" on="1"/>
        <pt x="145" y="823" on="1"/>
        <pt x="138" y="836" on="0"/>
        <pt x="153" y="836" on="1"/>
        <pt x="212" y="836" on="1"/>
        <pt x="225" y="836" on="0"/>
        <pt x="230" y="824" on="1"/>
        <pt x="262" y="758" on="1"/>
        <pt x="295" y="824" on="1"/>
        <pt x="299" y="836" on="0"/>
        <pt x="312" y="836" on="1"/>
        <pt x="372" y="836" on="1"/>
        <pt x="386" y="836" on="0"/>
        <pt x="379" y="823" on="1"/>
        <pt x="317" y="718" on="1"/>
        <pt x="309" y="707" on="0"/>
      </contour>
    </TTGlyph>
    <TTGlyph name="Scircumflex" xMin="48" yMin="0" xMax="490" yMax="836">
      <contour>
        <pt x="49" y="164" on="1"/>
        <pt x="49" y="184" on="1"/>
        <pt x="49" y="205" on="0"/>
        <pt x="70" y="205" on="1"/>
        <pt x="155" y="205" on="1"/>
        <pt x="176" y="205" on="0"/>
        <pt x="176" y="184" on="1"/>
        <pt x="176" y="176" on="1"/>
        <pt x="176" y="138" on="0"/>
        <pt x="206" y="110" on="0"/>
        <pt x="246" y="110" on="1"/>
        <pt x="293" y="110" on="1"/>
        <pt x="332" y="110" on="0"/>
        <pt x="363" y="140" on="0"/>
        <pt x="363" y="181" on="1"/>
        <pt x="363" y="193" on="1"/>
        <pt x="363" y="222" on="0"/>
        <pt x="316" y="253" on="0"/>
        <pt x="246" y="259" on="0"/>
        <pt x="165" y="276" on="0"/>
        <pt x="95" y="303" on="0"/>
        <pt x="48" y="382" on="0"/>
        <pt x="48" y="444" on="1"/>
        <pt x="48" y="479" on="1"/>
        <pt x="48" y="557" on="0"/>
        <pt x="136" y="643" on="0"/>
        <pt x="214" y="643" on="1"/>
        <pt x="314" y="643" on="1"/>
        <pt x="393" y="643" on="0"/>
        <pt x="481" y="557" on="0"/>
        <pt x="481" y="479" on="1"/>
        <pt x="481" y="460" on="1"/>
        <pt x="481" y="439" on="0"/>
        <pt x="460" y="439" on="1"/>
        <pt x="375" y="439" on="1"/>
        <pt x="354" y="439" on="0"/>
        <pt x="354" y="460" on="1"/>
        <pt x="354" y="466" on="1"/>
        <pt x="354" y="505" on="0"/>
        <pt x="324" y="533" on="0"/>
        <pt x="284" y="533" on="1"/>
        <pt x="245" y="533" on="1"/>
        <pt x="204" y="533" on="0"/>
        <pt x="175" y="502" on="0"/>
        <pt x="175" y="457" on="1"/>
        <pt x="175" y="438" on="1"/>
        <pt x="175" y="391" on="0"/>
        <pt x="257" y="384" on="1"/>
        <pt x="342" y="377" on="0"/>
        <pt x="408" y="350" on="1"/>
        <pt x="443" y="335" on="0"/>
        <pt x="490" y="258" on="0"/>
        <pt x="490" y="198" on="1"/>
        <pt x="490" y="164" on="1"/>
        <pt x="490" y="86" on="0"/>
        <pt x="402" y="0" on="0"/>
        <pt x="324" y="0" on="1"/>
        <pt x="215" y="0" on="1"/>
        <pt x="137" y="0" on="0"/>
        <pt x="49" y="86" on="0"/>
      </contour>
      <contour>
        <pt x="380" y="707" on="1"/>
        <pt x="320" y="707" on="1"/>
        <pt x="307" y="707" on="0"/>
        <pt x="302" y="719" on="1"/>
        <pt x="270" y="785" on="1"/>
        <pt x="237" y="719" on="1"/>
        <pt x="233" y="707" on="0"/>
        <pt x="220" y="707" on="1"/>
        <pt x="161" y="707" on="1"/>
        <pt x="146" y="707" on="0"/>
        <pt x="153" y="720" on="1"/>
        <pt x="215" y="825" on="1"/>
        <pt x="223" y="836" on="0"/>
        <pt x="238" y="836" on="1"/>
        <pt x="302" y="836" on="1"/>
        <pt x="317" y="836" on="0"/>
        <pt x="325" y="825" on="1"/>
        <pt x="387" y="720" on="1"/>
        <pt x="394" y="707" on="0"/>
      </contour>
    </TTGlyph>
    <TTGlyph name="Sigma" xMin="64" yMin="0" xMax="442" yMax="643">
      <contour>
        <pt x="64" y="554" on="1"/>
        <pt x="64" y="622" on="1"/>
        <pt x="64" y="643" on="0"/>
        <pt x="85" y="643" on="1"/>
        <pt x="420" y="643" on="1"/>
        <pt x="441" y="643" on="0"/>
        <pt x="441" y="622" on="1"/>
        <pt x="441" y="546" on="1"/>
        <pt x="441" y="524" on="0"/>
        <pt x="420" y="524" on="1"/>
        <pt x="211" y="524" on="1"/>
        <pt x="211" y="520" on="1"/>
        <pt x="341" y="335" on="1"/>
        <pt x="355" y="313" on="0"/>
        <pt x="341" y="293" on="1"/>
        <pt x="211" y="122" on="1"/>
        <pt x="211" y="118" on="1"/>
        <pt x="421" y="118" on="1"/>
        <pt x="442" y="118" on="0"/>
        <pt x="442" y="97" on="1"/>
        <pt x="442" y="21" on="1"/>
        <pt x="442" y="0" on="0"/>
        <pt x="421" y="0" on="1"/>
        <pt x="85" y="0" on="1"/>
        <pt x="65" y="0" on="0"/>
        <pt x="65" y="21" on="1"/>
        <pt x="65" y="88" on="1"/>
        <pt x="65" y="119" on="0"/>
        <pt x="80" y="142" on="1"/>
        <pt x="209" y="312" on="1"/>
        <pt x="209" y="316" on="1"/>
        <pt x="79" y="501" on="1"/>
        <pt x="64" y="523" on="0"/>
      </contour>
    </TTGlyph>
    <TTGlyph name="T" xMin="12" yMin="0" xMax="432" yMax="643">
      <contour>
        <pt x="264" y="0" on="1"/>
        <pt x="180" y="0" on="1"/>
        <pt x="158" y="0" on="0"/>
        <pt x="158" y="21" on="1"/>
        <pt x="158" y="522" on="1"/>
        <pt x="158" y="533" on="0"/>
        <pt x="147" y="533" on="1"/>
        <pt x="33" y="533" on="1"/>
        <pt x="12" y="533" on="0"/>
        <pt x="12" y="554" on="1"/>
        <pt x="12" y="622" on="1"/>
        <pt x="12" y="643" on="0"/>
        <pt x="33" y="643" on="1"/>
        <pt x="411" y="643" on="1"/>
        <pt x="432" y="643" on="0"/>
        <pt x="432" y="622" on="1"/>
        <pt x="432" y="554" on="1"/>
        <pt x="432" y="533" on="0"/>
        <pt x="411" y="533" on="1"/>
        <pt x="297" y="533" on="1"/>
        <pt x="285" y="533" on="0"/>
        <pt x="285" y="522" on="1"/>
        <pt x="285" y="21" on="1"/>
        <pt x="285" y="0" on="0"/>
      </contour>
    </TTGlyph>
    <TTGlyph name="Tbar" xMin="28" yMin="0" xMax="464" yMax="643">
      <contour>
        <pt x="288" y="0" on="1"/>
        <pt x="204" y="0" on="1"/>
        <pt x="183" y="0" on="0"/>
        <pt x="183" y="21" on="1"/>
        <pt x="183" y="276" on="1"/>
        <pt x="183" y="287" on="0"/>
        <pt x="171" y="287" on="1"/>
        <pt x="110" y="287" on="1"/>
        <pt x="98" y="287" on="0"/>
        <pt x="90" y="296" on="0"/>
        <pt x="90" y="308" on="1"/>
        <pt x="90" y="359" on="1"/>
        <pt x="90" y="381" on="0"/>
        <pt x="110" y="381" on="1"/>
        <pt x="171" y="381" on="1"/>
        <pt x="183" y="381" on="0"/>
        <pt x="183" y="392" on="1"/>
        <pt x="183" y="522" on="1"/>
        <pt x="183" y="533" on="0"/>
        <pt x="171" y="533" on="1"/>
        <pt x="49" y="533" on="1"/>
        <pt x="28" y="533" on="0"/>
        <pt x="28" y="554" on="1"/>
        <pt x="28" y="622" on="1"/>
        <pt x="28" y="643" on="0"/>
        <pt x="49" y="643" on="1"/>
        <pt x="444" y="643" on="1"/>
        <pt x="464" y="643" on="0"/>
        <pt x="464" y="622" on="1"/>
        <pt x="464" y="554" on="1"/>
        <pt x="464" y="533" on="0"/>
        <pt x="444" y="533" on="1"/>
        <pt x="321" y="533" on="1"/>
        <pt x="310" y="533" on="0"/>
        <pt x="310" y="522" on="1"/>
        <pt x="310" y="392" on="1"/>
        <pt x="310" y="381" on="0"/>
        <pt x="321" y="381" on="1"/>
        <pt x="384" y="381" on="1"/>
        <pt x="404" y="381" on="0"/>
        <pt x="404" y="359" on="1"/>
        <pt x="404" y="308" on="1"/>
        <pt x="404" y="296" on="0"/>
        <pt x="396" y="287" on="0"/>
        <pt x="384" y="287" on="1"/>
        <pt x="321" y="287" on="1"/>
        <pt x="310" y="287" on="0"/>
        <pt x="310" y="276" on="1"/>
        <pt x="310" y="21" on="1"/>
        <pt x="310" y="0" on="0"/>
      </contour>
    </TTGlyph>
    <TTGlyph name="Tcaron" xMin="12" yMin="0" xMax="432" yMax="836">
      <contour>
        <pt x="191" y="707" on="1"/>
        <pt x="177" y="707" on="0"/>
        <pt x="169" y="718" on="1"/>
        <pt x="106" y="823" on="1"/>
        <pt x="99" y="836" on="0"/>
        <pt x="115" y="836" on="1"/>
        <pt x="173" y="836" on="1"/>
        <pt x="186" y="836" on="0"/>
        <pt x="191" y="824" on="1"/>
        <pt x="224" y="758" on="1"/>
        <pt x="256" y="824" on="1"/>
        <pt x="261" y="836" on="0"/>
        <pt x="274" y="836" on="1"/>
        <pt x="333" y="836" on="1"/>
        <pt x="348" y="836" on="0"/>
        <pt x="341" y="823" on="1"/>
        <pt x="278" y="718" on="1"/>
        <pt x="270" y="707" on="0"/>
        <pt x="256" y="707" on="1"/>
      </contour>
      <contour>
        <pt x="264" y="0" on="1"/>
        <pt x="180" y="0" on="1"/>
        <pt x="158" y="0" on="0"/>
        <pt x="158" y="21" on="1"/>
        <pt x="158" y="522" on="1"/>
        <pt x="158" y="533" on="0"/>
        <pt x="147" y="533" on="1"/>
        <pt x="33" y="533" on="1"/>
        <pt x="12" y="533" on="0"/>
        <pt x="12" y="554" on="1"/>
        <pt x="12" y="622" on="1"/>
        <pt x="12" y="643" on="0"/>
        <pt x="33" y="643" on="1"/>
        <pt x="411" y="643" on="1"/>
        <pt x="432" y="643" on="0"/>
        <pt x="432" y="622" on="1"/>
        <pt x="432" y="554" on="1"/>
        <pt x="432" y="533" on="0"/>
        <pt x="411" y="533" on="1"/>
        <pt x="297" y="533" on="1"/>
        <pt x="285" y="533" on="0"/>
        <pt x="285" y="522" on="1"/>
        <pt x="285" y="21" on="1"/>
        <pt x="285" y="0" on="0"/>
      </contour>
    </TTGlyph>
    <TTGlyph name="Thorn" xMin="79" yMin="0" xMax="466" yMax="643">
      <contour>
        <pt x="217" y="242" on="1"/>
        <pt x="280" y="242" on="1"/>
        <pt x="312" y="242" on="0"/>
        <pt x="338" y="268" on="0"/>
        <pt x="338" y="300" on="1"/>
        <pt x="338" y="341" on="1"/>
        <pt x="338" y="373" on="0"/>
        <pt x="312" y="400" on="0"/>
        <pt x="280" y="400" on="1"/>
        <pt x="217" y="400" on="1"/>
        <pt x="206" y="400" on="0"/>
        <pt x="206" y="389" on="1"/>
        <pt x="206" y="253" on="1"/>
        <pt x="206" y="242" on="0"/>
      </contour>
      <contour>
        <pt x="185" y="0" on="1"/>
        <pt x="100" y="0" on="1"/>
        <pt x="79" y="0" on="0"/>
        <pt x="79" y="21" on="1"/>
        <pt x="79" y="622" on="1"/>
        <pt x="79" y="643" on="0"/>
        <pt x="100" y="643" on="1"/>
        <pt x="185" y="643" on="1"/>
        <pt x="206" y="643" on="0"/>
        <pt x="206" y="622" on="1"/>
        <pt x="206" y="521" on="1"/>
        <pt x="206" y="510" on="0"/>
        <pt x="218" y="510" on="1"/>
        <pt x="301" y="510" on="1"/>
        <pt x="379" y="510" on="0"/>
        <pt x="466" y="425" on="0"/>
        <pt x="466" y="347" on="1"/>
        <pt x="466" y="294" on="1"/>
        <pt x="466" y="216" on="0"/>
        <pt x="379" y="131" on="0"/>
        <pt x="301" y="131" on="1"/>
        <pt x="218" y="131" on="1"/>
        <pt x="206" y="131" on="0"/>
        <pt x="206" y="120" on="1"/>
        <pt x="206" y="21" on="1"/>
        <pt x="206" y="0" on="0"/>
      </contour>
    </TTGlyph>
    <TTGlyph name="U" xMin="60" yMin="0" xMax="500" yMax="643">
      <contour>
        <pt x="394" y="643" on="1"/>
        <pt x="478" y="643" on="1"/>
        <pt x="500" y="643" on="0"/>
        <pt x="500" y="623" on="1"/>
        <pt x="500" y="163" on="1"/>
        <pt x="500" y="85" on="0"/>
        <pt x="413" y="0" on="0"/>
        <pt x="335" y="0" on="1"/>
        <pt x="225" y="0" on="1"/>
        <pt x="146" y="0" on="0"/>
        <pt x="60" y="84" on="0"/>
        <pt x="60" y="163" on="1"/>
        <pt x="60" y="622" on="1"/>
        <pt x="60" y="643" on="0"/>
        <pt x="81" y="643" on="1"/>
        <pt x="166" y="643" on="1"/>
        <pt x="187" y="643" on="0"/>
        <pt x="187" y="622" on="1"/>
        <pt x="187" y="169" on="1"/>
        <pt x="187" y="137" on="0"/>
        <pt x="214" y="110" on="0"/>
        <pt x="245" y="110" on="1"/>
        <pt x="314" y="110" on="1"/>
        <pt x="346" y="110" on="0"/>
        <pt x="373" y="137" on="0"/>
        <pt x="373" y="169" on="1"/>
        <pt x="373" y="622" on="1"/>
        <pt x="373" y="643" on="0"/>
      </contour>
    </TTGlyph>
    <TTGlyph name="Uacute" xMin="60" yMin="0" xMax="500" yMax="836">
      <contour>
        <pt x="309" y="836" on="1"/>
        <pt x="408" y="836" on="1"/>
        <pt x="418" y="836" on="0"/>
        <pt x="424" y="824" on="0"/>
        <pt x="418" y="816" on="1"/>
        <pt x="336" y="720" on="1"/>
        <pt x="326" y="707" on="0"/>
        <pt x="310" y="707" on="1"/>
        <pt x="245" y="707" on="1"/>
        <pt x="224" y="707" on="0"/>
        <pt x="234" y="728" on="1"/>
        <pt x="279" y="817" on="1"/>
        <pt x="288" y="836" on="0"/>
      </contour>
      <contour>
        <pt x="394" y="643" on="1"/>
        <pt x="478" y="643" on="1"/>
        <pt x="500" y="643" on="0"/>
        <pt x="500" y="623" on="1"/>
        <pt x="500" y="163" on="1"/>
        <pt x="500" y="85" on="0"/>
        <pt x="413" y="0" on="0"/>
        <pt x="335" y="0" on="1"/>
        <pt x="225" y="0" on="1"/>
        <pt x="146" y="0" on="0"/>
        <pt x="60" y="84" on="0"/>
        <pt x="60" y="163" on="1"/>
        <pt x="60" y="622" on="1"/>
        <pt x="60" y="643" on="0"/>
        <pt x="81" y="643" on="1"/>
        <pt x="166" y="643" on="1"/>
        <pt x="187" y="643" on="0"/>
        <pt x="187" y="622" on="1"/>
        <pt x="187" y="169" on="1"/>
        <pt x="187" y="137" on="0"/>
        <pt x="214" y="110" on="0"/>
        <pt x="245" y="110" on="1"/>
        <pt x="314" y="110" on="1"/>
        <pt x="346" y="110" on="0"/>
        <pt x="373" y="137" on="0"/>
        <pt x="373" y="169" on="1"/>
        <pt x="373" y="622" on="1"/>
        <pt x="373" y="643" on="0"/>
      </contour>
    </TTGlyph>
    <TTGlyph name="Ubreve" xMin="60" yMin="0" xMax="500" yMax="836">
      <contour>
        <pt x="165" y="823" on="1"/>
        <pt x="165" y="836" on="0"/>
        <pt x="179" y="836" on="1"/>
        <pt x="229" y="836" on="1"/>
        <pt x="243" y="836" on="0"/>
        <pt x="243" y="823" on="1"/>
        <pt x="243" y="814" on="1"/>
        <pt x="243" y="790" on="0"/>
        <pt x="259" y="771" on="0"/>
        <pt x="277" y="771" on="1"/>
        <pt x="284" y="771" on="1"/>
        <pt x="319" y="771" on="0"/>
        <pt x="319" y="814" on="1"/>
        <pt x="319" y="823" on="1"/>
        <pt x="319" y="836" on="0"/>
        <pt x="333" y="836" on="1"/>
        <pt x="382" y="836" on="1"/>
        <pt x="396" y="836" on="0"/>
        <pt x="396" y="823" on="1"/>
        <pt x="396" y="812" on="1"/>
        <pt x="396" y="761" on="0"/>
        <pt x="344" y="707" on="0"/>
        <pt x="298" y="707" on="1"/>
        <pt x="263" y="707" on="1"/>
        <pt x="217" y="707" on="0"/>
        <pt x="165" y="761" on="0"/>
        <pt x="165" y="812" on="1"/>
      </contour>
      <contour>
        <pt x="394" y="643" on="1"/>
        <pt x="478" y="643" on="1"/>
        <pt x="500" y="643" on="0"/>
        <pt x="500" y="623" on="1"/>
        <pt x="500" y="163" on="1"/>
        <pt x="500" y="85" on="0"/>
        <pt x="413" y="0" on="0"/>
        <pt x="335" y="0" on="1"/>
        <pt x="225" y="0" on="1"/>
        <pt x="146" y="0" on="0"/>
        <pt x="60" y="84" on="0"/>
        <pt x="60" y="163" on="1"/>
        <pt x="60" y="622" on="1"/>
        <pt x="60" y="643" on="0"/>
        <pt x="81" y="643" on="1"/>
        <pt x="166" y="643" on="1"/>
        <pt x="187" y="643" on="0"/>
        <pt x="187" y="622" on="1"/>
        <pt x="187" y="169" on="1"/>
        <pt x="187" y="137" on="0"/>
        <pt x="214" y="110" on="0"/>
        <pt x="245" y="110" on="1"/>
        <pt x="314" y="110" on="1"/>
        <pt x="346" y="110" on="0"/>
        <pt x="373" y="137" on="0"/>
        <pt x="373" y="169" on="1"/>
        <pt x="373" y="622" on="1"/>
        <pt x="373" y="643" on="0"/>
      </contour>
    </TTGlyph>
    <TTGlyph name="Ucircumflex" xMin="60" yMin="0" xMax="500" yMax="836">
      <contour>
        <pt x="392" y="707" on="1"/>
        <pt x="333" y="707" on="1"/>
        <pt x="320" y="707" on="0"/>
        <pt x="315" y="719" on="1"/>
        <pt x="282" y="785" on="1"/>
        <pt x="250" y="719" on="1"/>
        <pt x="245" y="707" on="0"/>
        <pt x="232" y="707" on="1"/>
        <pt x="174" y="707" on="1"/>
        <pt x="158" y="707" on="0"/>
        <pt x="165" y="720" on="1"/>
        <pt x="228" y="825" on="1"/>
        <pt x="236" y="836" on="0"/>
        <pt x="250" y="836" on="1"/>
        <pt x="315" y="836" on="1"/>
        <pt x="329" y="836" on="0"/>
        <pt x="337" y="825" on="1"/>
        <pt x="400" y="720" on="1"/>
        <pt x="407" y="707" on="0"/>
      </contour>
      <contour>
        <pt x="394" y="643" on="1"/>
        <pt x="478" y="643" on="1"/>
        <pt x="500" y="643" on="0"/>
        <pt x="500" y="623" on="1"/>
        <pt x="500" y="163" on="1"/>
        <pt x="500" y="85" on="0"/>
        <pt x="413" y="0" on="0"/>
        <pt x="335" y="0" on="1"/>
        <pt x="225" y="0" on="1"/>
        <pt x="146" y="0" on="0"/>
        <pt x="60" y="84" on="0"/>
        <pt x="60" y="163" on="1"/>
        <pt x="60" y="622" on="1"/>
        <pt x="60" y="643" on="0"/>
        <pt x="81" y="643" on="1"/>
        <pt x="166" y="643" on="1"/>
        <pt x="187" y="643" on="0"/>
        <pt x="187" y="622" on="1"/>
        <pt x="187" y="169" on="1"/>
        <pt x="187" y="137" on="0"/>
        <pt x="214" y="110" on="0"/>
        <pt x="245" y="110" on="1"/>
        <pt x="314" y="110" on="1"/>
        <pt x="346" y="110" on="0"/>
        <pt x="373" y="137" on="0"/>
        <pt x="373" y="169" on="1"/>
        <pt x="373" y="622" on="1"/>
        <pt x="373" y="643" on="0"/>
      </contour>
    </TTGlyph>
    <TTGlyph name="Udieresis" xMin="60" yMin="0" xMax="500" yMax="836">
      <contour>
        <pt x="126" y="728" on="1"/>
        <pt x="126" y="816" on="1"/>
        <pt x="126" y="836" on="0"/>
        <pt x="145" y="836" on="1"/>
        <pt x="225" y="836" on="1"/>
        <pt x="244" y="836" on="0"/>
        <pt x="244" y="817" on="1"/>
        <pt x="244" y="728" on="1"/>
        <pt x="244" y="707" on="0"/>
        <pt x="225" y="707" on="1"/>
        <pt x="145" y="707" on="1"/>
        <pt x="126" y="707" on="0"/>
      </contour>
      <contour>
        <pt x="316" y="728" on="1"/>
        <pt x="316" y="816" on="1"/>
        <pt x="316" y="836" on="0"/>
        <pt x="335" y="836" on="1"/>
        <pt x="415" y="836" on="1"/>
        <pt x="434" y="836" on="0"/>
        <pt x="434" y="817" on="1"/>
        <pt x="434" y="728" on="1"/>
        <pt x="434" y="707" on="0"/>
        <pt x="415" y="707" on="1"/>
        <pt x="335" y="707" on="1"/>
        <pt x="316" y="707" on="0"/>
      </contour>
      <contour>
        <pt x="394" y="643" on="1"/>
        <pt x="478" y="643" on="1"/>
        <pt x="500" y="643" on="0"/>
        <pt x="500" y="623" on="1"/>
        <pt x="500" y="163" on="1"/>
        <pt x="500" y="85" on="0"/>
        <pt x="413" y="0" on="0"/>
        <pt x="335" y="0" on="1"/>
        <pt x="225" y="0" on="1"/>
        <pt x="146" y="0" on="0"/>
        <pt x="60" y="84" on="0"/>
        <pt x="60" y="163" on="1"/>
        <pt x="60" y="622" on="1"/>
        <pt x="60" y="643" on="0"/>
        <pt x="81" y="643" on="1"/>
        <pt x="166" y="643" on="1"/>
        <pt x="187" y="643" on="0"/>
        <pt x="187" y="622" on="1"/>
        <pt x="187" y="169" on="1"/>
        <pt x="187" y="137" on="0"/>
        <pt x="214" y="110" on="0"/>
        <pt x="245" y="110" on="1"/>
        <pt x="314" y="110" on="1"/>
        <pt x="346" y="110" on="0"/>
        <pt x="373" y="137" on="0"/>
        <pt x="373" y="169" on="1"/>
        <pt x="373" y="622" on="1"/>
        <pt x="373" y="643" on="0"/>
      </contour>
    </TTGlyph>
    <TTGlyph name="Ugrave" xMin="60" yMin="0" xMax="500" yMax="836">
      <contour>
        <pt x="312" y="707" on="1"/>
        <pt x="247" y="707" on="1"/>
        <pt x="231" y="707" on="0"/>
        <pt x="220" y="720" on="1"/>
        <pt x="139" y="816" on="1"/>
        <pt x="133" y="824" on="0"/>
        <pt x="139" y="836" on="0"/>
        <pt x="149" y="836" on="1"/>
        <pt x="248" y="836" on="1"/>
        <pt x="267" y="836" on="0"/>
        <pt x="278" y="817" on="1"/>
        <pt x="322" y="728" on="1"/>
        <pt x="333" y="707" on="0"/>
      </contour>
      <contour>
        <pt x="394" y="643" on="1"/>
        <pt x="478" y="643" on="1"/>
        <pt x="500" y="643" on="0"/>
        <pt x="500" y="623" on="1"/>
        <pt x="500" y="163" on="1"/>
        <pt x="500" y="85" on="0"/>
        <pt x="413" y="0" on="0"/>
        <pt x="335" y="0" on="1"/>
        <pt x="225" y="0" on="1"/>
        <pt x="146" y="0" on="0"/>
        <pt x="60" y="84" on="0"/>
        <pt x="60" y="163" on="1"/>
        <pt x="60" y="622" on="1"/>
        <pt x="60" y="643" on="0"/>
        <pt x="81" y="643" on="1"/>
        <pt x="166" y="643" on="1"/>
        <pt x="187" y="643" on="0"/>
        <pt x="187" y="622" on="1"/>
        <pt x="187" y="169" on="1"/>
        <pt x="187" y="137" on="0"/>
        <pt x="214" y="110" on="0"/>
        <pt x="245" y="110" on="1"/>
        <pt x="314" y="110" on="1"/>
        <pt x="346" y="110" on="0"/>
        <pt x="373" y="137" on="0"/>
        <pt x="373" y="169" on="1"/>
        <pt x="373" y="622" on="1"/>
        <pt x="373" y="643" on="0"/>
      </contour>
    </TTGlyph>
    <TTGlyph name="Uhungarumlaut" xMin="60" yMin="0" xMax="500" yMax="836">
      <contour>
        <pt x="237" y="836" on="1"/>
        <pt x="302" y="836" on="1"/>
        <pt x="325" y="836" on="0"/>
        <pt x="311" y="816" on="1"/>
        <pt x="240" y="720" on="1"/>
        <pt x="230" y="707" on="0"/>
        <pt x="215" y="707" on="1"/>
        <pt x="173" y="707" on="1"/>
        <pt x="153" y="707" on="0"/>
        <pt x="163" y="728" on="1"/>
        <pt x="207" y="817" on="1"/>
        <pt x="217" y="836" on="0"/>
      </contour>
      <contour>
        <pt x="390" y="836" on="1"/>
        <pt x="454" y="836" on="1"/>
        <pt x="478" y="836" on="0"/>
        <pt x="464" y="816" on="1"/>
        <pt x="393" y="720" on="1"/>
        <pt x="382" y="707" on="0"/>
        <pt x="367" y="707" on="1"/>
        <pt x="326" y="707" on="1"/>
        <pt x="305" y="707" on="0"/>
        <pt x="315" y="728" on="1"/>
        <pt x="360" y="817" on="1"/>
        <pt x="369" y="836" on="0"/>
      </contour>
      <contour>
        <pt x="394" y="643" on="1"/>
        <pt x="478" y="643" on="1"/>
        <pt x="500" y="643" on="0"/>
        <pt x="500" y="623" on="1"/>
        <pt x="500" y="163" on="1"/>
        <pt x="500" y="85" on="0"/>
        <pt x="413" y="0" on="0"/>
        <pt x="335" y="0" on="1"/>
        <pt x="225" y="0" on="1"/>
        <pt x="146" y="0" on="0"/>
        <pt x="60" y="84" on="0"/>
        <pt x="60" y="163" on="1"/>
        <pt x="60" y="622" on="1"/>
        <pt x="60" y="643" on="0"/>
        <pt x="81" y="643" on="1"/>
        <pt x="166" y="643" on="1"/>
        <pt x="187" y="643" on="0"/>
        <pt x="187" y="622" on="1"/>
        <pt x="187" y="169" on="1"/>
        <pt x="187" y="137" on="0"/>
        <pt x="214" y="110" on="0"/>
        <pt x="245" y="110" on="1"/>
        <pt x="314" y="110" on="1"/>
        <pt x="346" y="110" on="0"/>
        <pt x="373" y="137" on="0"/>
        <pt x="373" y="169" on="1"/>
        <pt x="373" y="622" on="1"/>
        <pt x="373" y="643" on="0"/>
      </contour>
    </TTGlyph>
    <TTGlyph name="Umacron" xMin="60" yMin="0" xMax="500" yMax="819">
      <contour>
        <pt x="379" y="732" on="1"/>
        <pt x="181" y="732" on="1"/>
        <pt x="161" y="732" on="0"/>
        <pt x="161" y="753" on="1"/>
        <pt x="161" y="798" on="1"/>
        <pt x="161" y="819" on="0"/>
        <pt x="181" y="819" on="1"/>
        <pt x="379" y="819" on="1"/>
        <pt x="399" y="819" on="0"/>
        <pt x="399" y="798" on="1"/>
        <pt x="399" y="753" on="1"/>
        <pt x="399" y="732" on="0"/>
      </contour>
      <contour>
        <pt x="394" y="643" on="1"/>
        <pt x="478" y="643" on="1"/>
        <pt x="500" y="643" on="0"/>
        <pt x="500" y="623" on="1"/>
        <pt x="500" y="163" on="1"/>
        <pt x="500" y="85" on="0"/>
        <pt x="413" y="0" on="0"/>
        <pt x="335" y="0" on="1"/>
        <pt x="225" y="0" on="1"/>
        <pt x="146" y="0" on="0"/>
        <pt x="60" y="84" on="0"/>
        <pt x="60" y="163" on="1"/>
        <pt x="60" y="622" on="1"/>
        <pt x="60" y="643" on="0"/>
        <pt x="81" y="643" on="1"/>
        <pt x="166" y="643" on="1"/>
        <pt x="187" y="643" on="0"/>
        <pt x="187" y="622" on="1"/>
        <pt x="187" y="169" on="1"/>
        <pt x="187" y="137" on="0"/>
        <pt x="214" y="110" on="0"/>
        <pt x="245" y="110" on="1"/>
        <pt x="314" y="110" on="1"/>
        <pt x="346" y="110" on="0"/>
        <pt x="373" y="137" on="0"/>
        <pt x="373" y="169" on="1"/>
        <pt x="373" y="622" on="1"/>
        <pt x="373" y="643" on="0"/>
      </contour>
    </TTGlyph>
    <TTGlyph name="Uogonek" xMin="60" yMin="-123" xMax="500" yMax="643">
      <contour>
        <pt x="394" y="643" on="1"/>
        <pt x="478" y="643" on="1"/>
        <pt x="500" y="643" on="0"/>
        <pt x="500" y="623" on="1"/>
        <pt x="500" y="163" on="1"/>
        <pt x="500" y="85" on="0"/>
        <pt x="413" y="0" on="0"/>
        <pt x="335" y="0" on="1"/>
        <pt x="326" y="0" on="1"/>
        <pt x="288" y="-57" on="1"/>
        <pt x="330" y="-57" on="1"/>
        <pt x="342" y="-57" on="0"/>
        <pt x="351" y="-65" on="0"/>
        <pt x="351" y="-77" on="1"/>
        <pt x="351" y="-98" on="0"/>
        <pt x="285" y="-123" on="0"/>
        <pt x="226" y="-123" on="0"/>
        <pt x="210" y="-88" on="0"/>
        <pt x="224" y="-68" on="1"/>
        <pt x="265" y="0" on="1"/>
        <pt x="225" y="0" on="1"/>
        <pt x="146" y="0" on="0"/>
        <pt x="60" y="84" on="0"/>
        <pt x="60" y="163" on="1"/>
        <pt x="60" y="622" on="1"/>
        <pt x="60" y="643" on="0"/>
        <pt x="81" y="643" on="1"/>
        <pt x="166" y="643" on="1"/>
        <pt x="187" y="643" on="0"/>
        <pt x="187" y="622" on="1"/>
        <pt x="187" y="169" on="1"/>
        <pt x="187" y="137" on="0"/>
        <pt x="214" y="110" on="0"/>
        <pt x="245" y="110" on="1"/>
        <pt x="314" y="110" on="1"/>
        <pt x="346" y="110" on="0"/>
        <pt x="373" y="137" on="0"/>
        <pt x="373" y="169" on="1"/>
        <pt x="373" y="622" on="1"/>
        <pt x="373" y="643" on="0"/>
      </contour>
    </TTGlyph>
    <TTGlyph name="Uring" xMin="60" yMin="0" xMax="500" yMax="874">
      <contour>
        <pt x="308" y="704" on="1"/>
        <pt x="251" y="704" on="1"/>
        <pt x="197" y="704" on="0"/>
        <pt x="197" y="758" on="1"/>
        <pt x="197" y="822" on="1"/>
        <pt x="197" y="847" on="0"/>
        <pt x="225" y="874" on="0"/>
        <pt x="251" y="874" on="1"/>
        <pt x="308" y="874" on="1"/>
        <pt x="333" y="874" on="0"/>
        <pt x="363" y="846" on="0"/>
        <pt x="363" y="822" on="1"/>
        <pt x="363" y="758" on="1"/>
        <pt x="363" y="732" on="0"/>
        <pt x="333" y="704" on="0"/>
      </contour>
      <contour>
        <pt x="271" y="750" on="1"/>
        <pt x="287" y="750" on="1"/>
        <pt x="300" y="750" on="0"/>
        <pt x="310" y="761" on="0"/>
        <pt x="310" y="775" on="1"/>
        <pt x="310" y="801" on="1"/>
        <pt x="310" y="816" on="0"/>
        <pt x="301" y="827" on="0"/>
        <pt x="288" y="827" on="1"/>
        <pt x="272" y="827" on="1"/>
        <pt x="259" y="827" on="0"/>
        <pt x="249" y="816" on="0"/>
        <pt x="249" y="801" on="1"/>
        <pt x="249" y="775" on="1"/>
        <pt x="249" y="761" on="0"/>
        <pt x="258" y="750" on="0"/>
      </contour>
      <contour>
        <pt x="394" y="643" on="1"/>
        <pt x="478" y="643" on="1"/>
        <pt x="500" y="643" on="0"/>
        <pt x="500" y="623" on="1"/>
        <pt x="500" y="163" on="1"/>
        <pt x="500" y="85" on="0"/>
        <pt x="413" y="0" on="0"/>
        <pt x="335" y="0" on="1"/>
        <pt x="225" y="0" on="1"/>
        <pt x="146" y="0" on="0"/>
        <pt x="60" y="84" on="0"/>
        <pt x="60" y="163" on="1"/>
        <pt x="60" y="622" on="1"/>
        <pt x="60" y="643" on="0"/>
        <pt x="81" y="643" on="1"/>
        <pt x="166" y="643" on="1"/>
        <pt x="187" y="643" on="0"/>
        <pt x="187" y="622" on="1"/>
        <pt x="187" y="169" on="1"/>
        <pt x="187" y="137" on="0"/>
        <pt x="214" y="110" on="0"/>
        <pt x="245" y="110" on="1"/>
        <pt x="314" y="110" on="1"/>
        <pt x="346" y="110" on="0"/>
        <pt x="373" y="137" on="0"/>
        <pt x="373" y="169" on="1"/>
        <pt x="373" y="622" on="1"/>
        <pt x="373" y="643" on="0"/>
      </contour>
    </TTGlyph>
    <TTGlyph name="Utilde" xMin="60" yMin="0" xMax="500" yMax="833">
      <contour>
        <pt x="232" y="702" on="1"/>
        <pt x="160" y="702" on="0"/>
        <pt x="160" y="778" on="1"/>
        <pt x="160" y="817" on="1"/>
        <pt x="160" y="828" on="0"/>
        <pt x="171" y="828" on="1"/>
        <pt x="210" y="828" on="1"/>
        <pt x="217" y="828" on="0"/>
        <pt x="221" y="824" on="0"/>
        <pt x="221" y="817" on="1"/>
        <pt x="221" y="805" on="1"/>
        <pt x="221" y="783" on="0"/>
        <pt x="227" y="769" on="0"/>
        <pt x="241" y="769" on="0"/>
        <pt x="252" y="780" on="0"/>
        <pt x="294" y="833" on="0"/>
        <pt x="329" y="833" on="1"/>
        <pt x="400" y="833" on="0"/>
        <pt x="400" y="756" on="1"/>
        <pt x="400" y="719" on="1"/>
        <pt x="400" y="706" on="0"/>
        <pt x="390" y="706" on="1"/>
        <pt x="351" y="706" on="1"/>
        <pt x="340" y="706" on="0"/>
        <pt x="340" y="719" on="1"/>
        <pt x="340" y="729" on="1"/>
        <pt x="340" y="751" on="0"/>
        <pt x="333" y="765" on="0"/>
        <pt x="317" y="765" on="0"/>
        <pt x="295" y="738" on="1"/>
        <pt x="270" y="702" on="0"/>
      </contour>
      <contour>
        <pt x="394" y="643" on="1"/>
        <pt x="478" y="643" on="1"/>
        <pt x="500" y="643" on="0"/>
        <pt x="500" y="623" on="1"/>
        <pt x="500" y="163" on="1"/>
        <pt x="500" y="85" on="0"/>
        <pt x="413" y="0" on="0"/>
        <pt x="335" y="0" on="1"/>
        <pt x="225" y="0" on="1"/>
        <pt x="146" y="0" on="0"/>
        <pt x="60" y="84" on="0"/>
        <pt x="60" y="163" on="1"/>
        <pt x="60" y="622" on="1"/>
        <pt x="60" y="643" on="0"/>
        <pt x="81" y="643" on="1"/>
        <pt x="166" y="643" on="1"/>
        <pt x="187" y="643" on="0"/>
        <pt x="187" y="622" on="1"/>
        <pt x="187" y="169" on="1"/>
        <pt x="187" y="137" on="0"/>
        <pt x="214" y="110" on="0"/>
        <pt x="245" y="110" on="1"/>
        <pt x="314" y="110" on="1"/>
        <pt x="346" y="110" on="0"/>
        <pt x="373" y="137" on="0"/>
        <pt x="373" y="169" on="1"/>
        <pt x="373" y="622" on="1"/>
        <pt x="373" y="643" on="0"/>
      </contour>
    </TTGlyph>
    <TTGlyph name="V" xMin="16" yMin="0" xMax="506" yMax="643">
      <contour>
        <pt x="327" y="0" on="1"/>
        <pt x="196" y="0" on="1"/>
        <pt x="175" y="0" on="0"/>
        <pt x="171" y="21" on="1"/>
        <pt x="16" y="620" on="1"/>
        <pt x="9" y="643" on="0"/>
        <pt x="36" y="643" on="1"/>
        <pt x="130" y="643" on="1"/>
        <pt x="150" y="643" on="0"/>
        <pt x="154" y="622" on="1"/>
        <pt x="259" y="130" on="1"/>
        <pt x="263" y="130" on="1"/>
        <pt x="368" y="622" on="1"/>
        <pt x="372" y="643" on="0"/>
        <pt x="392" y="643" on="1"/>
        <pt x="486" y="643" on="1"/>
        <pt x="511" y="643" on="0"/>
        <pt x="506" y="620" on="1"/>
        <pt x="351" y="21" on="1"/>
        <pt x="346" y="0" on="0"/>
      </contour>
    </TTGlyph>
    <TTGlyph name="W" xMin="15" yMin="0" xMax="792" yMax="643">
      <contour>
        <pt x="287" y="0" on="1"/>
        <pt x="147" y="0" on="1"/>
        <pt x="125" y="0" on="0"/>
        <pt x="122" y="21" on="1"/>
        <pt x="15" y="622" on="1"/>
        <pt x="12" y="643" on="0"/>
        <pt x="36" y="643" on="1"/>
        <pt x="140" y="643" on="1"/>
        <pt x="163" y="643" on="0"/>
        <pt x="164" y="622" on="1"/>
        <pt x="222" y="129" on="1"/>
        <pt x="229" y="129" on="1"/>
        <pt x="325" y="625" on="1"/>
        <pt x="328" y="643" on="0"/>
        <pt x="346" y="643" on="1"/>
        <pt x="458" y="643" on="1"/>
        <pt x="477" y="643" on="0"/>
        <pt x="480" y="626" on="1"/>
        <pt x="578" y="129" on="1"/>
        <pt x="586" y="129" on="1"/>
        <pt x="643" y="621" on="1"/>
        <pt x="644" y="643" on="0"/>
        <pt x="667" y="643" on="1"/>
        <pt x="771" y="643" on="1"/>
        <pt x="795" y="643" on="0"/>
        <pt x="792" y="621" on="1"/>
        <pt x="684" y="21" on="1"/>
        <pt x="681" y="0" on="0"/>
        <pt x="661" y="0" on="1"/>
        <pt x="520" y="0" on="1"/>
        <pt x="499" y="0" on="0"/>
        <pt x="496" y="21" on="1"/>
        <pt x="406" y="490" on="1"/>
        <pt x="402" y="490" on="1"/>
        <pt x="311" y="21" on="1"/>
        <pt x="307" y="0" on="0"/>
      </contour>
    </TTGlyph>
    <TTGlyph name="Wacute" xMin="15" yMin="0" xMax="792" yMax="836">
      <contour>
        <pt x="441" y="836" on="1"/>
        <pt x="540" y="836" on="1"/>
        <pt x="550" y="836" on="0"/>
        <pt x="556" y="824" on="0"/>
        <pt x="549" y="816" on="1"/>
        <pt x="468" y="720" on="1"/>
        <pt x="458" y="707" on="0"/>
        <pt x="442" y="707" on="1"/>
        <pt x="376" y="707" on="1"/>
        <pt x="356" y="707" on="0"/>
        <pt x="366" y="728" on="1"/>
        <pt x="411" y="817" on="1"/>
        <pt x="420" y="836" on="0"/>
      </contour>
      <contour>
        <pt x="287" y="0" on="1"/>
        <pt x="147" y="0" on="1"/>
        <pt x="125" y="0" on="0"/>
        <pt x="122" y="21" on="1"/>
        <pt x="15" y="622" on="1"/>
        <pt x="12" y="643" on="0"/>
        <pt x="36" y="643" on="1"/>
        <pt x="140" y="643" on="1"/>
        <pt x="163" y="643" on="0"/>
        <pt x="164" y="622" on="1"/>
        <pt x="222" y="129" on="1"/>
        <pt x="229" y="129" on="1"/>
        <pt x="325" y="625" on="1"/>
        <pt x="328" y="643" on="0"/>
        <pt x="346" y="643" on="1"/>
        <pt x="458" y="643" on="1"/>
        <pt x="477" y="643" on="0"/>
        <pt x="480" y="626" on="1"/>
        <pt x="578" y="129" on="1"/>
        <pt x="586" y="129" on="1"/>
        <pt x="643" y="621" on="1"/>
        <pt x="644" y="643" on="0"/>
        <pt x="667" y="643" on="1"/>
        <pt x="771" y="643" on="1"/>
        <pt x="795" y="643" on="0"/>
        <pt x="792" y="621" on="1"/>
        <pt x="684" y="21" on="1"/>
        <pt x="681" y="0" on="0"/>
        <pt x="661" y="0" on="1"/>
        <pt x="520" y="0" on="1"/>
        <pt x="499" y="0" on="0"/>
        <pt x="496" y="21" on="1"/>
        <pt x="406" y="490" on="1"/>
        <pt x="402" y="490" on="1"/>
        <pt x="311" y="21" on="1"/>
        <pt x="307" y="0" on="0"/>
      </contour>
    </TTGlyph>
    <TTGlyph name="Wcircumflex" xMin="15" yMin="0" xMax="792" yMax="836">
      <contour>
        <pt x="518" y="707" on="1"/>
        <pt x="458" y="707" on="1"/>
        <pt x="445" y="707" on="0"/>
        <pt x="441" y="719" on="1"/>
        <pt x="408" y="785" on="1"/>
        <pt x="376" y="719" on="1"/>
        <pt x="371" y="707" on="0"/>
        <pt x="358" y="707" on="1"/>
        <pt x="299" y="707" on="1"/>
        <pt x="284" y="707" on="0"/>
        <pt x="291" y="720" on="1"/>
        <pt x="354" y="825" on="1"/>
        <pt x="362" y="836" on="0"/>
        <pt x="376" y="836" on="1"/>
        <pt x="441" y="836" on="1"/>
        <pt x="455" y="836" on="0"/>
        <pt x="463" y="825" on="1"/>
        <pt x="525" y="720" on="1"/>
        <pt x="532" y="707" on="0"/>
      </contour>
      <contour>
        <pt x="287" y="0" on="1"/>
        <pt x="147" y="0" on="1"/>
        <pt x="125" y="0" on="0"/>
        <pt x="122" y="21" on="1"/>
        <pt x="15" y="622" on="1"/>
        <pt x="12" y="643" on="0"/>
        <pt x="36" y="643" on="1"/>
        <pt x="140" y="643" on="1"/>
        <pt x="163" y="643" on="0"/>
        <pt x="164" y="622" on="1"/>
        <pt x="222" y="129" on="1"/>
        <pt x="229" y="129" on="1"/>
        <pt x="325" y="625" on="1"/>
        <pt x="328" y="643" on="0"/>
        <pt x="346" y="643" on="1"/>
        <pt x="458" y="643" on="1"/>
        <pt x="477" y="643" on="0"/>
        <pt x="480" y="626" on="1"/>
        <pt x="578" y="129" on="1"/>
        <pt x="586" y="129" on="1"/>
        <pt x="643" y="621" on="1"/>
        <pt x="644" y="643" on="0"/>
        <pt x="667" y="643" on="1"/>
        <pt x="771" y="643" on="1"/>
        <pt x="795" y="643" on="0"/>
        <pt x="792" y="621" on="1"/>
        <pt x="684" y="21" on="1"/>
        <pt x="681" y="0" on="0"/>
        <pt x="661" y="0" on="1"/>
        <pt x="520" y="0" on="1"/>
        <pt x="499" y="0" on="0"/>
        <pt x="496" y="21" on="1"/>
        <pt x="406" y="490" on="1"/>
        <pt x="402" y="490" on="1"/>
        <pt x="311" y="21" on="1"/>
        <pt x="307" y="0" on="0"/>
      </contour>
    </TTGlyph>
</ttFont>
